<mxfile host="Electron" agent="Mozilla/5.0 (Windows NT 10.0; Win64; x64) AppleWebKit/537.36 (KHTML, like Gecko) draw.io/27.0.9 Chrome/134.0.6998.205 Electron/35.4.0 Safari/537.36" version="27.0.9">
  <diagram name="Page-1" id="GOzW3opS7kOQcJjKPD09">
    <mxGraphModel dx="1426" dy="841" grid="1" gridSize="10" guides="1" tooltips="1" connect="1" arrows="1" fold="1" page="1" pageScale="1" pageWidth="850" pageHeight="1100" math="0" shadow="0">
      <root>
        <mxCell id="0" />
        <mxCell id="1" parent="0" />
        <mxCell id="f6l7KDXVF6W410hvDn_E-1" value="" style="rounded=0;whiteSpace=wrap;html=1;strokeColor=light-dark(#949494, #ededed);fillColor=none;dashed=1;dashPattern=1 2;strokeWidth=3;" vertex="1" parent="1">
          <mxGeometry x="360" y="240" width="140" height="570" as="geometry" />
        </mxCell>
        <mxCell id="f6l7KDXVF6W410hvDn_E-2" value="&lt;font style=&quot;font-size: 24px;&quot;&gt;Sources&lt;/font&gt;" style="rounded=0;whiteSpace=wrap;html=1;strokeColor=none;" vertex="1" parent="1">
          <mxGeometry x="372" y="220" width="120" height="30" as="geometry" />
        </mxCell>
        <mxCell id="f6l7KDXVF6W410hvDn_E-3" value="" style="rounded=0;whiteSpace=wrap;html=1;strokeColor=light-dark(#949494, #ededed);fillColor=none;dashed=1;dashPattern=1 2;strokeWidth=3;" vertex="1" parent="1">
          <mxGeometry x="591" y="240" width="576" height="570" as="geometry" />
        </mxCell>
        <mxCell id="f6l7KDXVF6W410hvDn_E-5" value="&lt;font style=&quot;font-size: 24px;&quot;&gt;Data Warehouse&lt;/font&gt;" style="rounded=0;whiteSpace=wrap;html=1;strokeColor=none;" vertex="1" parent="1">
          <mxGeometry x="714" y="225" width="195" height="30" as="geometry" />
        </mxCell>
        <mxCell id="f6l7KDXVF6W410hvDn_E-6" value="" style="rounded=0;whiteSpace=wrap;html=1;strokeColor=light-dark(#949494, #ededed);fillColor=none;dashed=1;dashPattern=1 2;strokeWidth=3;" vertex="1" parent="1">
          <mxGeometry x="1242" y="240" width="140" height="570" as="geometry" />
        </mxCell>
        <mxCell id="f6l7KDXVF6W410hvDn_E-7" value="&lt;font style=&quot;font-size: 24px;&quot;&gt;Consume&lt;/font&gt;" style="rounded=0;whiteSpace=wrap;html=1;strokeColor=none;" vertex="1" parent="1">
          <mxGeometry x="1252" y="220" width="120" height="30" as="geometry" />
        </mxCell>
        <mxCell id="f6l7KDXVF6W410hvDn_E-8" value="Bronze Layer" style="rounded=1;whiteSpace=wrap;html=1;fillColor=#ffe6cc;strokeColor=#d79b00;fontSize=20;fontFamily=Tahoma;" vertex="1" parent="1">
          <mxGeometry x="624" y="280" width="130" height="30" as="geometry" />
        </mxCell>
        <mxCell id="f6l7KDXVF6W410hvDn_E-9" value="" style="rounded=1;whiteSpace=wrap;html=1;fillColor=none;strokeColor=#d79b00;fontSize=20;" vertex="1" parent="1">
          <mxGeometry x="624" y="320" width="130" height="440" as="geometry" />
        </mxCell>
        <mxCell id="f6l7KDXVF6W410hvDn_E-10" value="Silver Layer" style="rounded=1;whiteSpace=wrap;html=1;fillColor=#f5f5f5;strokeColor=#666666;fontSize=20;fontColor=#333333;fontFamily=Tahoma;" vertex="1" parent="1">
          <mxGeometry x="806" y="280" width="130" height="30" as="geometry" />
        </mxCell>
        <mxCell id="f6l7KDXVF6W410hvDn_E-11" value="" style="rounded=1;whiteSpace=wrap;html=1;fillColor=#f5f5f5;strokeColor=#666666;fontSize=20;fontColor=#333333;" vertex="1" parent="1">
          <mxGeometry x="795" y="318" width="160" height="442" as="geometry" />
        </mxCell>
        <mxCell id="f6l7KDXVF6W410hvDn_E-12" value="Gold Layer" style="rounded=1;whiteSpace=wrap;html=1;fillColor=#fff2cc;strokeColor=#d6b656;fontSize=20;fontFamily=Tahoma;" vertex="1" parent="1">
          <mxGeometry x="1008" y="280" width="130" height="30" as="geometry" />
        </mxCell>
        <mxCell id="f6l7KDXVF6W410hvDn_E-13" value="" style="rounded=1;whiteSpace=wrap;html=1;fillColor=none;strokeColor=#d6b656;fontSize=20;" vertex="1" parent="1">
          <mxGeometry x="999" y="320" width="146" height="440" as="geometry" />
        </mxCell>
        <mxCell id="f6l7KDXVF6W410hvDn_E-14" value="CRM" style="image;html=1;image=img/lib/clip_art/general/Empty_Folder_128x128.png" vertex="1" parent="1">
          <mxGeometry x="402" y="370" width="40" height="40" as="geometry" />
        </mxCell>
        <mxCell id="f6l7KDXVF6W410hvDn_E-16" value="" style="image;aspect=fixed;html=1;points=[];align=center;fontSize=12;image=img/lib/azure2/general/File.svg;" vertex="1" parent="1">
          <mxGeometry x="430" y="396.5" width="14.62" height="18" as="geometry" />
        </mxCell>
        <mxCell id="f6l7KDXVF6W410hvDn_E-17" value="ERP" style="image;html=1;image=img/lib/clip_art/general/Empty_Folder_128x128.png" vertex="1" parent="1">
          <mxGeometry x="402" y="505" width="40" height="40" as="geometry" />
        </mxCell>
        <mxCell id="f6l7KDXVF6W410hvDn_E-18" value="" style="image;aspect=fixed;html=1;points=[];align=center;fontSize=12;image=img/lib/azure2/general/File.svg;" vertex="1" parent="1">
          <mxGeometry x="430" y="531" width="14.62" height="18" as="geometry" />
        </mxCell>
        <mxCell id="f6l7KDXVF6W410hvDn_E-21" value="" style="endArrow=none;html=1;rounded=0;exitX=-0.021;exitY=0.697;exitDx=0;exitDy=0;exitPerimeter=0;fontColor=#606060;" edge="1" parent="1">
          <mxGeometry width="50" height="50" relative="1" as="geometry">
            <mxPoint x="378.99999999999994" y="608.92" as="sourcePoint" />
            <mxPoint x="470.55999999999995" y="608" as="targetPoint" />
          </mxGeometry>
        </mxCell>
        <mxCell id="f6l7KDXVF6W410hvDn_E-23" value="&lt;b&gt;Object Type:&lt;/b&gt; CSV Files&lt;div&gt;&lt;b&gt;&lt;br&gt;&lt;/b&gt;&lt;/div&gt;&lt;div&gt;&lt;b&gt;Interface:&lt;/b&gt; Files in Folder&lt;/div&gt;" style="text;html=1;align=center;verticalAlign=middle;whiteSpace=wrap;rounded=0;fontSize=10;" vertex="1" parent="1">
          <mxGeometry x="347" y="640" width="168" height="30" as="geometry" />
        </mxCell>
        <mxCell id="f6l7KDXVF6W410hvDn_E-25" value="" style="html=1;verticalLabelPosition=bottom;align=center;labelBackgroundColor=#ffffff;verticalAlign=top;strokeWidth=2;strokeColor=#666666;shadow=0;dashed=0;shape=mxgraph.ios7.icons.data;fillColor=#f5f5f5;fontColor=#333333;" vertex="1" parent="1">
          <mxGeometry x="851" y="364" width="48" height="54" as="geometry" />
        </mxCell>
        <mxCell id="f6l7KDXVF6W410hvDn_E-29" value="" style="shape=flexArrow;endArrow=classic;html=1;rounded=0;fillColor=#dae8fc;strokeColor=#6c8ebf;exitX=1;exitY=0.5;exitDx=0;exitDy=0;" edge="1" parent="1">
          <mxGeometry width="50" height="50" relative="1" as="geometry">
            <mxPoint x="960" y="455" as="sourcePoint" />
            <mxPoint x="998" y="454.5" as="targetPoint" />
          </mxGeometry>
        </mxCell>
        <mxCell id="f6l7KDXVF6W410hvDn_E-36" value="" style="shape=flexArrow;endArrow=classic;html=1;rounded=0;fillColor=#dae8fc;strokeColor=#6c8ebf;" edge="1" parent="1">
          <mxGeometry width="50" height="50" relative="1" as="geometry">
            <mxPoint x="512" y="454" as="sourcePoint" />
            <mxPoint x="574" y="454" as="targetPoint" />
          </mxGeometry>
        </mxCell>
        <mxCell id="f6l7KDXVF6W410hvDn_E-37" value="Raw Data" style="text;html=1;align=center;verticalAlign=middle;whiteSpace=wrap;rounded=0;" vertex="1" parent="1">
          <mxGeometry x="662" y="440" width="60" height="30" as="geometry" />
        </mxCell>
        <mxCell id="f6l7KDXVF6W410hvDn_E-38" value="Cleaned, Standardized Data" style="text;html=1;align=center;verticalAlign=middle;whiteSpace=wrap;rounded=0;fontFamily=Helvetica;" vertex="1" parent="1">
          <mxGeometry x="816" y="440" width="118" height="30" as="geometry" />
        </mxCell>
        <mxCell id="f6l7KDXVF6W410hvDn_E-39" value="Business-Ready Data" style="text;html=1;align=center;verticalAlign=middle;whiteSpace=wrap;rounded=0;" vertex="1" parent="1">
          <mxGeometry x="1010" y="440" width="124" height="30" as="geometry" />
        </mxCell>
        <mxCell id="f6l7KDXVF6W410hvDn_E-43" value="&lt;b&gt;&amp;nbsp; &amp;nbsp;Object Type: &lt;/b&gt;Tables&lt;div&gt;&lt;br&gt;&lt;/div&gt;&lt;div style=&quot;text-align: left;&quot;&gt;&lt;b&gt;&amp;nbsp; &amp;nbsp;Load:&lt;/b&gt;&lt;/div&gt;&lt;div&gt;&lt;ul&gt;&lt;li style=&quot;text-align: left;&quot;&gt;&lt;font style=&quot;font-size: 10px;&quot;&gt;Batch Processeing&lt;/font&gt;&lt;/li&gt;&lt;li style=&quot;text-align: left;&quot;&gt;&lt;font style=&quot;font-size: 10px;&quot;&gt;Full Load&lt;/font&gt;&lt;/li&gt;&lt;li style=&quot;text-align: left;&quot;&gt;&lt;font style=&quot;font-size: 10px;&quot;&gt;(Trunc &amp;amp; Insert)&lt;/font&gt;&lt;/li&gt;&lt;/ul&gt;&lt;/div&gt;&lt;div&gt;&lt;b&gt;&lt;br&gt;&lt;/b&gt;&lt;/div&gt;&lt;div&gt;&lt;b&gt;&lt;font style=&quot;font-size: 10px;&quot;&gt;&amp;nbsp; &amp;nbsp; &amp;nbsp;No Transformations&lt;/font&gt;&lt;/b&gt;&lt;/div&gt;&lt;div&gt;&lt;font style=&quot;font-size: 10px;&quot;&gt;&lt;b&gt;&amp;nbsp; &amp;nbsp; &amp;nbsp;Data Model:&lt;/b&gt; None (as-is)&lt;/font&gt;&lt;/div&gt;&lt;div&gt;&lt;br&gt;&lt;/div&gt;" style="text;html=1;align=center;verticalAlign=middle;whiteSpace=wrap;rounded=0;fontFamily=Tahoma;" vertex="1" parent="1">
          <mxGeometry x="612" y="570" width="148" height="30" as="geometry" />
        </mxCell>
        <mxCell id="f6l7KDXVF6W410hvDn_E-45" value="&lt;b&gt;&amp;nbsp; &amp;nbsp; &amp;nbsp;Object Type: &lt;/b&gt;Tables&lt;div&gt;&lt;br&gt;&lt;/div&gt;&lt;div style=&quot;text-align: left;&quot;&gt;&lt;b&gt;&amp;nbsp; &amp;nbsp; &amp;nbsp; Load:&lt;/b&gt;&lt;/div&gt;&lt;div&gt;&lt;ul&gt;&lt;li style=&quot;text-align: left;&quot;&gt;&lt;font style=&quot;font-size: 10px;&quot;&gt;Batch Processeing&lt;/font&gt;&lt;/li&gt;&lt;li style=&quot;text-align: left;&quot;&gt;&lt;font style=&quot;font-size: 10px;&quot;&gt;Full Load&lt;/font&gt;&lt;/li&gt;&lt;li style=&quot;text-align: left;&quot;&gt;&lt;font style=&quot;font-size: 10px;&quot;&gt;(Trunc &amp;amp; Insert)&lt;/font&gt;&lt;/li&gt;&lt;/ul&gt;&lt;/div&gt;&lt;div&gt;&lt;b style=&quot;background-color: transparent; color: light-dark(rgb(0, 0, 0), rgb(255, 255, 255)); text-align: left;&quot;&gt;&lt;font style=&quot;font-size: 10px;&quot;&gt;Transformations:&lt;/font&gt;&lt;/b&gt;&lt;/div&gt;&lt;div&gt;&lt;ul&gt;&lt;li style=&quot;text-align: left;&quot;&gt;&lt;span style=&quot;background-color: transparent; color: light-dark(rgb(0, 0, 0), rgb(255, 255, 255));&quot;&gt;&lt;font style=&quot;font-size: 10px;&quot;&gt;Data Cleansing&lt;/font&gt;&lt;/span&gt;&lt;/li&gt;&lt;li style=&quot;text-align: left;&quot;&gt;&lt;span style=&quot;background-color: transparent; color: light-dark(rgb(0, 0, 0), rgb(255, 255, 255));&quot;&gt;&lt;font style=&quot;font-size: 10px;&quot;&gt;Data Standrization&lt;/font&gt;&lt;/span&gt;&lt;/li&gt;&lt;li style=&quot;text-align: left;&quot;&gt;&lt;span style=&quot;background-color: transparent; color: light-dark(rgb(0, 0, 0), rgb(255, 255, 255));&quot;&gt;&lt;font style=&quot;font-size: 10px;&quot;&gt;Data Normalization&lt;/font&gt;&lt;/span&gt;&lt;/li&gt;&lt;li style=&quot;text-align: left;&quot;&gt;&lt;span style=&quot;background-color: transparent; color: light-dark(rgb(0, 0, 0), rgb(255, 255, 255));&quot;&gt;&lt;font style=&quot;font-size: 10px;&quot;&gt;Derived Columns&lt;/font&gt;&lt;/span&gt;&lt;/li&gt;&lt;li style=&quot;text-align: left;&quot;&gt;&lt;span style=&quot;background-color: transparent; color: light-dark(rgb(0, 0, 0), rgb(255, 255, 255));&quot;&gt;&lt;font style=&quot;font-size: 10px;&quot;&gt;Data Enrichment&lt;/font&gt;&lt;/span&gt;&lt;/li&gt;&lt;/ul&gt;&lt;/div&gt;&lt;div&gt;&lt;b&gt;&lt;font style=&quot;font-size: 10px;&quot;&gt;&amp;nbsp; &amp;nbsp; &amp;nbsp;Data Model: None (as-is)&lt;/font&gt;&lt;/b&gt;&lt;/div&gt;&lt;div&gt;&lt;br&gt;&lt;/div&gt;" style="text;html=1;align=center;verticalAlign=middle;whiteSpace=wrap;rounded=0;fontFamily=Tahoma;" vertex="1" parent="1">
          <mxGeometry x="795" y="610" width="148" height="30" as="geometry" />
        </mxCell>
        <mxCell id="f6l7KDXVF6W410hvDn_E-48" value="&lt;b&gt;Object Type: &lt;/b&gt;Views&lt;div&gt;&lt;br&gt;&lt;/div&gt;&lt;div style=&quot;text-align: left;&quot;&gt;&lt;b&gt;&amp;nbsp; &amp;nbsp; &amp;nbsp; No Load:&lt;/b&gt;&lt;/div&gt;&lt;div style=&quot;text-align: left;&quot;&gt;&lt;b&gt;&lt;br&gt;&lt;/b&gt;&lt;/div&gt;&lt;div&gt;&lt;b style=&quot;background-color: transparent; color: light-dark(rgb(0, 0, 0), rgb(255, 255, 255)); text-align: left;&quot;&gt;&lt;font&gt;Transformations:&lt;/font&gt;&lt;/b&gt;&lt;/div&gt;&lt;div&gt;&lt;ul&gt;&lt;li style=&quot;text-align: left;&quot;&gt;&lt;span style=&quot;background-color: transparent; color: light-dark(rgb(0, 0, 0), rgb(255, 255, 255));&quot;&gt;&lt;font style=&quot;font-size: 10px;&quot;&gt;Data Integrations&lt;/font&gt;&lt;/span&gt;&lt;/li&gt;&lt;li style=&quot;text-align: left;&quot;&gt;&lt;span style=&quot;background-color: transparent; color: light-dark(rgb(0, 0, 0), rgb(255, 255, 255));&quot;&gt;&lt;font style=&quot;font-size: 10px;&quot;&gt;Data Aggregations&lt;/font&gt;&lt;/span&gt;&lt;/li&gt;&lt;li style=&quot;text-align: left;&quot;&gt;&lt;span style=&quot;background-color: transparent; color: light-dark(rgb(0, 0, 0), rgb(255, 255, 255));&quot;&gt;&lt;font style=&quot;font-size: 10px;&quot;&gt;Business Logics&lt;/font&gt;&lt;/span&gt;&lt;/li&gt;&lt;/ul&gt;&lt;/div&gt;&lt;div&gt;&lt;b&gt;&lt;font style=&quot;font-size: 10px;&quot;&gt;&amp;nbsp; &amp;nbsp; &amp;nbsp;Data Model:&lt;/font&gt;&lt;/b&gt;&lt;/div&gt;&lt;div&gt;&lt;ul&gt;&lt;li style=&quot;text-align: left;&quot;&gt;&lt;font style=&quot;font-size: 10px;&quot;&gt;Star Schema&lt;/font&gt;&lt;/li&gt;&lt;li style=&quot;text-align: left;&quot;&gt;&lt;span style=&quot;font-size: 10px;&quot;&gt;Flat Table&lt;/span&gt;&lt;/li&gt;&lt;li style=&quot;text-align: left;&quot;&gt;&lt;span style=&quot;font-size: 10px;&quot;&gt;Aggregated Tables&lt;/span&gt;&lt;/li&gt;&lt;/ul&gt;&lt;/div&gt;&lt;div&gt;&lt;br&gt;&lt;/div&gt;" style="text;html=1;align=center;verticalAlign=middle;whiteSpace=wrap;rounded=0;fontFamily=Tahoma;" vertex="1" parent="1">
          <mxGeometry x="991" y="605" width="148" height="30" as="geometry" />
        </mxCell>
        <mxCell id="f6l7KDXVF6W410hvDn_E-49" value="" style="image;aspect=fixed;html=1;points=[];align=center;fontSize=12;image=img/lib/azure2/analytics/Power_BI_Embedded.svg;" vertex="1" parent="1">
          <mxGeometry x="1262" y="300" width="39.5" height="52.67" as="geometry" />
        </mxCell>
        <mxCell id="f6l7KDXVF6W410hvDn_E-50" value="" style="verticalLabelPosition=bottom;sketch=0;aspect=fixed;html=1;verticalAlign=top;strokeColor=none;align=center;outlineConnect=0;shape=mxgraph.citrix.reporting;" vertex="1" parent="1">
          <mxGeometry x="1320" y="304.51" width="42.93" height="48.16" as="geometry" />
        </mxCell>
        <mxCell id="f6l7KDXVF6W410hvDn_E-51" value="BI &amp;amp; Reporting" style="text;html=1;align=center;verticalAlign=middle;whiteSpace=wrap;rounded=0;" vertex="1" parent="1">
          <mxGeometry x="1264" y="366.5" width="86" height="30" as="geometry" />
        </mxCell>
        <mxCell id="f6l7KDXVF6W410hvDn_E-52" value="" style="shadow=0;dashed=0;html=1;strokeColor=none;fillColor=#4495D1;labelPosition=center;verticalLabelPosition=bottom;verticalAlign=top;align=center;outlineConnect=0;shape=mxgraph.veeam.magnifying_glass;pointerEvents=1;" vertex="1" parent="1">
          <mxGeometry x="1284.4" y="460" width="55.2" height="54.4" as="geometry" />
        </mxCell>
        <mxCell id="f6l7KDXVF6W410hvDn_E-53" value="Ad-Hoc SQL Queries" style="text;html=1;align=center;verticalAlign=middle;whiteSpace=wrap;rounded=0;" vertex="1" parent="1">
          <mxGeometry x="1275" y="525" width="73" height="30" as="geometry" />
        </mxCell>
        <mxCell id="f6l7KDXVF6W410hvDn_E-54" value="" style="sketch=0;outlineConnect=0;fontColor=#232F3E;gradientColor=none;fillColor=#7AA116;strokeColor=none;dashed=0;verticalLabelPosition=bottom;verticalAlign=top;align=center;html=1;fontSize=12;fontStyle=0;aspect=fixed;pointerEvents=1;shape=mxgraph.aws4.iot_greengrass_component_machine_learning;" vertex="1" parent="1">
          <mxGeometry x="1275.5" y="605" width="73" height="73" as="geometry" />
        </mxCell>
        <mxCell id="f6l7KDXVF6W410hvDn_E-55" value="Machine Learning" style="text;html=1;align=center;verticalAlign=middle;whiteSpace=wrap;rounded=0;" vertex="1" parent="1">
          <mxGeometry x="1282" y="690" width="60" height="30" as="geometry" />
        </mxCell>
        <mxCell id="f6l7KDXVF6W410hvDn_E-59" value="" style="shape=flexArrow;endArrow=classic;html=1;rounded=0;fillColor=#dae8fc;strokeColor=#6c8ebf;exitX=1;exitY=0.5;exitDx=0;exitDy=0;" edge="1" parent="1">
          <mxGeometry width="50" height="50" relative="1" as="geometry">
            <mxPoint x="756" y="455.5" as="sourcePoint" />
            <mxPoint x="794" y="455" as="targetPoint" />
          </mxGeometry>
        </mxCell>
        <mxCell id="f6l7KDXVF6W410hvDn_E-60" value="" style="shape=flexArrow;endArrow=classic;html=1;rounded=0;fillColor=#dae8fc;strokeColor=#6c8ebf;" edge="1" parent="1">
          <mxGeometry width="50" height="50" relative="1" as="geometry">
            <mxPoint x="1174" y="454.5" as="sourcePoint" />
            <mxPoint x="1236" y="454.5" as="targetPoint" />
          </mxGeometry>
        </mxCell>
        <mxCell id="f6l7KDXVF6W410hvDn_E-65" value="" style="shape=image;verticalLabelPosition=bottom;labelBackgroundColor=default;verticalAlign=top;aspect=fixed;imageAspect=0;image=data:image/png,iVBORw0KGgoAAAANSUhEUgAAAgAAAAIACAYAAAD0eNT6AAAABHNCSVQICAgIfAhkiAAAAAlwSFlzAAAOxAAADsQBlSsOGwAAABl0RVh0U29mdHdhcmUAd3d3Lmlua3NjYXBlLm9yZ5vuPBoAACAASURBVHic7N11nB3V+cfxT9wFSQIlIWiQ4O7uVqB4cStapKVIW6BYgUKx0gItULxAoTgUKO7u7pAQkhAS4rb7++PZ+9uZM2fmzsyduXc3+b5fr/NqsjtzzrkbumfmyPOAiIiIiIiIiIiIiIiIiIiIiIiIiIiIiIiIiIiIiIiIiIiIiIiIiIiIiIiIiIiIiIiIiIiIiIiIiIiIiIiIiIiIiIiIiIiIiIiIiIiIiIiIiIiIiIiIiIiIiIiIiIiIiIiIiIiIiIiIiIiIiIiIiIiIiIiIiIiIiIiIiIiIiIiIiIiIiIiIiIiIiIiIiIiIiIiIiIiIiIiIiIiIiIiIiIiIiIiIiIiIiIiIiIiIiIiIiIiIiIiIiIiIiLQfPYDDgf6N7oiIiIiUb37gRGAk0Azs3djuiIiISJkWBS4BJmMDf6Xc0chOiYiISDlWBq4HZhIe+CtlMtCrYb0TERGRwnQANgPuxT/ou2XnxnRTREREitAV2Bd4h3QDf6Xc0IjOioiISG36AscAX5Nt4K+U8djDg4iIiLQDCwMXAj+Sb+APlm3q3HcRERHJaEngGmAG2Qf6V4A/AE3O12+u6ycQERGR1JYleUd/XHkXOB0YFqjrWeeayUCfOnwGERERSWkFbOCfRfZBf5mYOo/23LNvWR9ARERE0lsLO8rnTtfHlYnAFcBKKepegOgDxX+L7b6IiIhksRxwG+nf9t/HwvvOk7GdR516ZgML1d59ERERyWJZ4HbSvfFPw87vr1tDewd76j2+hvpEREQkg8WA60i3xv8d8FssqU+t+hA9Qvh2AfWKiIhIgoWwBD3TqD7wf44F++lZcB/+4mlrnYLbEBEREezN+xxgCtUH/i+Ag4DOJfVlWaJLDteV1JaIiMhcqRNwKDCK6gP/SOAo6hOi939O21PIvqFQREREPLbA1terDfxTgDOB3nXs286efvyyju2LiIjMcZYFHqD6wN+EheNduAF97EQ0g+A7DeiHiIhIu9cfuJx0YXs/AjZpTDf/305E+7VeQ3skIiLSzuwBfEv1gX86cAbQvTHdDOkAvEi4f/9uaI9ERETaicWAB0kfwa+y2e827IjfqthA3CibE+7bLGDxBvZHRESkTesCnEy6Y33VyijgbuD3wNbAgDp+Dog+wFxS5/ZFRETahfWIbqBLKuMzXBuMBXA3FjtgT2BFyjseuCgwKdD2RGw/g4iIiAA9gItJn6mvUt4AhgOHAf8hGoo3bZkJfAw8hEXzOxbYDssEuCDQsYbP5qYK/k0NdYlIDo1cCxSReCsDN2JH/JLMwP+mfj2wX8ufu2Chd7dsKStTzP/3ZwOjsSWFkVgOgREtXxsNTACmApOxh5DKnydgg/6dwI4tdX2D7W+YWUC/RERE2p2OWNrd6SS/nT+ELQ1sTHyCn2Ni2hgE7I09YHxTpZ2yyjRs6j/4tX3z/MBERETau0WAJ0keOMcAP3PuOzXm2lm0vmEnWRTYB7gC22uQdcmhqPIhFjBIRERkrrEvrVPjceUVYIjn3o7AozH3TAbWyNiXebG1/nOBp0mXSbCo8vOMfRUREWmXugPXUn1gfBbol1DPIODrmHvHAsvV0Mdu2HLDb4BbsaiCZc0SvI9mAUREZA43GHiJ6oPie6Q7Jrca8XECvgWGFdj3PsD6WEKfq4EXyHf80Ff2LLCfIiIibcr6pEvZ+yOwRIZ6f55Q11eUH3VvIWAz7JjfJVhsgdeB7xP65ZZ3qe2IoYiISJt0BHZ8L81geHCO+s9PqG8E1Y8WlqVXS9vrAdtj+x6OwR4Q3H7u3qA+ioiIFK4b8HfSvwk/T77z+h2AfybUOw5YM//HKMwA4Hb8ffyU8iIRioiI1NVOZIvlX0uq3C7A/Ql1jwc2raH+Wu2CBQtK+vxHNax3IiIiBVsC+B/VB//nCmirG3BXQhszgAMLaCeLwcC/Yvoz2/n7aKBvnfsnIiJSmg7A4dgZ/bjBeTRwB5YBcE3yH43rAlyX0E4z8EfKDwveFzib+M/8AZZj4C3n62eV3C8REZG6Wxp4mXTLAd8B52Hx8vM4iegbdrDchwUAKloX4Ejip/ubgCuxY4VgDzvBfk7GThaIiIjMUbpgb8Zx8fx90+S3AUNztLUZybH/vwBWz/1JwjpjRxI/TGjvTSyXgesS57p/FNQnERGRNmc94DPSbxCcApwO9Iyprwf25rwcsAGWE+AA7GEjKbTvNOA48p/D740d7fsioY3PsdwDcW30xqINVq6fBaySsz8iIiJtXj/g36R/CGgGvsQ2+j0FvI2d85+asQ5feYpsAYgGAmeSHPBnNPZwkOZ438qEH1SeR8GBRERkDncM1dMB16NMBo7FpvN9OmCzC9eT/NDxBnAQNiuRxVFOPXmCIomIiLQra+KfRh8L/OD5epnlPWCbQN8WxDYVfpRwzyxsNmPDGn8OwRmRMZSzUVFERKRNmRd4kPDAOgJYB5sOH9jy54OBC7Bp+zJnDv6LxfafmXDNy8CvKG7nfl/siGCl/isKqldERKRN6wT8mfAgOx3LJ+DTE9vtfw7Jb+hFlpHAqRSbbTBoODCxpa3ZFHdSQUREpM07gOju/auIX5+vWA24EIsjUNYDwGzgP8C22LHGMuyGxQxoBl6h+ucWERGZY6xLdCD/L+nC5a5L6wBaZhkL/I3a8hjEuTDQzikl1C8iItJmLUZ0av9NLMZ+NdVCAhddXgP+gKX2XRHLTVCLzsATLXVPw5YGRCSnsuN/i0jxBmKZ/lYLfO1LYHPg44T7FgI+Abo7Xz8R+BZLz/uTlvoHYbv9B7aUIn5XzMY2Mc5q+Xt3bI/DZCyw0XTgR2yT4QQsWdFkp46BWFAjsA2H6wTqExERmeP1Ah4g/MY9CnvTTnIR0Tf1C6vc0xWbedgMOBQ4FwtH/Azwqae+epaTq/RdRERkjtMVuIXwgPg9ybvkBxEN2jOC2qLsDQQ2BX6JbUx8jeSjgkWWacCyNfRdRESkXeoE3Eh4UBwHrJpwj28vwCYF96sHtvHwWCxU8ThPm0WV17FTEqthMyMiIiJzhU5YOF53JmClmOvXIDqI/r0OfVwN22/wDMmpiWsps7FlibuxWAh7YT+HWjcgioiItEkdgX8SHgzHED89/pJz7TjqO0gOAg7BggjVY6lgJhZR8HYsi+KuwDIonoCIiMwBOgI3Ex74vsB29rv2IzpI7lSXXpoliIY5bkSZjh2jvAWLLfBTYNESP7dIm6FjgCJzlq7AvcAWga+9gWXtmxj4Wnfs1EC/wNduBPYpuX/dsWWAk4geR5yJzWIcEvjardhMRlesr51b/nc+LFfCvECfEvr5A7a3IFg+xJYYRERE2qTewIuE33T/SzRM703ONWOxtfqybEF8foJngeWwh4Lg1/dPUW9XbJZjdWAH4EjgTGxfxLPYg04RswWTgeeBvwIHYoGIajk9ISIiUrj5gfcJD2DXEp7124XoILd+CX1ZAHuT9w2qPwCHER5IJwS+f1ZBfeiNxUjYFdsDcDuW5rjW44oTgP8BZ2MPHwsU1F8REZHclsBOAwQHrDMC3++NReALfv/8gvvwM2wK3zd4/gv/gPmxc02ZugKrYMsOV2DRBWtNqfxFS7+Pbam7zFkVERERr82IvuXuG/j+Pc733i+o3X7E5x74Ctg64d5nA9e+UlB/suiKJTP6HfAINvVf6yzB/djeh3UoL2OiiIhIyC+JrmUv1/K9Q4gOWEvW2N7GWG4Ct94m4B+ENx76/Cdwz/ga+1KErlhQo1OwvRSTqH0vwf+A07DNmTqKKCIipbma6Jt+byxOgDtAHZ2zje5YXgFfkJ8RwJYp67nSuXdAzv6UpQt2iqGocMcTsIeeX6AjiCIiUrCewDuEB56bsE2Bbpjeu3LUvyR2nt43wN1LtkH8TOf+tXP0pywbAY9TzMAfVz4ELgG2wf7dREREarIc0U1/hxLNKvgD2Tau7YhN1bsD2XRs+SFrvBF3yaLs2ARpbAQ8SfLA/TLw7yrXZC1Tsf0DB9H2ZkJERKQdOZzoAHMH0YFnjRR1dcRSAzd57h+FrZvnsYdT1x9y1lOElagesfARLBsihDc+nowdOXyA6GmMPGUWNvtwNDCkrA8sIiJzrrsJDyy+NfuTq9TRi/BmvWB5BRhcQ/82ceq7qYa68loUi4wYl7SoCVsqcbMufhq4Zhnne8OAvbE9Dm6MhqylCQv2dBJ23FNERKSqn+Cfsg+WRxPuXwh4Nea++7BUwLVYzqnzxRrry6Iv8CeSYwE8iEUddC3oXDd/lbYGYYGJLgPeTWgvTXkOC6g0T+ZPLCIic5VfkDygTMZ/Xn0p/Ef8mrFof0WccR/o1Pt9AXVW0xFbZ08KG/w4Fh8gTjCy4iyyhwleGNuTcSfwY0I/kspU4DZgO3S8UEREPDoAT5A8mKzl3LMy8F3MtddQXMS7TkSn3uctqG6fdbBli7ifw/vYgFrNRYF7RtXYpy5YPIXziD9dUa2MAv4MrFBjX0REZA6zNDCD+AHkhMC16xC/bHAnxYe7He20kWZTYlbzAFfh38TYjCVHOpr0sxovBe59quC+LgQcjJ0yqLZ84yvPArujKIQiItLiMuIHjXtarlmV+EHnWWpf8/dxYxbsVXD9exE/3T8TuJhs6+m9CAcGuqLIzjq6YjMS15P9YWAEFuJ4YIn9ExGRdmB+7Ny/b7D4Hps+Hhvz/Y+pvtEtr8ectk4tqN5FsHC+cQPkC9hSR1buyYVjCuhrGt2wLIQ3Es6iWK1Mw44srlanfoqISBt0AvEDRdygMp3oEbgi/ctp7/oa6+uA7ZKP21z3AxYjIevGvYrTnfo2r627uXTHgjLdDEwk/cPAc9hDRNaATSIi0s51A74h21TyiSX36VKig1ReQ7FgPXGf5d/40xJn8YJT56Aa66tVDywV823Y236af9PXsAcIPQiIiMxFjif94P8k+d+U0/qd0+bonPUcSPwsxhhsY1ytBhA+tfBxAXUWaT7gWKL7KuLKG8DO6EFARGSu0AsbENMMELOBZ7BZgLKi0PniFFRLIxzUF4sgGPcZ7sMCIhVhb6fuawqqtwyrYpEI08QZeAfYl+JPeIiISBtzGtmWAZppDUl7IpYRsCg7edpKu+dgfeKDFU3ABuwi3ei0cXDB9ZehD9ZPd+nCV94GtmpMN0VEpB7mwyLJZX0ICJa3sA1xtQafWddTd7Xp+o7YQ8ysmL69BCxeY79cXYmeoli64DbKtjx2HDQpJkQzlpWwvX02ERFJKWnaPGv5GItktybZ15OX9NT324Tr5yf+eF9TSz/KCIKzrdPWN7SftfPe2EbBa4kGXoorM8geI0FERNqBjSjuASBYvsZ29m9MujXlfp46ro25di3gq5h2xwBbpPrk+VzrtPf3EtsqwsLAEcBDpD8d4CtjgSNRvgERkTlGB+BDynkIqJTRwD+AbbAjiHHcAeppzzVHEZ+57xXsCGBZugLjnDZ3KrG9vBbH9mgk5TvIW97FgiCJiMgc4BTKfQAIlvHYssPPgJ5OP752rh0Z+F5X7CEirt5rsMA4ZdrBaXMatrmuLVgCOIn4tM1pB/enU1zXhOVU6FuXTyYiIqVZGv8v+muBu8kWZS5LmYIlFtob6E908GrC1q0HYMl2fHVMxyL+1cNdTtuP1KndOEOwN/3XyPfzn459hmOAxbCHmc8z3P8VOi0gItLuvU/0F/yBLd/rCmwKnI/t+i/jYWA6MNnz9X2IH5S+x/Yw1MMChJP/NFO/B4+gfti/y2NEUyinKWOwnAC7En2Dv8K59nFgUoo6r8Ue4EREpB06h+gv9lNirh0MHATcTnxioaJKXOreT4ClivnoqZzotD+D8hIjuboA2wO3ku/Y5tvAH7EUz3EbMjcn/LN+H9uv8RNso2PcUctKGdHSRxERaWfWIvpL/ZIU93UG1gPOwjad5XkrzVqeoX6DL1i8gY+cPtxXh3aXwmZdviPbz2c6dkTyKCwbYjX9CAdSmo39mwYNxz5ztbZvIFsERxERabAuRKd7b81Rz0Bs2v4m0ocazlJmYtkMF87Rt7y29/Tj5yW11QP7+T1J/OyHr0zGkhztRfYB2N1c+beEazfGZhSS+vIpsEbGPoiISAM9SvgX+ZM11tcRGwh+j2X3qzaNnLW8ik3ND66xn9U84bQ7CducWKTlgb+QbUllPBaWeGeiJyrS8gU2qvYA0QU7ceDbs1EpM4Bf036CJImIzNVOI/xL/IOC658XC+97DfEZ+/KU2dhu9j2xDYtFWs3T3j8KqrszthnvCU8bcWUCtolvG2r/rAOAUU79O2a4f1HggSr9vRdtEBQRafM2JfzL+/uS2tmX6nHo85ZvgTOwXftFuMXTxuo11rkANivyjaduX5mMLcfsRLGxDu522rkjZz27EX2QCJaPsRkOERFpowYSncYt2olkW9vOW6ZiU+pDa+jrcKLLFq/WUN/q2N6IuEiGwTIduAdb0y96uQHgUKe9H6gtXfIAog8UwTIJ2KOG+kVEpGRukpgeBdXbETtV4BscZuF/0y6izAAuxx5usrrTU9+hGevogK2zP56yvy9hu/fLPOWwJNENn1k/V5xDSA4cdTbaFyAi0iY9QfgXdp6B09UNm8KOG6B3A/4T872iHgR+BH5H+in0NYjOVHxP+rfxbljAnndT9O0rLA7DMinrrkVn4EWn/ScpdlBeAnie+M97O/k3LYqISEn+SviX9eI11tcPi1rnGwimAT8FFiQaZW8WNpCsgIWqvZ/astlVykekS2bjnohoxvYWVNMX2yE/sko/pmI7+DfBZkfq5SxPP8oIqNQZuID45Z6XsX93ERFpI04i/It65Rrq+gnwBv4BYAqwdct1J3u+f7Onvr7YOvLdRB8YspQm7CRCXCIfN+lPM7YRb0DCZ50HOJ1otkC3vAsci52IqLfNiAZq+m3Jbe5G/JLAF9Q3mqOIiCQ4gPAv6Q1y1rM08TH8J2EnDsCmnj8hOkCvWKX+QVhAoC9i2khTPgXWdurtGdPvS2P6MQCbvk861jgFO7rnRterp0HYCYlgv17A3tTLNpz4lNNjgDXr0AcREaliG8K/oLfIUcdawFj8v/B/BNYPXOsePWzGpvvT6ozFFsibpGgmFrCmwpcTYTrR0wQLYFPcSclyPgGOo/Hn4DsCDxOd0RhWxz70I/6UwCSUVVBEpOFWIfzLeevkyyO2Iz5C3A/Yw0GQb/f/+mTXCZu9+Dqm7WrlZmBV/Ef0gjkR5gXOTfiMTVhQou2p79p+Et8Sy5EN6EfSSZAZwC4N6JOIiLRYjPAv5u0y3Hsg8WvzY7EBNmh+ohv7nqmh72DHFk/GwuTmmQ1wvzYBm+bvjQXviat3EpZOd3iN/S/aOkQ/18M09ije8fiTRs3E4h6IiEgDDCb8S3mHlPf9nvgd399hu/ldx3muzfLAkWQAdtwsz2xAsJzd0k83PkKljMIeOOYpqN9Fmodwlr9mbJNi2bkT0tgVf2rjWcD+jeuWiMjcaxDhX8g7Vbm+E5Y9Lm4AHUH8+Xb3jPybFP9muhd2fj/vA0Dcrv7PgCMoLlBS0Trgj63Qlt6w18ef/Gg2cFAD+yUiMleal/Av458lXNsNuI34wfMrLOqcz7qe68sanAaRHKY2S3kby2VQj93ztTiaaN/vbGiP/FbGv2F0NuWlXBYREY++hH8R7xpz3TzAU8QPlJ8BiyS0c61z/aeUN6j2Aq5M6Gva8kfaRxjblYnurRgJzNfITiWIewiYiaU6FhGROvgJ4V/CP/VcMwR4h/iB8kOS15n7Ed1Ff3gx3Y9Ynfgz6FnLLOBMoEtJfS1CHyzaYbDfTdjxzrZsBfz7LKbT9vsuIjJHWIrwL+Atne8PJ/mo3btUD/F6uHPPtxSb5hZsb8IplJN2+EXilzYa7Uai/b2ioT1Kbzi2YdTt/2SiAZtERKRgqxP+5btR4Hvrkxzq9g2Sw+VWvOrcd1IxXf9/iwBPJ/QzuOyQ9yFgIm1vevoX+GdjykgnXJZV8EdVHItFlxQRkZJsQvgXbyVwz874j21Vysuki2+/qnPfeGxJoCj7UD0GwJfYBrOPq1xXrTRhCYLaQsCf1Yiu+08FVmpkp3LaGP9/a19gS1QiIlKCnxP+pbsSNmU/i/iB8DnSD+LukcFzCur3PMC/EvrYjG0quxB7Iy4iRkCl3I1tnmyUefHnLziigX2q1c74/5t7k/gkTiIiUoNTCP/CvZnkwe8J0k8x9yI8vTsFO6JXq42xI4dJ/XyZ1syGRyVcdyf+s+nVymsFfZasOgL3efpzWwP6UrRD8AeXuhfb4yEiIgXKclzucbKtLx/o3P+XGvvaBUvBmzQ7MRk4kdYBwzdVXinXt1zTp+Weaql93fIZsESNnymr33n68SnFLqs0ki85UzPwp0Z2SkRkTvQg6Qa7+8i+c//ZwP0zgUVr6Oey2Ft3Uh//Q/g4Yn/iN/69SPTz9APOw58gKK6MAJar4XNlsQnRh59p2EPOnKIj8UGcFC1QRKRA7hnyuGnyrhnrHe7UcUPO/nXAMtlNSejfV0TjF3Ro6bfv+pHAQgltDsNSFKd9CBhD+UmBFsJ/ZO4XJbfbCH2wCIzuZ50OrNnAfomIzDF648/SFiz/Il/EvosCdTSR7y15AeCBhL7NamnHt0nsmJh7pmEZ89LYAXtYSPMQ8C324FCGLljWRLfNa0pqry1YDHuw8i13NHIDpojIHMEXnz9YriPf5qvuhEO93pOjjh2Iz8jXDLxCNN1wxRrET+MfnLEf8wG3JPQjWL6mtmWOOH/2tPUKxQdTarR+2EzKlsAB+Dc7NgM3NaqDIiJziiOJH8yuIv959z2dutK+cYOdHLgioV8TgWOJfzCZB/8RuWZq24S4K9XjDTRjsQbmr6Ed18+I7owfCwwtsI16GYhF+Ps5cCrwT+AR4D3s3zXtkkszihQoIlKTf+D/5XoptSXB+V+gricz3Lca8EFMn5qxzWFDEu7vQPwGsieoPab/Elj0w2qD01NY5sRaDSMaJW8WsHkBdZdlfmAD4FBs5/6d2M8s6wBfrfyqXh9IRGRO5Btsaz1utQThN9atU9xTLY7/18BOKer5Vcz9X5AuZHEaPbC192oD1A3U9hDVE3jLU29bGfgWAbYCjsdmi57Cn+GvqDIGS0j1EJagaU459igiUnduFsDg2+tpwIo56/1joK7XqT4ILkJ8muFZwCWkiwS3Hv4HiMm0BgQq0nFU30B5Sg31X+ep7+oa6surBzYzczA2M/Qk6ZZCspRvsU2O/8SWBg4CtsPyVAwm+wkUERFJ4IYA9pV3sd30aUOxdsF+mVfu373K9XsTP5i8hg0AaQzCzuO7dTSl6EMtdgQmedoNPsBslKPeQz11PUH5A2FfLMriCdjGx/dIDrqUpYwEHsX2d5yAhf5dAdvzISIidRS3/u8rP2CR8qrtOt8pcM/HxG/U60/8zvpJ2LRy2qOHnYDHYuo6M2UdtVgN//n84MCXJWTwKkQT43yCnUYoUk/sFMgxWErhD6g+o5GmfI89rPwVyymxIemSRomISB10wNbFs/5y/xRLERwnGDzn0JhrNiI+jv89wMIZP0tc6Ng7qV/WvqVIzk3wv5R9mQcLLxy8dzywTAF9HAbsh72Bv0ntb/YzsDTPf8dOZWwGLFhAP0VEpESrkf8X/2xsndZd2x9C66Aygugu+K5YmF3fW+YI7LhbVtvhTx7zJtlyFhRhEZLTDR9X5f4OWNIbd5DNs+O/J7YT/yTsVERSPIU0ZTqWXOlK7MFuVbQuLyLSLsW9NWcpNxGepj8t8L0TnPaWwR/HfzZwGfkiuy2KP3nPaGwwboQFgfc9fWrGNiMumXDvyc71TdgeiTR6Yg8K52CpmuNOU6QpU7E8CX/FNv6tTO3HJ0VEpI0IHv+bAowi32BxM7YG3wn4suVr42jdNJgUx/8NLGJfHt2xSHi+N9WkJYp6+AnxMwFP4V8K2JjolPxvEtro3nLPGcDTZEte5JaPsSOLR2CDfZ6wzyIi0g4sR3gAeAAbqFfFBpSsZ7nPw876V/5e2Xg3CH9CnUnAr6ltoIlLYZw1zG9ZFiY+GuHhzrU/IfoAdolzTVfsweZULCWzu0kwbZmEbdA7Bwu1PLCQTysiIu3CeYQHhZOc7/cBfgv8SLpBpQnbpV6Z5h4AbI9/Z/x91D49v29MP9xBs9EWA74h2s+xtO6K70w0BsJt2P6JdbA4Ao9gP9c8A/4n2Nv9kdjpAr3di4jMpToTPqffTHxM9aXwp2RNKv/AH8d/JBZLv1bL4x8MH6ZtDm7LY0co3f5e1vL9C5yvz8Le8POEzZ2NBV66GItPoLd7ERH5fz8lPGhMJnk3dy/g36QfhNy49bOByykmbGtf4ENPmx9ix+faqvWJTtnPxGZZfCcY0pZZ2D6IC7EZl7b8MxARkQa7h/Agcn+Ke7pi8dezDlBvAmsV1O8O+B9EfgCWLqiNMu1K/oE++NDwInA+sC2KhS8iIikNxgaR4KCS9phZb+Al0g1Uk7Ed7EUeHTve084sLBlNW9UDm3G5Hv9xxTQD/nNYboWtSR+OWUREJOR8ogN12mA52+KPte8rIyh28F8b/zG3aoF1GqEnNh1/PdHlkDTlU+yEw67oDV9ERArQh+hmtJtS3Nef+CN3SaWIDX9gG9l8O+mvK6j+IsyDnUy4jeTEQL4ypuW+Q4Gh9e64iIjM+Y4jOvhsXeWe7bDd+0kD2Cxgf6KnBZ4soM+dsBj6bpvPEA0zXG+DgF9gpw+yRN2bhn2mE7FjefXKVSAiInOhzkQT/3xE/ODTD7iW6oNZE3Bgyz3DiR7PW6HGfvvCFX9Jtsx6RVoYy5z3FNmy5r2F7dTfClsiEBERqQtf4Bw3Gl3FFiRntQuWXzr3ugP2X2vo8/ZEj8hNAlaqoc48lsTe1l/y9CeujMNSHe+LsuOJiEiDdKE1Sl+lfI+d7w/qiUXSSzvIneJpaz7CMdXNcwAAIABJREFU0QNHEs0YmMZQouGIm4Ddc9SVx3Bs0H+GdD+LZmzz3iVYSlxlyRMRkYY7hOhgdZZzzcbEx633lXMS2vubc+2qGfvbHcsx77Z5asZ6sugArA6ciy2NpPkZTMdC9B4LLFFi30RERDLrRmuGvkr5EZi/5fu9sJC0WaLRXVqlzY2c60/L2OerPG3eRr6ZhCQdsQh9FxP9GcWV77C9EbuQL32xiIhIXRxN/Nv/esSnrI0r11B9IO5IOAnQyxn6u7+nzTeILlfk1QXYHMtVkDb98evYz2xNtGNfRETagf7AaMKD2Q9Y6tkLybaLvRm4FTuWl8btgfuasOyA1fiS/Iyh9syB3bENhf/E9j6k+azjgcOAITW2LSIiUncXEx3Y7gfe93y9WrmXbJH9jnHu37LK9b09/ZoJbJKhTbe+XYF/kT6lcbB8n7NdERGRhlqWbMFpksqj2Ft0Fus7dZxc5fqbPO26RwyrmQfYB7gLmOKpL0tpovGBhkRERDLLk7nPV54nfa6AoAWdem5LuPZQT7vXp2xnPuys/b34cwXUUoam7IOIiEibsCPRwSzP4Pgato8gjw7AxEBdn8RctyIw1Wn3BZJnHAZjmxufwMIQFznoB8uaGT+ziIhIw/QFviY6mJ2IhaNNO/i9S7qNe0leD9TXRDSzXR/gQ6fdkdgmRdfiWHrhF8h2ZLGW8tOaPr2IiEgdXY5/Gr8T8AfP93zlE/yDcFbBkwDN2Nt+0A3O92dgewcqFsM2Ez5D/Qb9YDmsgJ+BiIhI6dYjerRvCrBUy/dXovqg9xW1H7urOM+pe5vA9w7ztH0QFjXwHOCDFH0tskzzfO30gn4OIiIipekGvEd0EDvWue5TzzWVMorWh4UiuEGIDm35+spE1/1/JFso4lrLt1hcgyOB5YC1PNdcUeDPQkREpBRnEx3AHiMaue4Cz3XN2Ln3WlP3unZ22jgD26OQNfpgEeVrbMnhEPwPOT2wuAPBe+4q5scgIiJSjnWJ7oYfg38df12ig+Oklq8XbU2nnavxn/cvo4zEjh4eimX2S+Ntp46nc35uERGR0vUFPiM8cDUB28Zc3xGb/q5cOxnYsKS+DXH6NZFyBvtmbM/AVcDe2DHBPK5z6nwrZz0iIiKlcwetZuCiKvfc33LddGCrEvu2qqdvRZUmbA1/N2CBgvp7nNPGlwXVKyIiUqjdiA6MrxAfwnYB4L6W62Zia/RFWwpL/+vbkFh0mYVN05+AxQmo1XZO/eMLqFNERKRQiwDjCA9YPwBLxly/C7YvoBk7Krh3wX05kXDgnyLe8JNOLPiufwo4AAswlMcyTp2zUfpfERFpQ7oBLxMerGYCW3iu7Q/cSHigLCLAzYJYkJ7nKSdIz6dYOOF1gL/Q+vCSpkzATjtkTeXbnWgchbyhkEVERArni/Z3pOe6zYmGBf5VDe12xIL5/Ifokbmiy+1O212A7bGkP2nj/88ArgUWzvAZv3LqGJrhXhERkdLsSXSgu9y5pif21uy+mZ+es83BwKnYprgyB/1gOSmhPwsDZ2JH/dLUNQWLLtg3xWd93rm36NgIIiIimS1D9Cjdw0DnwDVrEU2w04xNiWfRCXvjvodyMu69WuX7vuUMVxcsFbB7fj+ufE31Uw8POPesn3y5iIhIufoD7xMenD4A5mn5fhfgLPxT81dg6+lpDMGSBvkyCtZavgcuoTUp0ISY62YHPlcaHbAd/E+n6EMTFi+gV0xdNzvXb5mhHyIiIoXqBDxEeGD6ltajb8sBr+Ef8G4g3U72VbHBr+i1/dnYLMUeRI8nxh0VfCdFf+NsDbyZol+v498b4O6v2L6GvoiIiNTkIsKD0jhsbboj8GuiiXUq5U7CywOujtgA90TM/bWUL7E9B4sktP9ozL1XVfl5VNMR2I/ohj63jMKWTILcnAplxEoQERGpan/CA9JkLO3vUOBx4ge3h4kPCNQNWzt/N+H+PGU6tkt/V5IfPCr+E1PPfinuTaMncC7JexgmARsE7nEfAPYoqC8iIiKprY8NqpXBaAp2tO9gLH1u3KD2JDb4uQZh6/tZztSnKW9hMQHmy/j54h4A4oIZ5bUWyRsFxwNrtFx7nvO9fQrui4iISKKlgLG0DkRTsbf2e0kejF8kGglvMeDvwLQq92YpE4AraR0487jLU+83NdSXpBvwV097weWAwcCfna8fVFJ/REREIhYgnOFvKjaAV3tzfxOYN1DPIsA/sIA4RQz6lXC7++GfYcjqHk8bNxZQb5J9sZkU3+d7AXuoCX6tiKiJIiIiVfXGEvoEB6HRVB+cP8Cm+MH2B1xFcQP/t9ha+rCCP6vv2N7BBbfhsxLhlMjB4s6S/LIO/RERkblcF+BBsg/QX2GD/hDsnH3cqYAsZTbwCLahr0tJn9cXsKiIrH5pDCNdrINaQieLiIhU1QG4huwD9QhgQ+z8epFr/L8o9+MCFhjIfZCpp8WBL0j+OZxQ5z6JiMhc5k/ke0v/H8UO/MFp/yzR+LLqSjRXwfUlthdnGZJPVBzXgD6JiMhc4jSKH8CzFje9cDO2gbAsS3raO6DE9pLsSHxK46Mb1CcREZnDHUfjB/8XsUx5o5yvNwGblPS5t/T0Y9GS2krjak9/moHDG9gnERGZQx1C/Jtn0WVSzNdnA6u39OcIz/c/ppgjf67DnXa+KKGNNJYB7iD+36EepxJERGQushc2+JY98D+NhbM9I+b7fw/0qQs24LvX/LPoDw9c6LRxbQltJBna0ma1VMf717lfIiIyB9ud4rPuBctkLA5AJe1uV2Ck57pxwACnb7vE1HlIYZ/ePOzUv1/B9ccZBFxKOMRyUtm7Tv0SEZE53B6UN/h/DBwP9Hfa3Dfm+rijfr4QvVOBlWv43C53v4EvNW+R+gNnEb8U0owtA7jBk5QMSEREarYX1aecs5bZWH6ArbA0uD6ve+57DIs94LMA4TwElfIpxRwNHOSptyzdsbP8bswBd+C/B1gF2xAZ/N4uJfZNRETmAj+n2MF/LHA+lugnyWaeeydTPeLeHjHtPgX0SPWJ423h1FnGccOO2MzHlyT/HO8DVgvc94zz/e1K6JuIiMwl9qa4wf8V7Lx82kH4KU8dx6a895aYPtwFdEpZh8+vnfqKXmffAniD5J/jA/gzGT7mXLd+wX0TEZG5xD7UPvhPA27A8tpnsYmnrueIXypw9cK/fNCMnR6IW0Ko5ganrsE563GtTHRzoVv+C6ydUMdDzvUrJlwrIiLitR+1Df5fAacAA3O2/6RT32Rg6Yx1DCU+G+GfyfcQ8Fagjo9y3O/r4/UkH6t8CFg3RV3uA0AjgxOJiEg7tD/5zvk3AY8CO1HbNPvGnrqPzFnXBsQfm7uK9DMKYEcSgzvtr8zZJ7ANiX8iPvthE7ZBcs0MdT7q1DFfDf0TEZG5zAFkH/wnAJdhkelq1QF4wan/fvJP2QPsTPzxxZtJnzJ4FefePOv/3bF9BONi+tOERffLc2zxCaeuslIhi4jIHOYgsg3+72IhePsU2Ad3B/9o7OhdrfYkfknjEWDeFHUc5Nw3LEP7HbEHhi9i+jAb27i4XIY6XcFTAFNqqEdEROYiB5Nt8L+7hD50Az5z2tmhwPr3I/4h4GNg2Sr3Xx64/nvSz0psTvyGxJnYHoCs+xt8gqcHvi2gPhERmcMdQnTwn4xNvcc9AOxYQj9+5bRxRQlt7Ih9triljN0T7n0ucO1DKdpaCdu572trBhZDoFpMgyyCcQM+LLBeERGZAx1KNJvcHdju9N3xD17Tgd4F92Mg4XXxD7GjfGVYi/jTAc3YG3lf555OhB8c/pBQ/6LYcUHfjMo04K/Yz7doEwPtPFdC/SIiMofYl/Ag9SGW6z74fd8A+XIJfbk2UP8MWtP8lmVx4E3iHwK+ILz8sKzz/W09dS4A/AX/qYMpwCXAQoV/EtPFae8/JbUjIiLt3K60rodPAk7GjrkFHYx/cLyl4L6sQ3gW4ncF1x+nB3AN8Q8BzVic/WWxDXzBrwczEfYHzsGfrGcidtyviI2MSQY67f6t5PZERKQd2o7W8+wPED8dfSD+QfHMAvvSifAGuWeoLYZAHvsDPxL/EDCb8O79SgKgnsBJ+I/0TcQeCuavz0dgKaf90+rUroiItBObYcFnRmNJfpLEJdU5uMD+/DJQ7wQaF71uEeB/xD8EBMu/seOPIz3fmwScR/0G/oq1nX7EpUsWEZG50HrYAHU96Qao7fEPgPsX1J+hhDeu7VdQvXl1AA4jPkhPcEbA/dpk4ALyhz6u1bZOf37aoH6IiEgbszq26W3LahcG+ELyNmMBcWrVgfARuVsLqLMoA7FNie7pCF+ZAlyEbQBspEMJ9ytr8iWRNqlzozsg0s4tj637r4vNAKQ1KubrRazR74+lvgX4Bji8gDqLNAEL0uNujKyYgeUCOBdbCmi0Ic7f4/7tRERkLtGN/FHm+uB/6/1tjX1akNZp9tnApjXWV5T+wFmElyWSlgHOo+3E2/8n4f51b2hvRESk3ZtAdPC7vsY67w3UdUGNdRWhF3AiFt7XN9gnnRB4EVis/l2OCG5g/K7BfRERkTmAL4b9CzXUF1yrfgOboWiUPtgxPl9UwNnYEcktsRmPytdneK6dQL7MgEX6iGL+fURERAC4Dv8bcZ6p78VpnV6fSm2Z72oxD3ZO3vfG/yOW2jiY6e+OwPd/BfwGC+nr3vtfYIm6fIKwDthmxEo/bm5AH0REpIHSZqfL4nj8U98bZaynE/Bs4P5jiutiagOBs/Eva3wDnAD0c+7pgGXWq1y3asvXlwNe9dQzFTiV+s5sDHD6cFYd2xYRkQbqgOWbL8Om+B8Azs9Yz+8IvymX8bASZxngKmxwdj/H21j8gbjd/isGrv2B8KmkLsDp+JcFPgX2oT5RDVdx2j6wDm2KiEiDdabcQaYX/uQ2H5B+EN+Q1rwDY4CfFN9Nr42xDYe+8/yPAdtQ/TOcGLgnLgfCCsDznjaagfeA3SjvAQ0s6E8tszMiItLOLEx9ppqfwj+4bZXi3oHAiMA9u5TUx4pu2IY83/T8LCzg0GoZ6nslcP9eCdd1xMIDj/e02wy8hQVQ6pGh7bSOctoaWkIbIiLSBnQGNqGcwcTnVPyD2mNV7utIONrfv0vs46JYUB7fjv7JWJrerMf1hgXqmEJ0f4DPT4DbPH2olLFY/IAiB+nzAvVPp/7JlEREpA56AHtS3wiZqxM/oK2bcF/w+NxYik+J2xGLcHg//vj8o7Hd/nkT85wZqOvGjPdujB1zjPu5zcLO7h8CzJezfxU3B+r9qMa6RESkDeqP7cpvRHjs4Dlzdy+AbyYiuO7fTLHn5BfFZiU+j+nTJ1ho4VpmSDoTXrrIE62wExb3wDcrESwzsJgDB2NZCbN6OlDXPTnuFxGRNmwBLGpeowLnnE78AHaxc6277n9fAe33w9bQnyQ+Sc+L2B6DIqbAdw7U+zm1beLrh03TTyb5QaBSPgb+hn2WhVPU/0Xg3nNq6KeIiLQxi2Lryr0b2IcliR94ZwM/b7nOXfefCAzO2WZXbKf+zYQD3bht343NOBTpuUAbpxdU54LYXgTfqYqkMgb7mZ6LbURcu6UusIed4DHEyr+DiIi0c8Oxo2SLN7ojhGP4+6ax9yd83r8ZO0aXRS/gZ9ia+w8J7Y0D/oQ9HBUtGPtgNvmm5ZMsgqUbnkm2BwG3TAU+dL62YsF9FRGRBlgSSzW7c6M70mJ9kgekJsKb8T4kPsBO0AAsGM9dxL/pV8pb2Lp6z4I+k89jgfbuKrGdRYBLsRTNtTwIVMpMlAVQRKTdWxj4EpsybkuCU+PVSlycgPmxh5pLsUh8cUsLlTIFmxHYqITP41rXaXudOrQ5P3ZaodpmwWrl/Tr0VURESjQP9sv8W9KdPa+n9ak+YAffnHthxwgPBf6KvcGnub8ZC+ZzBHb6oV4eCLT/ZB3bBdvguSfwOOl/RsFSZpwFEREpWRdac7vv2+C+xLmJ6oPRR8CoFNe5ZQw2M7BS3T5Nq7WdvmzTgD5UDMM2/X1K+p/d6Y3oqIiIFONK7Jf5c9Q3YU4Wg/En1slbRmKzA5vSuCh2HYAXAn16k7bz818RG9xfJXnj4K4N6p+IiNRoP1p/me/Q4L64Fsei1t0CfEftg/4XWPyA9Sk3UU5aexPuX1s9TtcLO/L4INGfadZQxyIi0gYMpzVQzCc0flBcABsEryY+4l6W8jUWy+Bw7HRDW9IT61+lr+/SNuPp9weOxaIv+pZO2sqMhYiIpNSZcPa64xrQh/7Ajtj6+7vUPuBXyufkDwRUL6cT7vOODe1N1GrYg1hSJMEHGtY7ERHJLRg8ZxYwbx3a7Alsjm00e4lw3P6iy4F1+Dx5DSE8sD7b2O78vy7AHlh44zQ/4z80ppsiIpLX4oQ31JU1AHXGzrj/HngCmEb2gfx7LK5/UpY7XxmLBftpi+4h3Nf1G9sd+gO/Ab4i2894u0Z0VkRE8ruL8C/y3xdUb0fsKN3xWLrciWQbUJqwEMRXY2/wy2BrzJ0Jr5enLTcU9LmKtBfhPjYyk94SwGWk+3d6E3jI+VrRqZZFRKREvtC6q9dQ3zDgMGyz3RhP3UllEhaA5mxgW+KXIXaKuf8Nqk9X71PDZyvaQMI/o1nAcg3oxzrAfwiHUPaV6dgJjPVa7vtb4Htf1LXHIiJSs0cI/5KfRbrY+RWDsLPfV5J9p/5ILLnPidigkjbN8KMx9W2DhS8em9DmVGDlDJ+vTLcS7ls9Qy53ADYjOblS8N/pXKIbKYMhmW+rS69FRKQQqxL9Zf9plXvmxTLlXY6FCk472M/A3s4vBnYj/678pfCHqH06cM12MddUyodA35ztF2VHwn0aRX3CDXfFMia+Q/K/VxP2oLUztuTi6gBMCFx/Qsn9FhGRAv2d6C/+/zrX9MIS6vwJOyZYbZq4UsZg69knARsAPQrq82Ux7bkb535bpX8PkW2mo0gDsLfqYH/KDrncB9uLUW3vxHjsGObSVepb1Llv7VJ6LSIiheuFf7PX37HB9HTsrXqG5xq3zMbeKK/C3i6XKqnPC+EP/3t/zPXXVOn3v6h/sKMO2CmGYD+epLwAOoOwPRXjSP5ZvAn8Auidst5dA/dOwo4MiohIO/BT0k/fu2UiNj18BrA19cuU53v7nwWsEHN9F6J7HNzyt3K7HHGM0/4Mytn4twRwBcn5Eiqb+vIcO7wwUM8jBfRXRETqxDf9H1c+A24EjsSO9TUiRO1g/HED/lrlvl7AM577guVy6jMTsDLRz3B+wW2sDtxO8lLN11jgpwVqaCf4M/1dDfWIiEidxW3gm47t7r4Q2wC2YKM66LicaF/HAfOnuLcvFmmw2nJAmXsCemObD4NtfkAxeyM6AFvSmsLZV6pt6suiK+GZhUYHLhIRkZT6E79LfrMG9ivOEvjf/o/OUMc8VI8R8DC2Wa4M1zltzQLWqrHOzlggoaSoiGk39WWxZqD+qaQ/vikiIg22GvEDxs4N7Fccd9NcM5YsKOvGs17YKYekh4APgGUL6XWroz3tnFNDfd2wUwMfeeoNfo5jSL+pL4tg3ojHS6hfRERKsjPxA8cBDeyXzw74p7M3yllfdyzqXdJDwPiWdouwEdGTFG+T7615fux0RlyExenYUkbZU/JPBtpUAiARkXbkQOIHv0akAY7TAwtM5PbxHzXW2wmbFk96CGjC3tJrOd42FBjt1DsDWCVjPYtiJyDiUvF+A5xKffZr9MEeNCptb1yHNkVEpCBHED/wndHAfrlOI9q/URSXqvhIYKanjWB5DRieo+6ewOue+rJEzFsJuDmhj48Bu1D7pr4stgu0Pwmt/4uItCsHED/g3dLAfgUth3/j3x4Ft7MV8IOnnWCZikXRS3v8sQPROP/NwN2kC/izCdFMe5XyI3Yiouh9CmkFZ07ubVAfREQkp7hses3AWw3sV0VX/G/PcRH/arU4yTvpK+VlLH9CNRd47v0MO4kQpxOWI+HlmLbfxWYsyjqlkFbw+OiRDe6LiIhktArxg9x06jul7HM20X79AAwpsc3u2N6Cag8Bs4HriV+GONJzzzTs5IVPH2y3/ucxbd2LHc0sK1RwFoMJ92/xxnZHRESy6k1ytrxlGtc11sLOyLt9+nmd2j8Yf44Et3wHHE74YWlP/BH4DvO0sxhwETal717/LbYXY6FCP1ntDqK1jx83uC8iIpLTW8QPboc2qE998J9tr3eu+SWA5z398JX3sbwKmxLeHV8pFzp1rwfcgf8h5ylsj0OjshRWcwetfb2swX0REZGcko7B3d2A/nTAYtj73obThPstWmfsaF21UwKV4hvQb8NyDPTGMu359hlMAq4kPqFRW9GL8DHEbRvbHRERyWsT4gezydiaeD392tOPJmCbOvfDtQbRGP5pytPYXovLgAme71ci9fWr30epSTD971TsgUBERNqhTsAI4geweg68G+F/0/5zHfuQpBeWNjhp34RbfEsss7AohJvTNjb1ZRE81vhwg/siIiI1+j3xA1i94gEshAX3cdt/iba3Fn4e2WcCKgP/H4GF69/lQvQgvDHyqMZ2R0REajUQW4P2DVrTqS1ffBq98J97/wELf9sW9MMGvHfIN/hXyn8p/+dZlmDciCbsOKCIiLRz5xA/aLk72IvUCbgnpt1dSmw3rVWAq4h/QKqUuMQ8vjIKOyrY3txEeGZGRETmAP3xT8E3A1Mo723v8pg2LympvTTmwfIkxEXjq5TPsQen5bFseFlnAx6j7e/6r+hGeBPjyY3tjoiIFGkv4gerW0to74SYtp6itux7eXQCtsT2PEyN6VczltXvL8C6hDfw+eIFpNksOBs79rh8mR+uANsT7ncjg0SJiEgJfGfwK+WnBbYTFy3vG+q7Rj4ce4v/2tOXSvkRC/u7Nf7wyPPiP/9/KBY176uEuoMPCw9jP+O0yYbq6WZa+/p+g/siIiIl6IOdTfcNUmMpJg7/TviP+03DQgCXbRHgJOBNTx+CfbkL2B3b/Z5kd8/9X9A6i9EdOI70+wRGYAGa1scCCDVab8J7IP7Y2O6IiEhZhhO/6e11astEty3+ULmVN+ayLIjt4n+W+Kn5aVjSnf1Jztjn+q+nrsM91/UBfkty3IW4h4ENaFxypr2dPq3RoH6IiEgd7EH8QPkI0DNHnZsRv75+ae1djlgYOBaLxudbbmjGoh3ege1/6JujjWFEf04jSI6g2AWbNXgmpk9xZSLwIDZ7sTb1eyB4MNCHr2l/wYtERCSjw4l/CHicbOFrNyQcQz5YHqC4de+lgBOxY2pxff8R2+y3C/keZIIu8tSfZSZjZeAKbHkly8NA5YHgYWwPw65YWt6iB+eBhJdrLiq4fhERaaOOJX4Aeh97A65mC+IH/7fJ9+Zd0R3YCptB+CShr+OA64AdKC6/QW8sWFGwnXfJ92beBQu7fD3+nAFpy3js4ewiLKXx2tgRz7yOdurX9L+IyFzkJJLfQg9OuHcnbG3dd+8oYGiO/gwFDsPW6+MeLJqx3fdXYA8IZYQTPt3T5nYF1Nsde1D5GxZrIO/DQLB8gy3dXIJlJNyQdNkVg8cbPy7gs4mISDtzJMkpcR8BlnXu2SfhnsnAminb7owNWOdhMwZxfZiFbfI7BVgx+0fMZAHCcfGbscA+ZVgaO0XwILXNDvjKWCzuwpXYbM8WtOYqWILwMsoZJX0+ERFp47YieQCaCVyNDRxHEL/xbibV35SXAA4BbiM6zR4s3wI3YDvV07zRFuUKpx/TiT4AlaETtm/gl9jPJsuJgixlItH4BQr+IyIyF1sOO+OeNHj4guIEi2/JYDCwL/BP4MuEeydjb8LHY2F0G7EjfTjRmY2zG9CPisHAji19eJjkB6a85fW6fRoREWmzBmEDTZ6B5LSWOgYCu2Fv0h8mXD8JeLTlvo2xmPSN1Al4jnAfP6F6sKB6WxTYGZu2v4d00QiTym/q230REWmrOmKx/OOC+vjKB9gmtLeIP6I3GovAdzy2R6BRwW/iHE+4v03A5g3tUXrzYbEYfg3ciJ3iSPPv1kTrvgAREREAViX5DT6pjMeC4VyCTf8Pp20HmVmMaITEyxvao3z6YrEK3iPdv9OTjemmiIi0db2xgTBu05+vXEbbiHOfVmcsomDwM3wM9GpkpzJaFjta6J5eqFbKDNEsIiJzgLWAN0g/sDyKbWBrD84l3PdZWErgtq4TtkHwUZLTE/+InSpwvz6ZbBEfRURkLtUZ2xsQl0zILeOwvANt2U+JDp5/aGiPqhtG9TTHs7BERntjIZF38VxzY707LiIi7dtQ4F8kv3UGy71Ymt62Zgmix+r+R3G5C4rUF4udUC3J0DvYrv6FnPtv8Vy7ST06LiIic57VsQh5aR4CJmOJfLo0pKdRfYA3CffxWywKYFvRCTuFcAPJYZFHY5stV42ppzu2DBC853Pa1z4NERFpg7YhOYxvsLwLbN+Ybv6/LsBDhPs1E4tF0GidsON8V2IDe9zPcRrwbyyvQLWHqh08959efNdFRGRu1AnYi/QPAk9iGwsb4WpPf45rUF/A9lZsjg36Y4j/mc3CsgEeBsyTof7rnHpm0zaXZEREpB3rgO1Mf5nqDwFNwJ3ET12X4TRPP66rY/sVfYGfAdeQPOjPBp7AEjblWZ7oim3GdPc5iIiIlGYr7E0/zYzAQ1hWwDIdSXTj4ovYGnk9LInNNDxKcpTFWgf9oG099e9dY50iIiKprAxcC0yl+oPA89gAVXRegF8QHfy/Irpbvki9sf0Rf6Z6RMXZ2MPSUcCCBfbheqedH7BjgSIiInUzAPgt8A3VHwRGA3+kmLXqA4lGMhyHhScuUldgA2yD3dPADBoz6Ff0IJri+ZIS2hEREUmlCxaY5kGqpxduwgbJg8gXte4AooP/VGygrlVXYB3s3P1DpAuQ9CNwB/Z5yj5yuDPRn+UyJbcpIiKSyhDg98CnVB88pwLcWCHvAAAgAElEQVS3Y9EF+6ao+zii0/6zgV1z9rU/NqV/NvAU6ZY0mrG8AhdjO/275mw7Dzf87+N1bFtERCSVDlhkuuuJBq3xlWnAA1gyG18627Nj7js2ZX86YUsEB2BJdt4ifUKkGdhO++OxsL2N0Ido8KDdG9QXERGRVHpgSwT/BqaQbtB9H7gU2A64IuaaCxLaXBg7lnc+9qac5iEkWEZhGx13Id3sRNkOJ9y/b6nv7IOIiEhN+gD7APdhb/1ZBuVguQULfdsRO463G7bJ8CHguxz1TQEeAU7CQiK3tbC6bkCmsxrbHRERkfz6YAP3TUST+CSVSdiswNNkf7OvlFnAC9jSwibUL3ZAHhsQ7fvQhvZIRESkIF2wmPmXAV+Qf2YgrkzHMu/9Edv41xam9dO6lfBnuaex3RERESnP0sAx2MbApMx5SaUSe2AjbB9Ce7Qg0fgD2zS0RyIiInXSHTtydwHwBul37zdjg+frwN+x6IGr0b42z51B+PN8TNvbnyAiIlIXfbDlgnOBV8j2QNCMpQp+FzuieAywHsWHKi5Cf6J7I45uaI9E2okOje6AiNTFvMD6wLrA2lg2wqxT/tOwo4cfAu8BH7SUj7D9A41wFhZquWICFmhpYuBrfYEtPfe+i810DMZOXFR0A3bAkhONKbCvIiIiDdcFO8p3NHbC4DPybx6chU273w2chwUSWhN76CjTT7CBPtiXCz3XDcRmQs7Fjj9e0fLnTbE8Ae6JgR2waIpFhE4WabM0AyAiFf2A5bHZgUpZmtrW06cDI7CgPCMD//tZ4M9fYANuVjcCPw/8fTYWhfCzhHtex4IfVa65BFgBuJ/WoEk3A4sDJ2Dhj0XmSJ0b3QERaTMmYMcAnwl8rT+W2nh5LEzwci3/mzZJUTdgsZYSZxr2kDAay1hYKd+3/O9ELAfBDy3/OwWbtt/Lqedukgf/OP9uqesCLG1wf+DLHPWItCt6ABCRJOOxMMGPO19fmNYHgmFYpMGlyJftrzv2xr14/m4C+dP+jsWOUS6OLYvcC2xcY19E2jw9AEitemBvd4OxJaXx2KawcY3slJTuq5byoPP1vtjDQOWhYFFsfX0otjmvS0n9eY3aputvw1IJrw4chR4AZC7QGTsi5BqJbYSpxb+AJZyvXYRtOHLdSWt2s8extTdp27pgG6kOw6ZNXYsQnUbtip05lznXj8CrLcXVCdu4NxT772MQ9uAY/N+FgF452s379l9xJ/Aw8DW2FCEyx+uMbfRxrYpN7b2Ts97FsPjl7ibDQTHXD6c1hehXOduU+ukA3AFsH/P9iYT/HXsAJ2K7sY8ot2vShs3GBtivCe8zcPUE5sNOEcwHzN/yv/2xvQe9sYeEXi1fa8ZeONIYgcU4qPgey5swDjva+EDL10djexNE5mhxR3vOqKHOk2PqPD7m+g8D19xZQ7tSH7vg//edgP2Sfz5w7XbApy3fv6a+3RQRkThJx3t2raHePWq4V9q+nZy/XwzMg72ddQO2CnzvCpJ3gMdZAzgHm2m4u6WNzdHRVRGRwgTf4Ny0ocvnqG/ZwP1NpJsBWAcLW7oZdiZX2raXaP03/RJb243zTeDaNDMA/bFB/05sH8pQbH14UyxW/ZMozauISM3cUwBPABvSmgZ0V+DtjHXuHvjzC1jY0Wqey9iGNFafwJ/fx6b9i9AX+C9wPrYRdXls38i3wMvAIdh/T/dgDwc6qy0iUoPgG/ptWPKPyt/fz1FfcD3/l6SbAZD25RNa/01vqXJtlhmA64G9W/58IfYQcCfwIhYAZt+W762DHfnScoCISE6+OAC3Afu0/HlpbEr+rZT1rULrbv6P8R8xLFInbMlhGLb2PBmLBPYe+d9KF8Uin03ATkF8l+KeAdjb6oCWdkdjiUa+z9kHsHXzZbC34qktdb1XY52dsX+jBbAd1OOxMKwfYAN0Hnnvcy2OHQ27MfC1V7Gz2WCzAmdiDwnPYQ8hm2NHt0REJAd3BqArdiSm8rUzM9R1fuC+M7A3tTQzAI9iO8U/Bf6Wop2hwF+wTF2+3ejjgD9jx4fiPBtocwNsQ+RlWGKQSj2zsZ+JbxNbF2B/bJBy9zpUEqQ8j22ITPum2g/7uX0V87lmYw9VR5AtX/sKwA1E93hUykgsRkPcMU2wh4TKz2tG4N6Jga9/ClwNHBn4+8zAtT861y4ZqP8owmlcL8QislWcjA36FVsCl1b/6CIiEsd9AAD7JV752gcp6+mAvU1W7luG9A8AWY4BHoXFAk+TpWw0lgLV5+vAdVthg0lcPUs59y6FDfxp+tCMPWxUC5E6nPiB31c+oPpmuM5YutTgQ01SmUj8CY7pKeu4H/hdymuHB+r/E+HTAxdiA/652EmCkcA2ge8viu0FEBGRHOJCAd8GHNjy56VItwywNq0D0pvY/oF1au2g4xTgbOdr3wKPYbMBg7EBv/ImOwALVbo2yZsZN8AeLHxewB5QKoZhQUyCswuzgadbruuILUusTesxy3Wwdez18Qc66ocFIBkS+NrH2M98JPa2v0hLPys53JcCHsECNvmi63UArqV1Tb3ii5b+j8ceSjahNW1rbywT2iCikdU+pzWMazCk6yTCkdNGYUlbKklZFqb1v7OJhPOrB/s9C/9/j72APbENgA8Evt655R4REcnJNwPQmfD0+lkp6gm+QZ/Y8rUiZwA2wgbaynVTgcOJHkHrhWX1Crb7KtFp+OAMQGVK+3vgdOCnwKHY+vJhgXv6Es2bfh+tYYyDhmGnKoLXvoTtVXCdFrhmNjbY+QzCZhOCdR4ac+2pznVj8Md26Ir9ewWn9Wdhx+7iBDcB3pxwHaTfBHgANs1fEVwCOAzbk7FQ4Ps/A/5YpW0REUngewAAm3atfP1Dz31BnbA38WZsPXyRlq8X+QDwMuFBcquY63z9b8bWjIO+dr7/Lf5sZMEHh98799xM8hn4rthba/CeYzzXvRH4vi9XQtAAwns0HvBcsyDhZZJx2JJMkh0JP2B9RPxnK+MBYBCW0KXSZvABoGNLm38JXH8flrhFRERySIoEGHwYGAasmHDthrSucT+PTTMXaXVgtcDfrwIeqnLPWdjDSIUbvc53/aeerze3/G93wg8wXwO/IPm0wQxgP8KZ8X5FdKo7OPVfLZ/5GOzo3etYHvPnPdccR+tSAdhDR7UjnXdhD00VS1L9Z1ak77Dlmt96vteEbdA8CHu42RN7wHm5br0TEZkDxc0ABN/qqy0DXBW4LriTu6gZgLOcepZL+kABF2IDxxHAms733BmAapv0NnGuPzn58pA/Ofeu5Xz/g8D3vsIyptXi7UB9X5M8SxG0COFZgLjZiDJmAMAejO7BlmH6YnsSKjphexUOx44B9nVvFhGR9JJmAGZjIVkr4nIDdMHWYyv33F5Av1zBAXMU6bMU/gp7IPkrtgkvzmct9SbZyPn7vb6LYri71Tdw/v5Y4M9DsAH8XGzTYNxGzTgDCe+uf4D0MRG+ILzZc8OMbddqFnbuvyMW6Od4bD/G9sCx2LT/itj5/x/r3DcRkTlK0gMAwK2BPw8DVvJcswWtu8gfp/pAmkfwjThraOI0Pk9xTTAWwFSyRUl83fm7u9fgQsID2rzYxrynsB32t2Kb5KrNUoAdjwvuW3Dbrua1wJ8XwpY+6mkWtoFxU2xJZmVsCWg89hB6GBbwSUREalDt7fJZLH92Zff1rtiGtaBg7P9qYWHzGhj4cy2R8OL8kOKa+QJ/Hke2SIOTsEGrl6cusIFuFyyn+bzO9+YBdmspzdgAfUtLGVmlnxA+opeGe/28Me2U7Xuqb4gUEZGcqs0ANBGe0neXAXpgU7RggWL+U1C/gjoSHhSnltBGmjr7Bf6c5w10SuDPPT3ffwSbur+I+EG7A7AqdszxMywmgvsQ566NZ+3rFOfvvr6KiEg7V+0BAMLLAEsSXgbYhtYB5yHSvUln1QRMC/y9R9yFJZsU+HOeQTGYQc8dZCtGYeveg7Fji3/Gcgr4dMMCI13tfH2S8/deZNPb+XtcX0VEpB1L8wDwIuFjfcFZgOD0/7+K6FCM8YE/u1Pk9RJ8uJmP9DvrwWYPgmvpY6tcPxMLQvQr7MTDwlhwoDsIPwyBZcgLbip0H8IGZOgnhPcZNBE+wigiInOINA8AzYSXASo7/nvSGpt9Mtl2xWcVPJ8/PPaqqK2w5EInYGvsvih8aQWDIfXAMiWmtbLz92pn/V1fA//APsMQbDd8UPBB7GNaYxeAZf/LItjXkUQfOEREZA6Q5gEAwssAS2GD8Da0Ti/fQ7k7s58L/HkhwlnkkuyC7Ro/HxtAZ9bQh2edv2+f4V732hcCfx4O/Brr31NUX+IYi8X3D8bBXzTw59FYFL+KrUk/W7Eo4QespKOTIiLSjqV9AHiVcCrWnQkvBZS1+7/ifufvcfHvg4IbFMGOKDbFXJvG04Snww8j3fr6fFg0wIqxhB8AlscCBR2EnftPisFfMYHwVP945/vBuANDCM8QJDmW8H8T7kxDHtMDf3b3F4iISAPFRQJ0nR247l1ss1klznxcbvoicwG8FrhmBrBGQl8BznHa3tb5fjAS4PVV6qoI/gyasWx7bpKhoM7Y5wne40ZUnB+bZq98/2Xif54Vmzl1/sb5/hDCyX3G4M9zELQF4bTB3xG/2TFLJMBgVMInq1wrIiJ1lPYBYAXn2kr5e8I9RT4AbEh4gPqB1v0IQV2xQDJNgWsfJzkbYNoHgP6EB7/K/ghfgJ4hRBMBfYb/LfgfznUPYDHvfdbEpvkr104ievYfwhkGm7H1/G0813UCjiT8ENIM7BHTPmR7AHgqcO1MbDZkYWypQUcMRUQaKO0DAFj0O/cBIGnKusgHALDoeG7772Mb/c7F3shHON8fQWt2wqA8DwBgm+R+cNqYim2CvBA7uvcgNvUdvGYM8TkM5vP0ezp2tPICbA/D9cArzjVNxKcO7ogl+HF/Xu/S+vP6J+FY/ZVydpWfQZYHgEs89VfK1lXuFRGREmV5ADjduX4kyRvMin4AAEsG4w6uceU94tPg5n0AADsBEEzgU628BCxRpc6lsBmCtHVOIZx4yacTcDHh2ZCkMgnb21BNlgeAZbAHJF97v0rRloiIlGRcoFxb5dplnOvPr3L9Gs71R8Rc93LgmhtS9Hkx7O11PP6BZQSWrS9pivmdQJtXJFwXpys2dR5c43bfzl/AzumnTejTC/g9yQ8CY7CseovF1OGzCvZgNTmmzu+wCIRD4ipwvErrzy5pCahiDeAZog8iF6f+BCIiUqikDWztQRcsNO4C2Ga677EjcO9hA0y9DMbWtAdgP9PRWM6E72qocwi2ZDAPFkRoNDZd/zbZ8hAEdcceBgZhyw7jsLgB79VQZxb9scROs4EvUYwBERERERERERERERERERERERERERERERERERERERERERERERERERERERGZK5QRCrgLMBAL+Tov0DfQVjPwIxYKdlLLn79q+fOcohMWGngBoA/QAwvBC5bOeCIWk38klpCoqQF9lPajKxa6eSEslHIfWv+/BDAB+2/oR1r//zSl/t0Ukfam1geAjsAKwEZY5r9lgWHYQ0AW4/m/9s473o6q2uPfJJckkEAIJfSQhGYgKF1QkENTOkiXIkgRxYI+gSfFguhDFAGliohBnoKIIi1UITRpCkp5tAAJYEioISRA6nl/rHu8N5dzzqw9M3vmnHt/389nf9DcffdeM3dmz9p7Nctz/zxWGOi+zv/OzihfbJYDtgA2xwrejMFy+Huvfy7wIpaL/17gHuBRTFFoJRYHVnL0exmYF1mW3kwHVqtha+yZGoc9U95iUjXepOt9egC4HyslrdoLQojMbA78gg/XsM+zzQNuBfYhXKGIyZrASVixnxjXPQOr9rcNpmC1AhV8sq9TknztTD/s/l6MVXqM9T7NAa4FdqF5CW8hhPgQ/YEDsNr2sRapRm1qAdfXjA7gc8CDFHvdU4BjaV7WuAgqSAHImw7gCBqXk47Z/lnA9QkhegnbY0fTRS9UtVZEqdp6LAZ8FTumL+vaq8A04FuUdxJSSZBPCkAYewJPU97zVLZCLYRoA5YCfoU5GZX5ASxDAdgaeDKlvLHa45j5pWgqTvmkADRneeAqyn+OpAAIIZqyLvAs5S9WRSsAQ4HfUL7S0+xenEm4Y1gWKk7ZpAA05uOYY17Zz48UACFEU7bBQorKXqiKVgA+gnnkl329nnYHtqMsgopTJikA9dkL88Av+5mRAiCEaMqnsLj8vBabhVjse6srAHvQWkqPp03GlJbYVJzySAH4MHtg4Z55/c1rOTSkAAghMtHzGHl14M/AkBRjTQUmYM6CjwGTsIWqluSnPzAMGN753xHAWGA9LIfAWOIkJvKwP/C/ZDtW/wCLuX4QeK6zzcCu/wMsGdCS2PWv0dk2w/IIpPXyXx24E9gWeCqD7CIO6wO/J53z5mTgJsxj/1+d//9dupL8dGDv0TAsQdBK2Ds0DvgkFq4qhBAu+mMfsNDdyO+wHWLWmPURWFjUBCwRTlEnAAfVmc/bPgCuBHakK9tfKIsB22F+B2lPIKZhPhuxqDjl0AlAF4OBZwj7O87D8gFsTnZleFXgGMxU1NOfRScAQohF+CJhi9WdwIaRZBkJ/Jgu00EsBWAn0n38ZwNnYJkA82Qp4GQsk1uoTJOJ5xNQccogBaCL7xD297uOePdvbSxx1/tIARBC9GAQ8Cr+xepMiskmthy2cM2NMPZY7Ig+9EN7Nb60uFlYmnThl3djuePzpuKcXwqAMRy/38sC4ESKMX+tCozHMngKIQQAh+D/yJxUgnwb5zzecMxGH/JxnQkcmLMcSXwaeCNQzvMiyFFxzi0FwDgO/9/riBLky/t9EkK0MbfiW6xuoXXy02dhPGEf1ZewokdlsCZhWeMWYpkb86TinFsKgPEvfPfr8rIEFEIIMI9/T4zyQnrHAr8TYR//Z4h/5J/ECMzL3yvzi1jEQV5UnPP2hucjK6viM93Mobg8DkIIUZdP4Vvc7y1LwBwZipWs9X5Ip2AOia3Aqpijn1f2s3Kcu+KcUwoA7IvvXv2pLAGFEALsOH+ss+9NMQUpiG9gH1IPs7DTgpfiiRPEK1hp5DnO/sfQOspLX6IvvU9CiDamP/6PxMsxBSmA4VhFPS9HYWmBW4m/Yw5mHgYB34soi6hPX3mfhBBtTn/8tuLpMQUpgOOw8DoPl2AJflqR84H7nX0/D4yOKIv4MH3lfRJCtDn98acpHRZTkMgMBr7k7DsdOCGiLFmpAl/FlxypAzvJEMXRF94nIUQvoANLhuOhbE/4LOwFLOPs+9/A2xFlyYNHsIRE+zv6Hg58nzjJlMSH6QvvU1YGAmthTqMjgcUxhWge5nvzNhbJMqnzv+3OUCziYxksG+MM4C0s+kqkZwXM52YMdn+HYM/WTOzevow9P09h2VvbmQ4sMd6y2Ib27W4t06BvOvtWgJ9nmaxEvMlWnsWKArUDP8WnAKwA7I4pDCI+Ie9Tq5qZYrAylkjr01ixIm8BrOnAfViRsmvpKi4Wi5HAxxP6zCLZiXMjTPnehvp1OuYDDwGnAzfU+fke+LJ6TqD4j9sIYGtHv0eA53OcdwD2/OyJ1U9Zw/l787EidbcDVwCP5yhTI3YmuajeAzT3BRoKHNo51lbUNy9Oxep9HNJknDU7xxgBvIC9R/9Zp/bDF7b0bgMBWh1vXHYVs5m3E3dRTMKZinMehQHC1/Ddq5dJVyWw3dgCq3OQtuBW9zYL24SsFlHegxxyPNvk99fBPjTeazqtwThXO3//oFRXmY3vOeRaiNWgyIMlsRopISHczdrD2KlwzKR2Lzjk2K/B7w7ATqLfcoxRu9eNOAW7d2OwU7YNMT+yPWodVnFOUgVO9V59C+EtcvQacfLox8R7bW+QrXZDxTmPFADb+Xnfpy+XJGMRjAGuJ58Fu2d7Hyu2FON9zaIAHI7txkOupZECsKvz969Pe6EZeNYh1505zNMfU6hfd8yXpj1IvAyvaRWAlYB7Aq+jkQLwdSyU/QjsWu/HaswMwr7lm9Y6Pu+caBblpcRNyzX4ru2csgTMwDJYXgDP9W2ZYZ6Kcw4pAKZovYPvfr0GjCpFynj0A76CrRUxFu3u7VHyv39pFYBjCS/eVaWxAtCBr0DbHCzEuSg2c8hUJXvdlDFYcbPYz9BcLD9M3qRRAFYmvIR4lfoKwEDgws7//S3McRzM7LhP588vqh2BeLOSDcE0zphHcHkyEH9e/HbMy/4WZh/1sHVMQcR/WAD8xdl3ecz+u2w8cQplMOZDcx7J9s882AA7zt28gLmacTBwNvlWdJyPzx9pIPDZHOdNwmNyeBPz2UjLdljOk60yjOFlMexv92uKqXDbiCHAbeRnNlkPezdqrIZt5FYDHsMUn3k1BeBCmtsRujMSc14p4o+TlY9ijhRJTMMcVtqRic5+qgBXHOcH9K29qB+LJEtRDMOckYqumLkccDOwScHz1lgLuIA45Zwvc/bzOAPnQYdzrstJH+FwKPb3LPJUA8x8cwnlFbv7BfWdRdPSgUXV1NgQU3TOpesEq9r9F/5M+NHJKbS2I9NR+K5lfEny5YG3lkOWlMYV5xwyAXRxH2Hv02zM3tmO1TaXBP5G+mPYD7BU11nMBtPxp/luRqgJINRe27M1MgHUeMgxxjyKKSy1o0OWKuk/ZAeTzVn0dWwztyDDGD9IKXtPQkwAoQXqerZ6m/chdJm1ayaA1bDQ2sGYwnpx918YTbgDSxUrfboprckF+K7hsJLky4Ml8dse0y4SFef4UgC62AhbmEPfp/vIdycQmw7CvN6rWFGrs7Hnqmd+jiWw6/8m8FfC7Or3k31DEqIA7BF43fVakgLwFec43kRnWbjcIUfaonE7E/bxnwvciDlCj2ZRh9B+WMjbbsBF+Hwpam0B9kHOilcB6I+/fHij1uj0/jTsZPErwJGd/3Yh9r07Grvni3BCSgHmY96FK3rvTkF4dyXtfvw6Gd91bpZy/IpzfCkAi/Iz0r1Pc7BqjkUfg6bhXPzXNR2LfOgIGH9TwnbZx2e8Hq8C0A94okmfJ7Dd5K6Y+W19LCRyX+CHwD87+yUpAMvgK9d+Z8brTmIIFgqeJMehKcZeB0uO5P0b/xkzvXhZAgtd9J4wvUz2kHevAnBgk5/PxvIWHIE9O+OwZ2l7bEf/e+xv0kgBWAxTgA6kS0FaGoug+Xq9X+jA7C9pFq1qpzAnY5m9WoFp+Bbbdgv/68mN+P4+e6ccv+IcXwrAoiyO7wi3UXsT8y5vVTPb/viv5QaypT8+zTnPLLKZArwKwDYNfjYJ23l6fAJqCkESVzlkWoB5kcei2Yeq1t7Gn+CpxiDgScfYVSzD324ZrmEdrMS7Z64zM8wDfgWgnqlwAaZYe05sh5Icnr8jthk5B1NK12vWeRgWM5h20api9rxjKPfDOhCfLeipsgTMEa+p45spx684x5cC8GFWxJ6xLO/TJCxJVZleyj1ZHgtj9Mh/LvnIfpxzviwZS70KwBV1/v0a4kQ/7OyQqYopi7HwbDLOSzHujxzjVrFdeR4ntavhy2PwHmZGSItHATi1zr/NwLIdlsowwu169dpkzPZQxg5mlFPG20uQLW++i+9af5Jy/IpzfCkA9VmRbCcBtfY08Dlaw1HwMnwy/zLneT274dlYdEAaPArAbD6cf+NmwkwbIQwA/u2Q62+R5h+Bz58l9AO9nnPct8h3bdkY8yFImvdHGebwKAA9M/3NwZy6W4IBWL75NMkterZJWK7iIncwWzplG1+gTLHwZgQMCU/rTsU5vhSAxgzGYo2zvktVLJf5Z4kTeuZhfXyna3eSv/K/HD7TXl0bpwOPAtCzPUn86o5nOORYCKweYe6vOuZ+MMW4niRt84Adsolfl3q7757t36T/ZnkUgJ7tCynnisp++Jw/PO3/MJtXEQvXLk6Zstp6WoF98F3rpSnHrzjHlwKQzNH4nLo87e/U8eQtAM/CPQMrRBWDkx3zP9zwt5sTqgDMo5iojbFOebI6Qdbjfse8Rzb87fpsim9zmeQkmZYl8WXsTHscH6oAeHM+lMLq+B3NPO1RzDs2Jns7ZYn1gBXJbviuNW31uYpzfCkAPsaSPX68e7sX+xsVwSh8u///iijDCiSnwF5IOqe4UAXg3AzXEcoDDnn+kfOca5L8oZ6JL+Fad36bMGYVs/vHzCh5nkOGNH4NEKYAzMJq8rQ8B+A7fvO2G7EYzhgc7JTh5EjzF8kO+K41bXrOinN8KQB++mGmm7fJ7326AismEhOP09ZzxHcAvtYhx8Epxg1RAN6m2DTOX3LKFRIil4THvyjUz2NZrKBT0rjNStzmwaYOGdI6iYcoAN9NfQUlMByzJXucKDxtNnAi+S8YRzrnPyHnectga3zXqhOA1mMl7PgvS/ay7m0GlvgjlqPgiw4Zjos0d3c8OUsubvjbjQlRANLuDtOyNL4P5yk5zukpThOahtmTobWI6qwd+JLfpUmg5lUAisrimDtrYjuOPJwEq5gjzQY5yud1jPtOjnOWhfcEYHzK8SvO8aUApGd9LFY+j3epikUd5LkTrMmYNO9c4tn+u7O1Q5b7U4wbogB8MtMVpKNe+GHP9nhOc3l2yGlqqFznGPesjLJ78ZjitksxrlcBmJBN/Gxk2SVMwkKSNgFuzUGWdbEwlsNzGAtMU/YwOKf5ysR7DXOiSiGy8DjmF/Mp8gnn2hRzhNsrh7FqeBwOb8My/sXmMUefccRzOJ5MvLC7Zox39BlHQrIXJ57Kf78KHHMQvg+qpxJiHnifo1hcEXHsRPI4JnwE+AyWGSttHugai2OhUpeSPZvgewFztjteBWBGVClEHtyD7Sx3w5xlszAMuBqLdMkjRv3jjj735DCPhxmY2aQZQ4lno78D28EVze1YorUkslYI9FT+m42low1hfZKzBc7EUiUXwRuOPqMizv/XiGMnkqedcBXzHBoAABA1SURBVCJWIngr4K6MY30BO1UI9SztjvcEoIjjyth4k55MiyqFyJMbsIJCO5CtVHU/rBrYVWSPyfcU/bov4xxeqpgTXhKxnCKL+kD1ZAFWlCeJrGWZtyO5tstVWChdCJ5n6AH85emzUuYz9BowNdLYLmJkrqqFJO2C5R3eKOU4W2Kevrvh3813x6PZQZuEXyTgfUBfiyqFiMHt2KK5L1bQZGzKcT6LHTcegBXvCmVpfDn2xxCvKNhgwk/sViA/m3h3/hVhTC+XYY7TzVgDW3vTKo8xjv/BZ5qYg69GQlq6F9na0NE/1iaxLCWyMPoBe2IpTNM6M91CumxMKzrHn5TqylqLX+G71m1Sjl9xji8nwLgMwEKjvAVN6rXfpZz7oxnmLLPtHnidXifAtKmG86JeEZme7YyUYy9BcvK3tEqVxwGw1dpDKa7T4wR4dopxcyV2TvEq8BfM7nM0/l15dz4NnJTi96ZjGdeSGEV4BatWY01nv6ejSiFiUzv+/QjwbWyRDuVALEImlJEpfqcViOHkW8V3dBwTT+a4A0jnBLkHyebXNLt/aM/naFCkcct+hgpnBBabGxrzPA+fA1JPPDGsVXx2qVbmdZKvMYsDYMUxfhWdABTNavjCwnq2WYT/rT6fYp5WaKHJZDwnALMCx4zBMMw0miTr5inGTgpHfR9YJqXcLzlkbrX2TIrr9JwAfCPFuLlSdFWx17Ddxy5YJSQvHZjGGarNeu10HjtQq7ISvuPI3lD2WCzKy1go7oGYR7aXIVgJ6RDa9ZQsRhjgzAhjhvIOvsyeodEAy5Oc//5qwtbv7vSGqKu8CHWgzJ2yyorejO26Qxxp1ifcnuctCLJt4LitxBbOfmmqdYn24ArgE8DzAb+zLWG7Qy3cXYQoWzEZ7+izL2Hr/H4kR4ukPf4HPUfdKf05KrOu+AtY0pOQ4hWhvgBeBWB7WqPGehq8WaqKCs8S5fAYpgSEHFcmeZKL+lTLFqCTO7Aj9WasgoVme0ny/n+G4nI9iMiU/dGbiWU/82YO2wxzgPLyd3zZ75Ylna2sFdje2S9NWlTRXryGhc16nQN3xZ8ox5tXQxTHQnw5AbxmgDVIXgdrEUdp8Thmi4IoWwEAS05zVED/HQL6zgLudPaNXXkqBhsAazv6PYYve5hof57DX4q3P/4TJO/CPRSzu7dK+61T7nZlPMkf5L3x5Xw5kOY+E3PJfj89z9H/UP5z0731WufmVlAAAK7H/6FOclDpyXXOfvvTfnUBvErLtVGlEK3GpfjjtL3vkzdkqTdk1mwnJpFs3huBLwdI0vH/NVjEURY8z1GsRFKiB62iAABc6Oy3buC41+NLKzkcOCxw7DJZHH+982tiCiJajoX4S+F63ydvylIt3sUz3tEnyQywCck73Utc0jTH8xzpGSqIVlIAbsP3oR4ROO4rWNSBhxPIni+9KA7Hdy8eI3tRGdF+3OLs532fpAC0LleR7FG+FzCwyc+Tdv/Pk0/hGikALUQrKQAzSPZoBbMxhsYkX+TsNxo4MnDsMhgEHO/smyVkR7Qvk/A57nkVgFfxJcBJW6tApOddknMCDKexuWcAyScEvyaf6IfnHH3WJl36dxFIKykA4E8u0UyTrccELH+6hx8RfspQNMcDqzv6zaK4utqitajie5+879JC4AlHv3aNpml3xjv6NPrIb0fzgmLzgN+ECtSAxxx9huIrGiQy0moKgLf8b2gqzgWYZ6mH4cA5geMXyRj8+RAuIFsKYNHeeN6nkHfJk7irQrzc6aIxE4HJCX12p34inqTj/xvIr5S4N/nbZ3KaTzSh1RQAj+3nXdKVM70UeNbZ93OkK5gSm4HA7/Fl05oNnBlXHNHCLI7li08ipCDJREefoYRH6ojsLCQ5RG8pYKce/7YEViq6GXmaEV/Gl7FyrxznFA1oJQVgRewBTcJjQ6rHfOA7Af1/TroCRDE5G79MZ5M9ZEe0L578EBBWDvuv+Bx1W1F57gtcRrKdvqcZYHdgySb9p+B3KPVym6PP5lgJahGRVlIA9nT2y1LS9o/Arc6+g4EbaR1b1EnAMc6+U4DTI8oiWh/v+xRSJOp14AFHv52BjwWMK/LhBeDuhD47saiJJmmnfSk+pS+E65390pSBF4F8n/DY+hjci680Y9bdxUisCpO3FOS/KV8JOJGw8pV75Dx/xTlvr82YFcCZ+Bw0Y9KBKcoxnpWjnePeTpxKfLHxlAP2mhLL4DCS5a/Z1zswE1CjfvOBVSPI2IFFlSTJuRD4ZIT5i8BTDni/0qTrxpWYXf3LlHcicCi+RWUhMCqH+Y5yzldrM/Dn3M+TgVjyjRBZL40gR8U5txQAs5O/QXJa1ZicgO/v9QE+s1t3hmP+JZ7xvSdWeRIaIdSTdlcAhmLreTP5z+3su2VCP+9OPQ0/SZi71p7B7xyeF/3Ing+mrRSAmkAPYw9FkayHLZieh+HOHOcd75yz1uYBP6C4REHjsBK+ITI+hdV6z5uKc34pAKYAdH9eNyp4/i2A9/D9va5MOcdZzvHnYM9OURwE/DKHMdpZAQAL2Wsm/4ud/U5N6Bdafj2ElbE8FZ7n6DqKywuwEnATsFbGcdpSAai1uzBbUewTgS2AN+vMX8QNG4zZM0M+sFXgEWDrHOXoyTJYyOLcQLneIp4pp+KUQQrAogpAFTu1moA9M7FPBHbEwvq8z0za5zhk8X4X2DblPF5Wx9JdZ1FqavQGBWBrkq9hFeAvTX7+Cr4CQlk43yFnrf2R7Kc7zeiPnQzXNqN9WgGotSnAaYSV4PWwAhajPq/J3D3bw+S/gK6MacOhSkAVSy+8A/kpSWtgjnszU8jyAfCpnOSoR8UphxSADysAPT8cJ2MZJ/NkJBYCtqDJ3D3bhIxznhIw11zgOPLfUCyHvTPdTRJSAGydfJ7m17AjFlHV6OenFSDncphjqfc5eghbJ/NmF+z70n2uPqEAJGl4I7EX/RQsXOh64A7saDo0xGwJ7FRhb6xmeYhdZz7wNeym5clUrErWRMIdtz7T2aYAf8Ccnu7Djl89DAI2BbbCHLHShhzOwUJ7krx/i+Ac/LXo8+KbmKNmO7AW8MPO9iSWYGUi9j6FxOODxfjvgr1POxNWyXI2dt+y8BPgAHwOsosBP8Xya3wbe1eyvMsbYM7Ah1C8fbgdqGIhgac26bMZllSsHgux1L+xeQP4Fiarh02xKpdnYWHOb2aYeyj2PH6J4s10LUM/TGNOygNdjxcwT+MXsAX4Lezj14HZoYdiGt6a2CIxhvR2nJOIG9Y2GluIR2YcZx52ovAMdk/ewT6IA7EFehns1GFMZ8t6pDULC/fKo0hHMyrk63+RJ+sSFsoWm4mEH61XMQW79j5NxRxPZ2GK4pDOtgKmRKyLOcOm3VEfQT7OouthZrTQj/AT2LozAVvQkxJ7LYN9sLbBNg/N6g38AVNM0nIQyemzn8OfZ6EsRmGnAI2ekTew9bket2AnBEVxOf7KpjXeA/6EmTHuxq6nGQOw9+YTmMK8Pc1ryqxN+pwzYO9x0knf/lghp9LIYuOpfcRi82vgx5HneBHzR7gGW2jSshj24BSxOLwA7IMq/fUG+mEf9qzHjh5OJ79IkSeBL2Af3RBlZBxdJyHvYcrPFExhfg9TjIdiDlmjMHu1CGMypow28r9o9PGH4guIfRH7OIfsxJfAToAO6fz/L2HXPB1TnqtYhMuS2DM0mvAicn2CZj4AZbdLKLYq1GDMllr2dSe1a4GlI92DelQiXENerdWqz02k/HvSqMU6RTuSMP+DmE0+AF18nvD7N41ySqIvjxUKKvv5qbU+4QPQSpkAuzMPcxqqLSxF8QH20hyGvzJhkUzDFqg9UJEf4ed94HAsoVQMLsHMCnMjjS/S8SfCfXLGY+tv0byOHcs/WMLcfZrzKF/b6t4eBTaMesU+VsRCT8q+H1XsJT4DX3GXGFQS5CuztdoJwNWUf0+6t7spzl69Beb7Uta13kP2UNjedAIAZkL13r+FmM9WmQwiPPlZnm0W5iCb9eS5LU4AwOyPB2OOOWUuVJOxnXeRR/4eNscSQ5RxT6ZhdtJm9roiqFDus9GstZoC0IFl1ZxEufflKcxHpOhshEsDF1GsSeA5bA3L41p7mwKwFf77GNuZOIRdSB+inabNwxSP1XKSv20UgO5shaWJnEIxN30BFhK0D+XYnULYDNOmQ+oIpGkzsV3k7rTOPalQ3IsY2lpNAajRHyuLezG+vOd5LWLXYYtn2ea9DTDnwFiKwEIsJHl/8k1Y09sUgH40j/fv3rJET8RgCeBYzMEv1jszHXMyzzs3R1soAM005rFYIYYtsbKMYwmLNW7EVOB+LNTkOuwP0E4sjtngd8I+jFlDB2u8hHlU30vr2VLXA75XthANaIc8AP2xe7gV9k6tjyVNyiOz2UtY/ombsOqVrea7Mgr7sOyHKQVZdulvY2vHBGzteDmrcHXYEvh6Qp9XsQ9Tu3AIFj7ZjPnY+jMnvjjBDMTCEvfHlNssptCFWPTKndgzdBfJYahpOA8YkdDnbOx5Lo2Ql3EApiWNw5SB0VhhkOHYsd/wzn7zMZv1u9gR9utYPOoz2LHklDwEbyFGAxtjGarWwBSC4Zgta0kswZDXrHE6KoHZV+jA7K2192l1Fn2XaovcXCxxzzt0vU/PYbvQJzGFul0YjsVhb4i9N6OxUK2l6HpHZne21+laO57FTJTPYDsn0XcZgCnTW2C+LaOxMNHF6aqDsgA7SZ2JvTOvYs/Q05iP2cxiRRZ9mUMwrdN7JHVKOWIKIYQQIm9OJMwudXw5YgohhBAib35GmBIQO/uhEEIIIQqgH8l1unu2Cyjfm1sIIYQQGVmM8JwC12DOhEIIIYRoY4ZgoX4hSsCTtH71MSGEEEIkMBRL0RqiBLyD1a4uOrObEEIIIXJkKOkqx00ENilcWiGEEELkxhAsI1WaFJY3A7tiCYdC6IfMCUII0efRcXL5LIGlpNwu5e+/A9wK/AP4J5YW9x2sqtUgLMvaKsAYLHvWtsAbWG0DIYQQQpTIQOAy8itwkdQeKuayhBBCCOHhWIopoyoFQAghhGgx9gHeQwqAEEII0efYBKteJQVACCGE6GMMBc4njklACoAQQgjR4mwMXE9YSWEpAEIIIUQvYRzwW/LxD5ACIIQQQrQZQ4B9gSuB6YR//KeiUsNCCNHnUSKg9mcVYAPgI8DSwDBMSZgDzMCSAr0NvIIVFZpSjphCCCGEEEIIIYQQQgghhBBCCCGEEEIIIYQQQgghhBBCCCGEEEIIIYQQQgghhBBCCCGEEEIIIYQQQgghhBBCCCGEEEIIIYQQQgghhBBCCCGEEEIIIYQQQgghhBBCCCGEEEIIIYQQQgghhBBCCCGEEEIIIYQQQgghhBBCCCGEEEIIIYQQQgghhBBCCCGEEEIIIYQQQgghhBBCCCGEEEIIIYQQQgghhBBCCCGEEEIIIYQQQgghhBBCCCGEEEIIIYQQQgghhBBCCCGEEEIIIYQQQgghhBBCCCGEEEIIIYQQQgghhBBCCCGEEEL0dv4f9GpnDA46lnwAAAAASUVORK5CYII=;" vertex="1" parent="1">
          <mxGeometry x="585" y="155" width="85" height="85" as="geometry" />
        </mxCell>
        <mxCell id="f6l7KDXVF6W410hvDn_E-67" value="" style="shape=image;verticalLabelPosition=bottom;labelBackgroundColor=default;verticalAlign=top;aspect=fixed;imageAspect=0;image=data:image/png,iVBORw0KGgoAAAANSUhEUgAAAgAAAAIACAYAAAD0eNT6AAAABHNCSVQICAgIfAhkiAAAAAlwSFlzAAAN1wAADdcBQiibeAAAABl0RVh0U29mdHdhcmUAd3d3Lmlua3NjYXBlLm9yZ5vuPBoAACAASURBVHic7d13nF11ve//16Qy6aGnkACCIY1yKSERUUCPejh6FPFyxKMnoF4LabRQQwsQCC0NxSsINpQrdv3p+UkTNfRLCUkIIARIQk+bFFLn/vHdm71nMjOZmb1nf9fa6/V8PNZj70xC5p1MmM97f9fa31VTX1+PpAq5uaYW6AX0LDra8uPuQJfc0bnRY3s+BrAV2JZ7LH7eno9tAtbnjnVFz1v34zPqN7b3r1ZS29RYAKQ2uLmmBugH7JY7di163tTH+lIY4D2ATpUPnSrbgQ0UCsIa4N3csbLoeVMfW80ZfkOTWssCoGy7uaYTsCcwKHcMAHan+eHeH4d4Um0HVtF8SXgHeB1Ynjve4oz67XGiSvFZAFS9bq7pTRjqAykM+MY/3pvCUriyZSvwBoVCsKLoeeHHZ9TXRUsodSALgNLp5ppuwH7AAbnHpgZ872j5VE3qaLogvAy8CLzMGfWb48WT2scCoOQKr+A/UHQcUPQ4GJfilQzbgWWEMvDPosdwuIKghLIAKK6ba3an4WAvHvZ7RkwmlctbNCwFhaJwRv07MYMp2ywAqoyba/YCRjc6Pgj0iRlLimwt8DywoMFxRv2bUVMpEywAKq+ba3oCI9lx2O8RM5aUMm/TuBTAQs6oXx81laqKBUDtc3NNZ+BAdhz0+wM1EZNJ1aoeeIkdi8ELnFG/LWYwpZMFQDsX3is/HDg6dxye+/EuMWNJAuA9YDHwBPBw7ljsHgfaGQuAdhQuzBtDYeAfhefqpTRZCzxKoRA84gWHaswCkHU313QBDqEw7I8mXIEvqbq8SKEQPAw8zRn1W+NGUkwWgKy5uWYQDYf94UBt1EySYthIw9MGD3NG/fK4kVRJFoBqd3OnfsBxwMeBjxEu3JOkprwI/CV33M8Z21dHzqMOZAGoNvM6dQPGUhj4RxBu/SpJbbENeBy4h1AIHmLCdrc8riIWgGowr9NowrD/OHAs4dazklRO64EHCWXgHiZsXxA5j0pkAUijeZ0GURj4JxDuaCdJlfQGcC+FQuD1AyljAUiLeZ0OAU4GTgJGRE4jSY0tAn4F3M2E7U/HDqOdswAk2bxOhwFfIAx+L96TlBYvAHcDv2DC9idjh1HTLABJM6/TERSG/v6R00hSqV6iUAYejx1GBRaA2OZ1qiHstHdy7tg3ah5J6jhLCWXgbuBRJmx3AEVkAYghDP2xhIH/eWBI3ECSVHGvAr8klIGHLAOVZwGopHmddwdOA74BfCByGklKin8C3wNuZ8I271lQIRaASpjb+UPAtwiv+LtHTiNJSbWJsCLwXSZu+0fsMNXOAtBR5nbuA/wn8E1gdOQ0kpQ2C4BbgJ8wcdva2GGqkQWg3OZ2Poww9L+EO/JJUqnWAz8FbmHiNt9SWEYWgHKY27kWOIUw+MdETiNJ1eoRwqrAXUzctjF2mLSzAJRibuddgXMIg79/5DSSlBWrCEXgeiZuWxk7TFpZANpjbue+wFnAFKBP5DSSlFVrgVnAjUzctiZ2mLSxALTF3M69gUmEV/39IqeRJAWrgRuA2UzcVhc7TFpYAFpjbpcewARgKrBb5DSSpKa9C8wE5jFx64bYYZLOAtCSuV12IZzfPx/YK3IaSVLrvAlcA9zCxK3vxQ6TVBaApszp0g34OnAhMDByGklS+6wArga+z6Stm2OHSRoLQGNzunyCcHXpvpGTSJLKYynwTSZt/e/YQZLEApA3p0s/4EbCXv2SpOpzO3AWk7aujh0kCSwAAHO6fJrwqt/lfkmqbisIqwG/jx0ktmwXgDlddgPmAKfGjiJJqqg7gUlM2vpu7CCxZLcAzOlyMnAzsGfsKJKkKN4CzmDS1rtjB4khewVgTpc9CYP/5NhRJEmJcDehCLwVO0glZasAzOn6eeB7uJmPJKmhd4FvMGnLL2MHqZROsQNUzJyuU4Ff4PCXJO1oN+AXuVmRCdW/AjC7aydgNmErX0mSdmYeMJnJW7bHDtKRqrsAzO5aC/wU+FzsKJKkVPk18CUmb9kYO0hHqd4CMLvrbsDvgHGxo0iSUmk+8Bkmb6nKtwpWZwGY3XU/4E/AsNhRJEmptgT4FJO3vBw7SLlV30WAs7seDjyEw1+SVLphwEO52VJVqqsAzO56AvAA3rpXklQ+ewEP5GZM1aieUwCzux4M/B3oHTuKJKkq1QHHMHnLM7GDlEN1FIDZ3QYCjwCDY0eRJFW1ZcAYJm9eETtIqdJ/CmB2t17AH3D4S5I63mDgD7nZk2pdYgcoWT0/BA6LHUOSlBmHAT8EPh87SCnSvQIwq9tpwEmxY0iSMuek3AxKrfReAzCr237A03jRnyQpjjrgEKZsTuUeAelcAZjVrRPwIxz+kqR4egM/ys2k1EllaODrwDGxQ0iSMu8YwkxKnfSdApjVrRZ4ERgYO4okScAK4ACmbE7VjYNS+C6Amkk4/CVJyTEQmARcGztIW6RrBWBW937AS0D/2FEkSSqyCtifKZtWxw7SWmm7BuBrOPwlScnTnzCjUiNtBWB87ACSJDVjfOwAbZGeUwA3dT8CeCx2DEmSWnAkZ256PHaI1kjTCsD42AEkSdqJ8bEDtFaaCsBnYweQJGknUjOr0lEAbuo+CBgUO4YkSTsxKDezEi8dBQDGxA4gSVIrpWJmpWQjoJpU/GVKkkQoAL+KHWJn0rICcEjsAJIktVIqZlZaCsAesQNIktRKqZhZaSkAu8YOIElSK6ViZqXjGoB6dosdQZKkVkrFzEr+ToA37tIF2BI7hiRJbdCVs97bGjtES9JwCqATsCl2CEmSWmkTKZiviQ/IWe9tBj4JrIkdRZKknVgDfDI3uxIt+acA8m6sHQ38CXcElCQl03LgU5y1cUHsIK2R/BWAvPAXOhZYGDuKJEmNLATGpmX4Q5oKAMBZG18DjgEejB1FkqScB4FjcjMqNdJVAADO2rga+Bfg7thRJEmZdzfwL7nZlCrpKwAAZ23cBJwC3Bg7iiQps24ETsnNpNRJz0WAzbmh9rPAbaRk5yVJUuqtBL7K2Rt/EztIKdJfAABuqN0H+Cnw4dhRJElV7W/Alzg7Xef7m5LOUwCNhS/EccAVwPbIaSRJ1Wc7YcYcVw3DH6plBaDYDbUfIawGuF+AJKkclhNe9f81dpByqr4CAHBDj92A24FPx44iSUq13wOncfaGd2MHKbfqLAB5N/Q4HbgW2D12FElSqrwDnMfZG34QO0hHqY5rAJoTvnDDgFuBKm46kqQyqSfMjGHVPPyh2lcAit3Q42jgu8ChsaNIkhLpKeBbnL3h4dhBKqG6VwCKhS/oEcAUoC5yGklSctQRZsMRWRn+kKUVgGLX9xgA3ETYTVCSlF13AWdyzobXYweptGwWgLzrexwPXAMcGTuKJKmiHgPO55wN98UOEku2C0De9T0+TdjgwesDJKm6PQVcwjkbfh87SGwWgLzre9YAJwGXAyMjp5EklddC4FLgV5yz3sGHBWBH1/fsRLg24FLCWwglSem1hPDC7i7OWe9W8UUsAM25vmdn4D+BS4D9I6eRJLXNS4RTuz/hnPXbYodJIgvAzlzfswvwH8AkvFhQkpLuMWAO8HPOWb81dpgkswC0xfU9jyYUgZOBrpHTSJKCLcDdwBzOWZ+Z9/GXygLQHtf3HAB8C/gGsGfkNJKUVW8B3wO+yznrM/c+/lJZAEpxXc/uhAsGJwGHR04jSVnxBGGZ/y7OXb8pdpi0sgCUy3U9xwFnAJ8DaiOnkaRqsxH4NXAz566fHztMNbAAlNt1PfsQrhH4CnAsUBM3kCSlVj3wIPAj4G7OXb82cp6qkvwCcF2vrsBpwK2cuy5d7+G8rtcQwlsJvwwcFDmNJKXFc8CPgZ9w7rpXY4dpk+t6dQK+BtzOueu2xI7TkjQUgF0ISz+PAWdw7rrHIidqn+t6HUkoAl8Edo+cRpKS5h3gZ8CPU/59/mbCW8ZrOXfde5ETtShNBQBgO3AbcAHnrns3XqgShBWNTxLKwIlAj7iBJCmaDcAfCa/2/5z0V8zNuq7XbsAM4KtAp9xHLQAla1gA8lYCFwLfT91pgWLhz/Yx4N+BfwP2jhtIkjrcG8AfgN8C9yR9SLYoLPd/Hbga2LXRz1oAStZ0Ach7nHBa4NEKJuoY1/WqAcYAnyEUghFxA0lS2SwiDPzfAY9w7rqED55WuK7XUYTl/iOa+RUWgJK1XAAgXCWaPy3wTmVCVcB1vQ6gUAY+BHSOG0iSWm0b8A/yQ//cdS9GzlM+1/XancJyf0vv8rIAlGznBSBvJXAR8L9TfVqgKeH80omEaweOw1MFkpLnDeB+4M/AH1N7nVZzwnL//wKuYsfl/qZYAEo2s9UFIO8J4AymrnukgxLFN7PXCOD43PERWvePUZLKaSXwV+A+4D6mrlsUOU/HmdlrDGG5vy07vtYy1QJQmpm921oAIJwW+AFwPlPrque0QFNm9u4EHEKhEHwY6B01k6RqVAf8jfzAh6eZWlddq62Nzey9O3ANcDpt39Stlql1FoCStK8A5K0BbgFmM7UuGzeKmNm7C+E9qMcRCsE43JpYUtttBOYThv39wGNMrcvG7XVn9h4ATAa+CfRt5+9iAShZaQUgbzPwE+B6ptYtLj1UioRCMJrwDoP8cRBuUSypoJ6w+94jRceCzAz8vJm9hwPnEHZw7Vbi72YBKFl5CkBePfB7YCZT6/5Rpt8zfWb27ktYJTiKQinYK2omSZX0Jg2H/eNMrVsTN1JEM3t/CJgKfJryvTiyAJSsvAWg2EPATOC3TK1L+F9CBczsPZSGqwSH4S6FUjXYADxJ8cCfWvdK3EgJMLN3DeFt1lOBsR3wGSwAJeu4ApC3BLge+DFT67yvdF64uHB/wumDg3OPo4EDKGx1KSk5tgMvAgtyxzO5x5eq/mK9tpjZuzthK/ZzgGEd+JksACXr+AKQ9wYwB/guU+tWV+DzpdPM3rWEXQobFwNPIUiV8yY7DvpFTK2rxPfKdJrZux/wLWASldlLxQJQssoVgLw64PvATUytW1bBz5tuM3vvQaEUDAP2zR1D8V0IUntsBF4BluaOJeSH/dS6t+PFSpmZvQcDZxL27K/kW6QtACW7tuIFIG8L4daU13Fe3bMRPn/1uLb3XoQysB+FYpA/hgK7RMklxfUeDQf8UuDl95+fV/dmpFzV4dreo4BzCbdg7xohQS3nWQBKc22fWAWg2H3AT4Ffcd5aTw+U07V9aginD5oqB/sSCkL3GNGkEm1ixwGfP14G3uS8tQn/Bpwy1/bpB5wEfImwD0pMtZy31gJQkmQUgLxNwJ+AO4E/cN7apOSqXqEgDKDpcrAfMITS368rtcdm4FWKX7U3PF53wFfAtX1qCbdTPxX4FMl5wWABKFmyCkCxOuA3hDJwD+etzdaGGUkRCsJAGhaDIYT7IxQf/XGLZLVOHbCKsNd98fEqDQf8Cgd8JNf26QJ8jDD0P0sy/9+2AJQsuQWg2NvALwhlYL7fFBLq2j5dCUWgPzuWg5ae9we6REis9ttKYYgXD/Pmnud/vIrz1m6JEVg7Ecr+OMLQ/wKwR9xAO2UBKFk6CkCxV4CfA3dy3tpnYodRmVzbpw/NF4WWSkTPGHGryHpaP7wLz89buzZKWpXftX0OJgz9/yBcE5QWFoCSpa8AFFtIeCfBzzhv7UuxwyiCa/t0A3oRrkLulntM0nMI57K35I4kPV/HeWs3t/WvXFXg2j77E67e/yIwMnKa9rIAlCzdBaDYw4QycBfnrfXtPZJU7No+ewGnEIb+0ZHTlIMFoGTVUwDythHeVvhrwsWDL0TOI0lxXNvnQMLFfJ8jvG2vc9xAZZX4ApD8C5sS3k/aoTPw8dwB1/R5Dbg3d9zH+WtXxIsmSR3omj4DCYP+hNyxT9xA2Zb8FYBr+lbbCsDOLKZQCB7g/DVuPCQpna7p2w/4KIWBPzxqnsqq5fw1iV4BsAAk23bgCQqF4B+cvyarfxeSku6avrXAhygM/MPJ7t1DLQAly3YBaGwTMJ9CIXiM89dsixtJUmZd07czcCSFgT+O5OzEF5sFoGQWgJasBf5KvhCcv8abFknqWNf0HUVh4H8E6BM3UGIlvgAk/yJAtaQP8OncAdf0fZPwDoN7gfs5f417D0gqzTV99weOIwz84wk371IVcAWguq0Gns4dT+UeF3L+mk1RU0lKnmv6didsunMIcGju8RCgX8xYKeYKgKLqR1ii+0jRx7ZyTd/nKBSCp4CnOH/NOxHySYrhmr67E4Z8ftAfChyEMyFTXAFQ3goaloKngRc4f832qKkktd81fTsBB9LwVf2hhDtoqmO5AlCy+prYCbJiYO7416KPbWBGvwXkVwlCKXiGC1avj5BPUktm9OsJHExhyB8KNaOBHlFzKbGSXwAUUw9gTO7I286Mfv+k8WrBBauXRcgnZdOMfoPZ8VX9B8jue+7VDhYAtVV+SfFAwj25gxn9VgIvEW6HvDT3WHh+weo1Fc4ppdeMfn0Jt77dN/dY/Hx/wq2mpZJYAFQuu+aOI5r82Rn9VtO4FDQsCF6EqOyY0W93mh/wQ/HKe1WABUCV0i93HNLkz87ot56WCgK8wQWrE37FqgTM6FcD7E3LA75npHTS+ywASoqewIjc0ZRNzOj3Kg1LQf7xFWA5F6x2W2R1vBn9OgOD2HGw5x+H4Ha4SgELgNKiO4VrD5qyLXcdwiqg8WNzz8PjBasT/VYddZAZ/XYB+hNOXRU/Nve8+LGa7luvjLIAqFp0BvbIHW0zo997tFQQWnp+weqtZciu9prRrwstD+2WBvwuERJLiWEBkMIgyO+D0DYz+tXRfEGoA7YAm3fy2Jpf0/DxgtVb2vMH7TAz+nUFugLd2vjYml/Tm+aHeu9K/PGkapT8AuBGQEq23rljSEU/69X9oTylAsoyrP3/VEqb5BcASc3JD2VJajN3jZIkKYMsAJIkZZAFQJKkDLIASJKUQRYASZIyyAIgSVIGpeBtgL6/WJKkcnMFQJKkDEr+CoA3gJUkqexcAZAkKYMsAJIkZZAFQJKkDLIASJKUQRYASZIyyAIgSVIGJf9tgG4EJElS2bkCIElSBiV/BcCNgCRJKjtXACRJyiALgCRJGWQBkCQpgywAkiRlkAVAkqQMSv67ANwHQJKksnMFQJKkDLIASJKUQck/BeBGQJIklZ0rAJIkZZAFQJKkDLIASJKUQRYASZIyKPkXAboPgCRJZecKgCRJGWQBkCQpgywAkiRlUPKvAXAjIEmSys4VAEmSMsgCIElSBlkAJEnKIAuAJEkZlPyLAN0ISJKksnMFQJKkDLIASJKUQRYASZIyKPnXALgRkCRJZecKgCRJGWQBkCQpgywAkiRlkAVAkqQMSv5FgG4EJElS2aVhBWAbsCp2CEmSWmkVYXYlWvILwKVvbgGOAV6LHUWSpJ14DTgmN7sSLfkFAODSNxcBY4EFsaNIktSMBcDY3MxKvJr6+hTttHPZXn2BXwPHxY4iSVKR+4HPcdmba2IHaa10rADkhb/YTwI/jx1FkqScnwOfTNPwh7QVAIDL3twMnArcGDuKJCnzbgROzc2mVEnXKYDGLttrInAD0DV2FElSpmwBzuayN+fGDtJe6S4AAJftfSTwM+ADsaNIkjLhn8AXueyNx2IHKUX6TgE0Fr4AhwF3xo4iSap6dwKHpX34QzWsABS7bO/TgLlAz9hRJElVZT0wkcveuD12kHKprgIAcNnew4C7gENiR5EkVYWngVO47I0lsYOUU/pPATQWvkBjCCsBkiSVYi4wptqGP1TjCkCxS/c+HvgOMCx2FElSqiwBvs3lb9wXO0hHqb4VgGLhC3cwcDGwMXIaSVLybSTMjIOrefhDta8AFLt0730JSzn/FjmJJCmZ/gBM5PI3lsYOUgnZKQB5l+7978AcYEjsKJKkRHgVmMTlb/w2dpBKyl4BALh0QA/gEuAs3EVQkrJqC2Er3yu4/PUNscNUWjYLQN6lAw4CrgBOBmoip5EkVUY9cDdwCZe//lzsMLFkuwDkXTrgEOBy4N9jR5EkdajfApdy+etPxw4SmwWg2KUDjiCsCHwqdhRJUln9ifCK//HYQZLCAtCUSweMBaYDJ8SOIkkqyb3ANC5//aHYQZLGAtCSSwd8hFAEPhw7iiSpTf5GGPx/jR0kqSwArXHJgGOAScDngC6R00iSmrYV+DUwhyte/3vsMElnAWiLSwYMBr4NfB3YPXIaSVLwDvB94Dtc8fqy2GHSwgLQHpcM3AU4lbAq4F0HJSmOpwkbu93JFSveix0mbSwApbpk4LGEIvBZoHPkNJJU7bYBvwHmcMWKB2OHSTMLQLlcMnAf4JvAV4DBkdNIUrVZBvwIuIUrVrwWO0w1sACU2yUDOwEfJRSBk4DeUfNIUnrVAb8iDP4HuGLF9sh5qkryC8AlA7sBlwFXcsWKdO3VfMnAHoRTA18BPoanCCRpZ7YB9xCG/m9S+n3/YuAyrlixOXaclqShAOxCuD/za8CZXLHil5ETtc8lA/cmXDj4FbxwUJIae5ow9O/kihVvxA7TLpcM/DxwE7APUJv0CxPTVADy/gJM5IoVSyIlKt0lA0cDXwY+D+wfOY0kxfIS8Evgx1yxYkHsMO12ycBhwFzg40UftQCUbNoOBQBgM+EWjlcyfcX6yocqo2kDRxFuQvQZ4Ei8K6Gk6lUPPAb8Dvgt01c8GzlPaaYN7ElY7j8L6NboZ2uZbgEoTdMFIO814Cymr7i7gok6zrSBA4BPEwrBCUD3uIEkqWSbCPvx/xb4PdNXvB45T3lMG3gy4YXoPs38CgtAyaYNaqkA5N0DTGD68vSeFmhs2qCewCcIZeBEYLe4gSSp1d4F/kgY+v/N9OXpXqktNm3QMGAe4cLultQyfbkFoCStKwAAWwhtbHpV/WMDmDaoM/Ah4JPA8cAR+I4CScmxDXgcuA/4M/APpi/fFjdSmYUXZdMIy/1dW/FfWABK1voCkLcMOIvpy3/RQYnimzaoD3AsoQwcR3hXgdcOSKqUeuAZwsC/D3iQ6cvXxo3UgaYN+gLhBWZbNnmzAJSs7QUg715gItOXLy5zouSZNmg3wuZDx+eOg6LmkVSNnqMw8B9g+vJ3I+fpeNMGDSdc3X9CO/5rC0DJ2l8AICxL3Q1cx/TlT5QvVMJNGzSAsDJwPGGl4MC4gSSl0AvAg4SBfz/Tl1fHxXutMW3Q4cC5wMm0/3SrBaBkpRWAYvcBM5m+/L/L8Huly7RBuwJHAWNyx1F4UaGkgneBR4FHcsejTF++Mm6kCKYN+gQwlfDiqVQWgJKVrwDkPQPMBO5i+vKtZfx902XaoANoWAoOxbcdSlmwCXiKhsP+xbiRIpo2qAtwCmHwH1zG39kCULKLy14A8l4lbNl4K1cuX9cBv3+6XDyoG6EE5FcIjiCcOvDdBlJ6bSMs5T9BYeA/xZXLE71HfUVcPKgX8DXgTGBIB3yGWq60AJTm4sEdVQDyVgHfAeZy5bI3O/DzpE/4ux9OaMWji44BMWNJatLrwIKi4xlgMVcuS/QQqriLB+8FTAS+DfTvwM9Um/S/ewtAwXuEG1Fcz5XLXqjA50uviwfvRigCxcVgJNArZiwpI9YBC2k46Bdw5bLqvyq/FBcPPhA4h3BDtl0q8BktACWrXAHI2w78BpjJlcseqeDnTbeLB9cA+xHKwEHAvkXHUKA2UjIpjTYCrwBLi44lhGH/MlcuS/g37gS5ePAYwvn9zwKdKviZLQAlq3wBKPYgcB3wR/+HK1FYdtuPhsUgfwylMo1cSor32HHA54+XPR1ZovCC5ETCW/mOjZTCAlCyuAUg75/AncCdXLnsuchZqk/4n3Vvmi4H+xEu0PEdCkqTTYQLjV+m6SH/hi8qOsDFgw8CTs0dH4icxgJQsmQUgGJPEsrAz7ly2bLYYTIhFIQBNF0O9iUUhMa34pQ60mbCgF9K00P+dQd8hVw8eDDwH4Shf1jkNMUsACVLXgHI2044RXAncDdXLlsVOU92XTy4Ew0LwhBg10ZH/6LnXo+gpmwEVuaOVUXP80d+4C8lDPjtUVIKLh7cn7BL36mEJf5KnttvLQtAyZJbAIptJtwB607g91y5bEPkPGrJxYO703w5aO75rkBfkvmNRgXbgTU0HNyrWvF8JVcu2xQjsFrp4sE9gE8Thv4nSf6qnwWgZBelogAUW0d4F8GdwF+4all2dxusNhcN7kQoAU2Vg5aKQy/C7UO7YYHYme2EQr2F8P9SawZ58Y/XcJWvzKvGRYO7AB8nDP3Pkq63GtdylQWgNBftk7YCUOxt4BeEMjCfq15L+F+2OtxF+3SiUAa6JuA5FAbulujPr3rN4Z11F+1TA4wjDP0vAHvEDdRutVz1mgWgJOkuAMVeAX4G3MlVry2IHUaSEuWifUYThv4XCW8NTjsLQMmqpwAUexb4FXAv8DBXvea+3JKy5aJ9ugFHAycAJwGj4gYqOwtAyaqzABTbAPyNcLvie4EnXQaVVHXC6a/DCAP/eODDQI+omTpW4gtAl9gBRA/gE7kDYBUX7fMAoQzcy1WvufGQpHS6aJ+DCAP/BOCjdOzNd9RGFoDk6Q98LnfARfusoLA6cC9XvfZavGiS1IKL9tmHwsA/HhgYN5Ba4imA9HmRfBmA+7nqtXci55GUVRftsztwHIWhf0DcQIniKQCV3QG54xtAPRft8wyFQvAgV722LmY4SVXson16EXbeyw/8g4GaqJnUbslfAbhwiCsArbcVeJRQBh4AnuTqV92iWFL7XDikP+HCvY8SBv5R+MKxtWq5+tVErwBYAKrfK8DTwFNFjy9z9asJ/8JLqpgLh9QQbq51KHBI0WM1vB8/lsQXAJtc9RuaOz5T9LG1XDjkGQqF4Cng2aT/Y5VUBuFF1SjCkM8P+oOBPjFjqfIsANnUBzgmd+Rt48IhS2i8WnD1q29GyCepHC4cshc7vqofBnSOGUvJRMnoZAAAGJBJREFUYAFQXmdgRO744vsfvXDImxRWCfLl4HmufnVbhIySmnLhkM7AB2k47A8F9ooZS8lmAdDO7EXDjYoANnLhkGdpuFrwDFe/ujZCPilbLhzSh7BkX/yqfhRQGzOW0scCoPaoBY7MHQUXDnmHcNHh0txj8fOlXP3qmkqGlFLpwiF9gX0J1+7kH4uf7x4pmaqMBUDltHvuOLzJn71wyBpaLghuaqTqd+GQ3Wl5wPeNlEwZYwFQJfUlLF0e3OTPXjhkAy0VBHjDty8q0cLb6fam5QFfzTfAUYokvwDUu8lUhvQAhueOpmzigqGv0bAUvFJ0vM2MVzZ0fExl1gVDewB7UBjqxYN9X6jZB+geK57UFskvAFJBdwpbITftgqGbgFW5Y+VOnhd/bBUzXtncgdmVFBcM7Ua46Vb+2LXRY0vPHe6qGhYAVZvuhCXYvdv8X14wdD3NF4SWCsRqZryyvQzZ1VoXDO0E9KNtAzz/2DNCYilxLABSQc/cMbiN/109Fwxdw44FoQ7YAmzeyWNrfk3rHme8srXtf+w2uGBoF6Ar0K1Mj635Nb3Zcaj3xZvQSCWxAEilqyG8Gu1H2E89nguG1tO2UgFtG9YOXalKWACk6lJDGNjdcKlbUgs6xQ4gSZIqzwIgSVIGWQAkScqgFFwD4DVHkiSVW/ILgBu/SpJUdp4CkCQpgywAkiRlkAVAkqQMsgBIkpRBFgBJkjLIAiBJUgYl/22A7gMgSVLZuQIgSVIGJX8FwI2AJEkqO1cAJEnKIAuAJEkZZAGQJCmDLACSJGWQBUCSpAyyAEiSlEHJfxugGwFJklR2rgBIkpRByV8BcCMgSZLKzhUASZIyyAIgSVIGWQAkScogC4AkSRlkAZAkKYOS/y4A9wGQJKnsXAGQJCmDLACSJGWQBUCSpAxK/jUA7gQoSVLZuQIgSVIGWQAkScogC4AkSRlkAZAkKYOSfxGgGwFJklR2rgBIkpRBFgBJkjLIAiBJUgYl/xoANwKSJKnsXAGQJCmDLACSJGWQBUCSpAxK/jUA7gMgSVLZuQIgSVIGWQAkScogC4AkSRlkAZAkKYOSfxFgPVuBpcC+cYNIktQqS4GtsUPsTPJXAG54YSswDngqdhRJknbiKWBcbnYlWvILAMANL7wOHAvcEzuKJEnNuAc4NjezEi8dBQDghhfqgH8Ffho7iiRJjfwU+NfcrEqFmvr6lN1t5+wP1gDXAFNjR5EkCZgJnM8Nz6dqoKavAOSd/cGJwCzStIohSaom24Ep3PD83NhB2iO9BQDg7A9+Frgd6Bc7iiQpU1YDp3HD87+JHaS90l0AAM7+4FDgZ8DY2FEkSZnwEPBFbnj+ldhBSpH+5fPwBTgWmEFYjpEkqSNsJ8yaY9M+/KEaVgCKnfXBE4AfAwNiR5EkVZXXgS9z4/P3xg5SLulfASgWvjCHAH+KHUWSVDX+BBxSTcMfqq0AANz4/NvAicDZwObIaSRJ6bWZMEtOzM2WqlJdpwAaO2vYcOA7wEcjJ5EkpcsDwLe5ccni2EE6SnUXgLyzhn0ZuB7YM3YUSVKivQWcw41Lfhw7SEervlMATQlfyGHALfhOAUnSjrYTZsSwLAx/yMoKQLGzhh1F+CIfFjuKJCkRngS+yY1LHo0dpJKysQJQLHyBjwSmAKm5aYMkqezqCLPgyKwNf8jiCkCxs4btDVwAfAPoHjmNJKkyNgHfA2Zw45I3YoeJJdsFIO/MYYOAi4CvAt0ip5EkdYzNwG3AVdy0ZHnsMLFZAIqdOWwIcDEwHugaN4wkqUy2AHcAV3LTklcjZ0kMC0BTzhy2HzAN+DLQJXIaSVL7bCVsDz+dm5a8HDtM0lgAWnLmQQcAlwCnAp0jp5Ektc424E7gCm567sXYYZLKAtAaZx60L3AG8DWgX9wwkqRmrAZuBW7mpueWRs6SeBaAtjjzoJ7AV4CJwPDIaSRJwWJgLvAjbnpufewwaWEBaI8zD6oBPg5MBj4F1MQNJEmZU0+4S99s4C/c9JzDrI0sAKU686ADCSsC44HeccNIUtWrI1zRP5ebnnshcpZUswCUy5kH9QH+K3ccHjmNJFWbJ4AfAj/kpufWxg5TDSwAHWHKQcOB/8wdQyKnkaS0ehX4CfATZj1XtbfljSX5BWDKQd2B7wLnM+u5t2LHaZMpB9UAxxKKwBeAvnEDSVLirQF+QRj8DzIrZef2pxy0J3AN8C1mPbcpdpyWpKAADN8F2Eh4e8clwHeYtXhb3FDtEP4cnyaUgU/hToOSlLeFcEHfT4DfM2vxe5HztN2U4Z2BbwNXEN4uXpv0P0eaCkDe08AEZi3+e6REpZsyfDfgFOBk4MO426Ck7NkK/A24G7iLWYvfjZyn/aYMPwaYBxxS9FELQMl2LAB5PwamMmtxuu/kNGV4f+Bfgc8AnwT6xA0kSR1mLfBn4HfA/8esxasi5ynNlOF7AzMJ28Y3ZgEoWfMFAMI/pkuBecxavLVyoTrIlOHdgI8C/04oBIOj5pGk0i0jDPzfAg8wa/HmyHlKN2V4F2ACcDnNv2izAJSs5QKQ9yzhtMBfK5CocqYM/x8UysChkdNIUms9RX7oz1r8f2OHKaspwz9CWO4ftZNfaQEoWesKQN7PgHOYtXhFByaKY8rwIYRTBMcDxwF7xg0kSe97C7gfuA/4M7MWV98td6cMHwhcD3yxlf+FBaBkbSsAAOsIyzKzmbV4S8eESoApw0cRysDxwEfwJkWSKmc18FfCwL+PWYufjZyn40wZ3pWw7fulQK82/JcWgJJNbnMByFsMTGb24r+UOVHyTB7eCTiMQiE4hrb9Q5WklqwD/k5+4MOTzF68PW6kCpg8/OOEew205+Zvtcy2AJSm/QUg7xHgOuDXmfgHCzB5eFfgSEIZOBY4CjchktR6a4BHgQcJA/8xZlfximqx8ILqc8C5wJgSficLQMkmjyi1AOS9ANwA/JDZixL9RSm7ySNqgGGEf8z5YzRuRiQpbMKzgPBiKX8sYfaihA+HMguz5r+As4EDy/A71iZ91mSpAOS9BcwBvsPsRel+D2opJo+oJZw2KC4F+8aMJKkiltJw2D/J7EXl/B6bLpNH9Cfs4DeJ8l5cbQEoWfkLQN564FbgRmYvqr4rVttj8og9CUXgKOAIwirBoKiZJJViOeHV/RPkB/7sRem6p0pHmTxiCHAW8DWgZwd8BgtAyTquAORtBe4CrmP2oqc78POk0+QRuxKKQPExCugdM5akBuoI+6EsaHDMXrQyaqokmjziEML5/VPo2G3YLQAl6/gCUOz/B2Yye9G9Ffp86RSuKRgKHEzDYvBBvK+B1JG2As/TcNA/A7ySuXP2bTV5xAnAVOBfKvQZLQAlq2wByPu/hP2d72b2ovTdeTCWySO6E94uM4xwPUHxMRSojRNMSpWNwCuEc/XFxxJgMbMXJfoWs4kyeURnwk3XpgL/o8Kf3QJQsjgFIO9l4EbgB8xetCFShuoxecTe7FgM8sdQYJcYsaQKe4+mB/xS4GVmL3ozTqwqMnlED+B0wjn+/SKlsACULG4ByKsDfgPcCdzD7EXpv/FQ0oTTCk0VhP1yj0OA7jGiSW20CXiV/EDfcci/4XJ9B5g8ogvwMeBU4LPEv07JAlCySSOTUACKvQ38H+CnzFn4UOwwmTFpZA0wgKbLwb6EgtAtRjRlzmYKA34pOw7515mzMOHfWKvIpJFjgS8B/xPYI3KaYrXMWWgBKEnyCkCxpYRVgTuZs3Bh5CzZNmlkJwoFYQiwa6OjfxPPLQyCMNBXAqtyj42f54/80H+dOQuzsatoUk0aOZLwSv9Ukrt/iQWgZMkuAMWeIZSBnzFnofsKpMGkkT1pvhw0fl784+bu/6241tL08G5usIfncxauj5JWbTNp5BDCnfhOJbwDKeksACVLTwHIqwf+QSgDv2DOwnci51G5TRrZhXD3xZ2tMOSPXoRtl7vlHpt63qmif4b4thNeeW/JHU09X0frBvlKYDVzFnptTrWZNHJ34AuEof8hoCZuoDaxAJQsfQWg2FbC3gJ3Ar/xlYaaFU5h7KwkdMRz2PkgLv9zl9DVnLAy91nC0P8X0ru3iAWgZOkuAMU2AL8jlIE/M2dhNu6sJUk7M2lkV+CThKH/GaBH3EBlkfgCkNZmlUY9gP/IHSuZNPIPwL3AvcxZuDxqMkmqtEkjBwEn5I5/I5wuUwW5ApAMSwj33L4XuJ85C92/W1J1mTRyV+A4wsA/nrBjaDVzBUCtMix3fAvYzqSRT5NfHYC/ee2ApNQJ5/I/TOFV/iFk72LXREv+CsDEUVlYAWjJFsJtPPOF4BHmPrs5biRJamTiqG6E24nnB/4YwsWmWVXL3GcTvQJgAUifDcDfKBSCp5j7rFdUS6qsiaM6AYdSGPgfpjou3iuXxBcATwGkTw/gE7kDYCUTRz1AKAP3MffZ52IFk1TlJo46iHD+/gTgo3jhXqpZANJvV+Ck3AETR60glIEHCLc1XuQpA0ltFpb0RxBuo/tRwtAfGDOSystTANVvC7AYeAp4+v3Huc++GzWVpOSYOGo3wkV6hxY9Difb5/BL5SkARdeVsG92w72zJ45aRqEQ5MvBi8x9NuGNUFK7TRxVAxxAYcjnB/7gmLEUhwUguwbnjhOLPraOiaMW0HC1YAFzn90QIZ+kUkwc1QMYTcNX9aMJ96aQLABqoBcwNnfkbWfiqBfY8RTCigj5JDVl4qiB7LiEfyC+714tSEEBSNPNn6pSJwobFZ3y/kcnjn6b4kIQjpeYu8BNi6SOMnF0T2B/wpAvGvg1e0TNpVRKfgHwjHRS7QF8LHcUTBj9LrAUeCV3LG3wOG/B6gpmlNJlwuh+wFBg30aP+ee7RUqmKpT8AqC02S13HN7kz04YvZaWC8LbFcgoxTFh9B60POD7REqmDLIAqNL60NS7EvImjN5AoRzsWBDgdeYtcF1IyTNhdA0wgOYH/FDcKU8JYgFQ0vQgvP94eDM/v5kJo1+lYSnIH28Dq4CVzFuwqeOjKjMmjO5O2HSrP+H0V/FQ3zf3OAToFimh1GYWAKVNN8L7mA9o8VdNGL0RWEkoBKuaed70z89bsK2DsiumCaM7EwZ4fwrDvPh5Ux/LP6+NkFjqUBYAVataYFDuaJtwnULzBaH5ArHW0xMdLCyz96HtA7w/nl+XGrAASDvqkzuGtvG/28aE0WsoFIM6wlbMm3fy2Jpf09bHhh9r66pGeLXcjbCTZP6xaxMfK/WxNb+mN4VB3hfo3KY/i6QmWQCk8ulMGFLJu0PahNH1NF0WoOnB6wYcUpVLQQHw+5BUBjVA99whSSkoAJ5RlSSp7NwnWpKkDLIASJKUQRYASZIyyAIgSVIGWQAkScogC4AkSRmU/LcBug+AJEll5wqAJEkZlPwVADcCkiSp7FwBkCQpgywAkiRlkAVAkqQMsgBIkpRBFgBJkjLIAiBJUgYl/22AbgQkSVLZuQIgSVIGJX8FwI2AJEkqO1cAJEnKIAuAJEkZZAGQJCmDLACSJGWQBUCSpAyyAEiSlEHJfxugGwFJklR2rgBIkpRByV8BcCMgSZLKzhUASZIyyAIgSVIGWQAkScogC4AkSRlkAZAkKYOS/y4A9wGQJKnsXAGQJCmDLACSJGWQBUCSpAxK/jUA7gQoSVLZuQIgSVIGWQAkScogC4AkSRlkAZAkKYOSfxGgGwFJklR2rgBIkpRBFgBJkjLIAiBJUgYl/xoANwKSJKnsXAGQJCmDLACSJGVQGgrA1tgBJElqo8TPrpr6+hScZP9fR6wFeseOIUlSK9Txvx/vEzvEzqRhBQDg3dgBJElqpVTMrLQUgJWxA0iS1EqpmFlpKQBvxw4gSVIrpWJmpaUAPB07gCRJrZSKmZX8jYAA6nkkdgRJklopFTMrLSsAqfjLlCSJlMysdBSA7z++HFgeO4YkSTuxPDezEi8dBSD4TewAkiTtRGpmVTquAQCg5g7gjNgpJElqwR2xA7RWOnYCzPv6kc8CI2PHkCSpCQv5/mOjYodorTSdAoAUNStJUubcETtAW6StANwKrIodQpKkRlYRZlRqpKsAfP+x1cC1sWNIktTItbkZlRrpKgDBHGBF7BCSJOWsIMymVEnXRYB5XzvyG8AtsWNIkgR8k1sf+17sEG2VxhUAgO8Df48dQpKUeX8nzKTUSecKAMDXjtqPcMOF3rGjSJIyqQ44hFsffTl2kPZI6woAub/wybFjSJIya3Jahz+keQUg72tH/RI4KXYMSVKm/IpbH/187BClSO8KQMF/AU/GDiFJyownCbMn1dK/AgDwtaMGEm6/ODh2FElSVVsGjOHWR1P/dvRqWAEg94U4kXBBhiRJHaEOOLEahj9USwEAuPXRZ4DPAetiR5EkVZ11wOdys6YqVMcpgGJfPepw4I/AXrGjSJKqwpvAidz26BOxg5RT9RUAgK8etR/wJ2BY7CiSpFRbAnyK29L7dr/mVGcBAPjqmN2A3wHjYkeRJKXSfOAz3PbIu7GDdITquQagsfAF+xjw69hRJEmp82vgY9U6/KGaCwDAbY9sBE4G5sWOIklKjXnAybkZUrWq9xRAY18dMxW4BqiJHUWSlEj1wPnc9sjM2EEqITsFAOCrYz4PfA/YLXYUSVKivAt8g9se+WXsIJVS3acAGgtf2BHA3bGjSJIS425gRJaGP2RtBaDYV8ecDNwM7Bk7iiQpireAM7jtkUy+KMxuAQA4fcxuwBzg1NhRJEkVdScwiR9U71X+O5PtApB3+tGfBm4BBsaOIknqUCuAb/KDh38fO0hs2boGoDnhH8JI4PbYUSRJHeZ2YKTDP3AFoLHTj/4EYTVg38hJJEnlsZTwqv+/YwdJElcAGgv/QIYBEwhLRZKkdFpB+F4+zOG/I1cAWnL60bsA3wTOx7sLSlJavEnY+O0WfvDwe7HDJJUFoDVOP7oHoUVOxU2EJCmp3gVmAvP4wcMbYodJOgtAW5x+dG9gEnAO0C9yGklSsBq4AZjNDx6uix0mLSwA7XH60X2Bs4ApQJ/IaSQpq9YCs4Ab+cHDa2KHSRsLQClOO3pXwmrAN4H+kdNIUlasIrxb63puf3hl7DBpZQEoh9PG1gKnEIrAmMhpJKlaPUIY/Hdx+0NVfaveSrAAlNtpYw8jFIEvAT0jp5GktFsP/BS4hdsfejJ2mGpiAegop43tA/wnoQyMjpxGktJmAeHV/k+4/aG1scNUIwtAJZw29kPAt4CTge6R00hSUm0i3Jr3u9z+0D9ih6l2FoBKOm3s7sBpwDeAD0ROI0lJ8U/ge8Dt3P7QO7HDZIUFIIbTxtYAYwkrAp8HhsQNJEkV9yrwS8Ir/oe4/SGHUYVZAGILZeAoQhk4GW9CJKl6LSUM/LuBRx36cVkAkua0sUcAXyCUgf0jp5GkUr1EGPi/4PaHHo8dRgUWgCQbP/YwCmXgwMhpJKm1XiA/9O/wrXtJZQFIi/HjDiEUgZOAEZHTSFJji4BfAXdzx/ynY4fRzlkA0mj8uEHAx4CPAycAe8cNJCmD3gDuBf4C3MMd85dHzqM2sgBUg/HjRlMoBMfiDoSSym898CCFgb8gch6VyAJQbcaP60Z4i+HHCaXgCKBz1EyS0mgb8DhwD2HoP8Qd8zfHjaRysgBUu/Hj+gHHUSgEXkwoqTkvEob9X4D7uWP+6sh51IEsAFkTrh84uug4HKiNmklSDBuBJ4CH3z88j58pFoCsGz+uC3AIDUvBAVEzSeoIL1I87OFp7pi/NW4kxWQB0I7Gj9sdGEOhEBwF9ImaSVJbrAUepTDsH+GO+e6xrwYsANq58eM6AcNpeNpgOLBLzFiSAHgPWEzD5fzF3DF/e9RUSjwLgNpn/LjOhAsKRzc69gdqIiaTqlU9YVvdBY2OF7hj/raYwZROFgCV1/hxPYGR7FgM9ogZS0qZt9lx0C/kjvnro6ZSVbEAqDLGj9uLHUvBB/HaAmXbWuB5Gg/7O+a/GTWVMsECoLjCBYcHAB8oesw/3zNiMqlc3iJcgf/P3PHi+49emKeILABKrvHjelMoBMUF4QBgMNApXjjpfduBZRQP9sKw/yd3zK+LmE1qlgVA6RS2PN6PUAb2AwYVHQNzj72j5VM1qQOWAytyj/njZcKwf9ktcpVGFgBVr7CCUFwIGheEQYQ7KXaJFVFRbSXc0S4/0BsP+PBjX8GrSlkAlG1hj4M9KRSCAcDuwG7ArrnH4qM/nnpIqu3AKuDdRsfK3OM7wOsUBvxbvldeWWYBkNpi/LgaoB+FQtBUSSj+WF+gF+EWzT2wPOzMdmAD4daz64A17DjImxru7wKruWO+39CkVrIASJU0flwthUKQP9ry4+6EUxZdCLd5Ln5sz8cgLIVvyz0WP2/PxzYRhnd+gK9v04/vmL+xvX+1ktrm/wEtJi+QVSo2WwAAAABJRU5ErkJggg==;" vertex="1" parent="1">
          <mxGeometry x="663.5" y="366.5" width="53" height="53" as="geometry" />
        </mxCell>
        <mxCell id="f6l7KDXVF6W410hvDn_E-68" value="" style="shape=image;verticalLabelPosition=bottom;labelBackgroundColor=default;verticalAlign=top;aspect=fixed;imageAspect=0;image=data:image/png,iVBORw0KGgoAAAANSUhEUgAAAgAAAAIACAYAAAD0eNT6AAAABHNCSVQICAgIfAhkiAAAAAlwSFlzAAAN1wAADdcBQiibeAAAABl0RVh0U29mdHdhcmUAd3d3Lmlua3NjYXBlLm9yZ5vuPBoAACAASURBVHic7N13nFxl2f/xz5kt2d1skk3vHdIoSUiAJECo0kFKRMGGSFUEpFjwJw+PPlZAiihFBRVFhVAE6S1ECBAIKUAakN7rZrO9zPn9cc1kdje7YZOdmXvOnO/79bqdsuvMBSRzfec+97mP5/s+IpIenucVAsVAx0Zjbx53AHJjI6fZ7b48B1APNMRuG9/fl+dqgIrYKG90v02Pfd+v2td/tyKydzwFAJG28zzPA0qA7rHRrdH9lp7rQqKBFwGR9FcdKFGgkkRA2AFsjY1tje639Fyprw80kTZTAJBQ8zwvAvQC+sdGX6AHrTf3rqiJZ6oosJ3WQ8IWYD2wNjY2+b4fdVOqiHsKAJK1PM/rhDX1fiQafPPHfUhMhUu41AMbSASCdY3u73rs+/5OZxWKpJACgASS53n5wFBgv9htSw2+k7MCJZvspOWAsBz4BFju+36tu/JE9o0CgGSs2Df44Y3Gfo1uB6CpeMkMUWANFgY+bXT7KfCpZhAkUykAiFOe5/WgaWNv3Ox7OSxNJFk20TQU7AoKvu9vcVmYhJsCgKSF53m9gYOajRFAZ5d1iThWBiwFPmg8fN/f6LQqCQUFAEkqz/M6Agewe7Pv6bIukYDZTLNQAHzk+36F06okqygAyD7xPC8H2J/dG/0wwHNYmki28oFl7B4MPvZ9v8FlYRJMCgDymWLnyo8GJsXGhNjjApd1iQgA1cAiYA7wdmws0h4H8lkUAGQ3sYV5h5No+IehY/UiQVIGzCYRCN7RgkNpTgEg5DzPywXGkmj2k7AV+CKSXT4hEQjeBub7vl/vtiRxSQEgZDzP60/TZj8BKHRalIi4UEXTwwZv+76/1m1Jkk4KAFnO87wS4Fjgc8AJ2MI9EZGWfAK8FBuv+b5f6rgeSSEFgCwT2yJ3MomGPxG79KuIyN5oAN4DXsYCwVva8ji7KABkAc/zDsKa/eeAqdilZ0VEkqkCmImFgZd93//AcT3STgoAARQ7jh9v+MdjV7QTEUmnDcArJAKB1g8EjAJAQHieNxaYBpwDjHFcjohIcwuBx4Hpvu/Pd12MfDYFgAzmed544AtY49fiPREJio+B6cCjvu/PdV2MtEwBIMN4njeRRNMf5rgccSQvFzoVQXFsFORDbk5s5Da6387nAOobGo36Zo/38bnqWiivtLGzEup0tnmYLSMRBt5zXYwkKAA45nmeh+20Ny02hjgtSPaJ50GXYujZFUqKrWk3buDFhdCpo922+Ljx7xdCfp7rf6Lkqq2D8qpEIIiHg/Iq2FmR+Nlujxv9fmk5bN4OO8pBH1uBtQILA9OB2b4akFMKAA7Emv5krOGfCwxyW5E0V9gBepRYQ+9RkhitPe7eJfGNWlKrvgG27oAtpRYItpQmRmuPq2pcVy0tWAU8hoWBtxQG0k8BII1ie+x/A7gMGO64nFDq2RUG9m40+kD/nrs39CJd5iirVFbvHhDWbobVG2D1xsTYvN11paH1KXAf8KCuWZA+CgBp4HneEcAV2Df+Do7LyVpdOzdr7rEGP6CX3R/Q246li7SmuhbWxMLAmk27B4TVG2F7mesqs1oNNiNwj+/7b7ouJtspAKSI53mdga8AlwMHOS4nK3QshBGDYMRgGDkYBvdt2uw76ooGkgYVVU0Dwcr1sGQlLF0JS1fZzyUpPgDuBf7m+75iVwooACRZ7NS9y4Evox359lpOBIb2twbfuNmPGAT9e7muTuSzrd1kQaBxKFiyEpavhYao6+oCqQL4O3CvTilMLgWAJPA8rxD4Itb4D3dcTiD07gYjh8Sa/KDE/eED7BQ4kWxTVw+frokFghV2G7+/cZvr6gLjHWxW4F++72uupZ0UANrB87xuwPVY4+/quJyMVJAPBwyHsfvDuJF2e/D+UNLJdWUimaN0Jyz4GOZ/DPOW2O1Hn9qaBGnRdiwI3Or7vuLTPlIA2Aee53UBrgWuATo7Lidj9OrWtNGPG2nT9zo9TmTv1TfYoYN4IIjfblK7a6wMuAP4je/7O1wXEzQKAHvB87xOwFXYt/4Sx+U4kxOB/QfBuBEwdkTitm8P15WJZL/1W2D+Upi3NHH78arQry8oBW4D7vR9f6frYoJCAaANPM8rAq4Evgd0d1xO2pV0gkkHwRFjbRx+oM6TF8kkldXwzofw5nwbb39ghxVCaCvwa+Bu3/crXReT6RQA9sDzvALs+P4PgN6Oy0mbYf1jzX6c3Y4ZCpGI66pEpK2iUVi4PBYI5tntsnBdrHcj8EvszIFq18VkKgWAFnielw9cAtwI9HNcTkrl5cL4kU0bfp/QzXGIZL8NW5sGgrlLQnGRpnXAz4E/+L6vJZXNKAA043neSdjq0iGOS0mJ3Bybwj9xEhw9AQ47wPa9F5FwqaqB2R/B63PgxbftEEJ9g+uqUmYFcLnv+y+4LiSTKADEeJ5XAvwG26s/qwzrbw3/pMlw3KHQWdsTiUgzZRXw6rvwwlsWCLL0kMGDwLW+75e6LiQTKAAAnuedgX3rz4rp/s4d4diJiaY/fIDrikQkaD5dkwgDr71nASFLrMNmA552XYhroQ4Anud1B+4CLnBdS3tEIjBxtDX8EyfB5IN17r2IJE99A7y1wMLAi2/De4tsoWHAPQxc5fv+VteFuBLaAOB53jTgd0Agd5jPy7Xp/GnHw1nH2CVsRUTSYUspPDkDpr9ihw0CvJhwE/Bt3/enuy7EhdAFAM/zemGNf5rrWvZWfh6ccBh84QT4/NF2+VsREZe2l8G/X4dHX4aXZ0NtneuK9sl0LAhscl1IOoUqAHiedy5wHwHazKdDPpw0CaadAGdOhS7FrisSEWnZjnJ4aiZMfxleeBtqgnXi3VbgMt/3H3NdSLqEJgB4nvc9bGMIz3Utn6WwA5w8xab3z5gKnYpcVyQisnd2VsLTM+0wwfOz7LTDAPCBH/i+/2vXhaRD1gcAz/MiwJ3YVr4ZbdwIuORs+PIp+qYvItljRzn8/Tn4wxN27YIAuBu42vf94C913IOsDgCe5xUCfwfOdl1La4qL4PyTrPEfOsZ1NSIiqfXuQgsC/3gByjN7t/4ngC/7vl/lupBUydoAEDvF7ylgiutaWjJxDFx6tjX/Yk3xi0jIlFdaCLj/CXhvoetqWjULODNbTxXMygDged5Q4DlgpOtaGutSbNP7l5xt0/0iImKHBf7whB0m2FHuuprdLAFO8X1/uetCki3rAoDneROAZ8igq/cN6AXXfxUuPgs6FrquRkQkM1VUwR+fhFsfgjWZdULeRuA03/fnuC4kmbIqAHiedzzwJJARS+j2HwQ/uBC+eqpt3CMiIp+trh4eehZ++Wf4eJXranYpB87yff8V14UkS9YEAM/zDgbeADq5rmXcCPjhN+w0vkjEdTUiIsEUjdpphL94MGPOHtgJHOn7/gLXhSRDVgQAz/P6Ae8ATi97c+Q4uPEiOCUjlx2KiATXc7Pg5w/AG/NcV8Ia4HDf99e5LqS9Ah8APM8rBmYC413VcOgYuPUamHqIqwpERMJh5vtw/R12OqFDc4Gpvu9n3pLFvZANAeAx4BwX7927G/ziSrjwDPAyfn9BEZHs4Pvw56fhh3fDxm3Oynjc9/1znb17EgQ6AHie9w3ggXS/b14uXH0+/Phi6Nwx3e8uIiIAZRXw0z/Cnf9wdkXCi3zff9DJOydBYANA7Fz/+aR50d+pR8Dt18GIQel8VxERac3SVfDd2+DZN9P+1juBsUHdIyCQASC2v//rwJHpes8h/eB337cAICIimefZN+Hbv4IV6V2e9wZwdBCvGxDUk9QuIY3N/+xjYe7f1fxFRDLZqUfYZ/XZx6b1bY/EelLgBG4GIHaBn0+Afql+r/w8uOVquOpLqX4nERFJprv+CTfcCbV1aXm7dcB+QbtwUBBnAK4iDc1/WH94809q/iIiQXTVl+wzfFj/tLxdP6w3BUqgZgA8zysBlgFdU/k+046HP/7YLt4jIiLBtaMcLv6p7SiYYtuBYb7vl6b8nZIkaDMAF5Pi5n/lefDor9T8RUSyQZdi+0y/8ryUv1VXrEcFRtBmAD4EDkjV6196Dtz7Q23qIyKSbXwfLv8F3P94St/mI9/3D0zpOyRRYGYAPM+bSAqb/9dPV/MXEclWnmef8V8/PaVvc0CsVwVCYAIAcGGqXvj8k+CBm9T8RUSymefZZ/35J6X0bS5M6asnUWAOAXietwZI+nrOqYfAK/dAbk6yX1lERDJRfQMcf4VdWCgF1vq+7/TKtG0ViADgeV5/7BKMSZWbA3MfhgOHJ/uVRUQkk334KYy/wMJACgzwfX9tSl45iYJyCODwVLzolV9U8xcRCaMDh1sPSJGU9KxkC20A6N0N/veyZL+qiIgExf9eZr0gBRQAkmhssl/wJ5frUr4iImHWuaP1ghRIes9KhaAEgJ7JfsGTpyT7FUVEJGhS1AuS3rNSISgBIKmTNH26w6A+yXxFEREJokF9rCckWWoOLCRZUAJAUv/zHB6YfZpERCTVUtATkh8pUiDjA4DneblAp2S+5viRyXw1EREJshT0hE6x3pXRMj4AAEn/l7h6Y7JfUUREgipFPUEBIBO986HrCkREJFOEtSeEMgAsXA7lla6rEBER18orrSeEUSgDQDQKsz9yXYWIiLg2+yPrCWEUygAA8LMHXFcgIiKuhbkXhDYAvPouPPKS6ypERMSVR16yXhBWGX81QM/zCoCqVLz2gF6w+DHoWJiKVxcRkUxVUQWjzoU1m1L2FoW+71en7NWTILQzAGD/4f/vT66rEBGRdPvZAylt/oEQ6gAAcOtD8MRrrqsQEZF0eeI1uOWvrqtwL/QBoL4BvvhDeHqm60pERCTVnp5pn/n1Da4rcS/0AQCgrh6mfR+em+W6EhERSZXnZtlnfV2960oygwJATG0dnHM9vPSO60pERCTZXnrHPuNr61xXkjkUABqproXPXwvTX3FdiYiIJMv0V+yzvbrWdSWZJdSnAe7Jt8+D266BDvnpfmcREUmGmlq47g743SNO3j7jTwNUANiD8SPhkV/CfgNdvLuIiOyrT1bDeT+AuUuclZDxAUCHAPZg7hKY8BX414uuKxERkbb614v22e2w+QeCZgDa6LJz4NZroLjIdSUiItKS8kq4/g6473HXlQABmAFQANgL/XrCr74DXznVdSUiItLY356F7/8W1m12XckuCgDtlUkBIO6IsXDXDXDIKNeViIiE2/uL4apb4M35rivZjQJAe2ViAACIRODis+Bn34IeJa6rEREJly2l8KPfwx+fhGjUdTUtUgBor0wNAHFdO8P/Xgbf+gLkaEmliEhKNUTh94/C/9wH28tcV7NHCgDtlekBIG7/QfD9r8NXT4X8PNfViIhkl9o6eOhZ+NVf4ONVrqtpEwWA9gpKAIgb0Auu+wpceg4UFbiuRkQk2Cqr4f7H4ba/Be7yvQoA7RW0ABDXowSuPh+uPA9KOrmuRkQkWEp3wt2PwJ3/sOP9AaQA0F5BDQBxnYrgimlw7VegdzfX1YiIZLaN2+A3f4N7psPOStfVtIsCQHsFPQDEFeTDl0+xQwOHHeC6GhGRzDL7I5vq//tzWXPRHgWA9sqWANDYQfvBJWfDV06xswhERMJoexn87Tn4wxPwwSeuq0k6BYD2ysYAEFeQD+ceb2Hg6ENcVyMikh6vv29N/7FXsubbfksUANormwNAYyMGwTfPggtPh15aKyAiWWbTNvjzf+BPT8LSYJzG114KAO0VlgAQl5cLZ0yFL50Ipx4BHQtdVyQism8qquDZN+GfL8LTM6Gu3nVFaaUA0F5hCwCNFRVYCJh2PJx+lMKAiGS+iir4z39h+ivW/CszugWmlAJAe4U5ADRW2AFOOQK+cAKcfqQuSywimaO8Ev7zBjz6Mjz3JlTVuK4oIygAtFcqAsBFZ9oxqDfmJfNV06cgv1EYOMr2GhARSaedlfZNP970g7qY78hxtgbrgaeS/tIZHwByXRfgwkH7wZ9ugn+9CDfcCas3uq5o71TXwhOv2SjIhxMnwclT7Hb4ANfViUi2+nQNvPg2PD/LboPa9AEG9oZbroYvngh3POy6GjdCGQDivniiLbj75Z/hlr8G8w9zdS08NdMGwLD+cNJkCwPHHQqdO7qtT0SCq6wCXn3Xmv0Lb8Gyta4rar+CfLjha/CDC3W9llAHALA/AD+5HL5xJlx3u32rDrJla20LzXumQ24OTDrIwsCJk+DQMRDRJYtFpBXRKLy70Br+i2/D2x9AfYPrqpLn7GPhtu/C0H6uK8kMoQ8AcUP7weO3wMuz4epbYeEy1xW1X32DrXN4Yx7cdK/tOnjCYYlAMKiP6wpFxLVVGxIN/+XZtjtfthkzDO683j7/JEEBoJkTDoP5/4C7/wU33w87yl1XlDzby2zBzqMv2+Mh/WDKwTaOGGdrI3I0QyCStRqituXum/Ng1gIbK9a5rip1uhTDzZfClV+0GVFpSgGgBbk5cM0FcMHJcOPv4MGnbWos26xYZ+Ph5+1xpyI4/ECYMtZCweSDtYZAJMjKKuCtWKOfNR/e+TDwV9hrk0gEvnEG/Pzb2ll1TxQA9qBXN/jjj+Hyc+E7t9jxsGy2s9KmAF+ebY8jEThgGBwx1kLBEWNtkaGIZKZla+HN+dbs35wPHy3Lzi8vezLpIPjtDTBxjOtKMp8CQBtMHAOzHrCdrW6+PzvWB7RFNDZd+MEncO9j9lzvbjYzMH4kjBsJ40ZoLYGIC6s2wLylMG8JzF1i3/Q3bnNdlTtjhtl0/7TjwfNcVxMMCgBt5Hm28c65x8G/XoKf/AEWr3BdVfpt3AZPzrAR17WzBYFxIxKhYPRQu66BiLRPXT0sWp5o9vOW2sjGxXr7YtQQuOkS+OLndJbT3tJH9F6KROD8k+xiPf/5L/zm7zBjjuuq3NpeBq+9ZyMuP88OH8QDwbgRMHaELcoRkZbtKIf5SxNNft4Sm8avrXNdWeY5ZgJc+2XbDVXf+PeNAsA+8jzbROiMqfD+Yrj9YdtZMGRXu2pVbZ1NS85d0vT5of0sCIwcDCMG2xacIwZpoY6Ey6Ztth350lWwdCUsWWmNf3kWr8hPhrxc28DtuxfAIaNcVxN8CgBJcMgoeOgn8Msr4bf/gvuf0PRca5ava/lDrksx7D8oEQh2hYPButaBBNPOSmvu8SYfb/gfr8qu04vToWtnuPRs+M4XoX8v19VkDwWAJOrfC375HfjxxXbq4H2PwYefuq4qGHaUw3sLbTTXp3vT2YL4/cF9tZWnuFVZDSvX797kl66EDVtdVxd8Bw6Hy861U/p0OfTkUwBIgY6FcOV5Nt5dCA8+Bf94AUp3uq4smDZstTHz/d1/1r2LXdRjUB8Y2KfR/d42+vfSBiCyb+obYO0mu1jY6o226n71Rli9IXF/6w7XVWafkk62zuqiM3UqX6opAKTYoWNs/OZaePxVu+Tkq+9Chl+FOTC27rAxb2nLP49EoG+P3YPBoEZhoWdXLSIKG9+HzdsTjXxXc290f/2W8J1D74rn2cXLLjoTzjnOLtgjqacAkCYF+baz4AUn25Thn5+GP/8nu7fhzATRqH2LW7up9Y2c8nJtJqFHiYWBHiWJ0dpjfUBllupa2FJqTX1LaWK09njrDi3YzQRD+sGFp8OFZ9ghPUkvBQAHBveF/7nUzl2d/VHivPow7iuQCerqE4cZ2qpjYSsBocSmMIuLoLgwdlsEHQsS94sLbe2CZh2M79ux9PIqKK+0UVGduB9/vnQnbC5tuaFXVLn+p5C2GjUEzjrGxmEH6O+BSwoADnme7b1/+IHwiystADw5wy5J/O5CHSbIZBVVNlau37f/v+dZiCgujN02DgwtBIeCfMjNtfUMTUY7nwOor7fj3U1GO5+rrm29kcdvK6rsfkWV/qxnM8+zw6BnH2tNf9QQ1xVJnAJABhk1BH5woY11m+Hfr1sYmDFH05XZxvcTjVEk2+Tl2kY9Zx8Lnz8a+vV0XZG0RAEgQ/XrCVdMs1G6E555w2YHnn9LTUNEMk9xEZw82b7ln3akHQqTzKYAEAAlneDLp9ioroWX37Ew8NRMOwYqIuJCz65w5lRr+iccrsWxQaMAEDAF+bb39elH2Qr3N+fb7MCMOTBnkR2DFRFJhdwcmDDapvdPO9IuEa4L8ASXAkCARSJw1HgbYFuPvjEPZsQuzPP+YmjQecwiso9yIrbV+bET4ZiJcOQ4bc2dTRQAskinIjhlig2Asgr471ybHXjtPbswjzY2EZHWRCIwfmSs4U+wLxedO7quSlJFASCLde5o03SnHWmPd5TbdrrxQDD/YwUCkTCLRGDs/omGP/UQXbI7TBQAQqRLceISxmBnF8yca2FgxnvwwSc6ZCCSzXIicNB+Np1/7ESYOl6r9cNMASDESjrZCt4zY4Ggstr21J+zyMZ7C21zIoUCkeDJidjeIhPH2MK9CaNh3AhdQVMSFABkl6ICmHKwjbjmoWDOIli0XKFAJJPkRGD00ESjV7OXtlAAkD1qKRRU1cC8JTBncSIULFymUCCSDjkRGDOsUbMfBeNGQmEH15VJ0CgAyF4r7ACTD7YRV1UD8+MzBYvhw09gyUo7E0FE9k3njjByMBy4nzX6CaNh7Ag1e0kOBQBJisIOMOkgG42t22zrCJastNv4WL1RF4ARAbtYzsDedrw+PkYOtlvtoS+ppAAgKdWvp43jDm36fEUVLF3VNBQsXgFLV9p2xyLZpiAfRgxu2uhHDYERg+yKkCLppgAgTnQstA1Hxo9s+nw0Cis3NA0FS1bAsrU2m6B1BpLJciIWeIf1h5FDmjb6wX20ba5kFgUAySiRCAztZyO+o2FcQ9RCwKoNdghh1QZYvaHp46073NQt4dC9CwzqY1P2g/rAwD5NH/fraSFAJAgUACQwciL2QTuwd+u/U1ndKBy0EBJWb7TfEWmuqCDx56ul5j6wt06rk+yiACBZpajAFlCNHNz672zdYYFg41bYXGqXVN68HbY0uh9/vnRn+mqX5CvpZJes7VkSu+0KPRrd71kCvbtbg+/exXW1IumlACCh071L2z/s6+qbBoMtpU1DQ/PAsL1Ml2ROldwc6Np594bepLE3a/R5+oQTaZX+eojsQV4u9O1ho62qa6G8Mjaqmt1W2mWbW/tZ/H7z36mrT90/Yyrk5UJxERQX2m2noqaPm9xv/jst/Ky4yFbRi0jyKACIJFlBvo0eJcl7zWjUZhbq6u22yf36Vp6P39/Dz8G+WefmWNNucj+3heea/bzF53O02l0kCBQARAIgEoH8COTnua5ERLKFcrqIiEgIKQCIiIiEkAKAiIhICCkAiIiIhJACgIiISAgpAIiIiISQAoCIiEgIKQCIiIiEkAKAiIhICCkAiIiIhJACgIiISAgpAIiIiISQAoCIiEgIKQCIiIiEkAKAiIhICCkAiIiIhJACgIiISAgpAIiIiISQAoCIiEgIKQCIiIiEkAKAiIhICCkAiIiIhJACgIiISAgpAIiIiISQAoCIiEgIKQCIiIiEkAKAiIhICCkAiIiIhJACgIiISAgpAIiIiISQAoCIiEgIKQCIiIiEkAKAiIhICCkAiIiIhJACgIiISAgpAIiIiISQAoCIiEgIKQCIiIiEkAKAiIhICCkAiIiIhJACgIiISAgpAIiIiISQAoCIiEgIKQCIiIiEkAKAiIhICCkAiIiIhJACgIiISAgpAIiIiISQAoCIiEgIhTIA1NW7rkBERDJFWHtCKAPAgk9cVyAiIpkirD0hlAHgnQ9dVyAiIpkirD0hlAHgk9Wwvcx1FSIi4tr2MusJYRTKAOD78MY811WIiIhrb8yznhBGoQwAADffD9Go6ypERMSVaNR6QViFNgC8vxjue9x1FSIi4sp9j1svCCvPz/C5D8/zCoCqVLx2t86w9Ano3iUVry4iIplq6w4YcTZsS916sELf96tT9upJENoZALD/8D+823UVIiKSbj+8O6XNPxBCHQAA/vAE/PZfrqsQEZF0+e2/7LM/7EIfAACuugXufcx1FSIikmr3Pmaf+aIAsMu3fgl/+rfrKkREJFX+9G/7rBejABDj+3Dpz+Cvz7iuREREku2vz9hnfIave08rBYBGolG46H/htr+5rkRERJLltr/ZZ7v2fmkq1KcB7skZU+EvN0PXzul+ZxERSYbtZfD1m+HpmU7eXqcBBtXTM2H8l8N7kQgRkSB750P7DHfU/ANBAWAPVq6Hoy6GOx52XYmIiLTVHQ/bZ/fK9a4ryWw6BNBGZx0D9/wQ+nR3XYmIiLRkw1a44hfw5AzXlQABOASgALAXOhXBjy+Gq8+H/DzX1YiICEBtHdz5D/jpH2FnpetqdlEAaK9MCgBx+w+C26+F0450XYmISLg98wZ89zfw8SrXlexGAaC9MjEAxJ0yBW6/DkYOdl2JiEi4LFkJ370NnpvlupJWKQC0VyYHAIC8XLjqS3ZooEux62pERLLbjnKb6r/rn1BX77qaPVIAaK9MDwBxJZ3gyvNsfUCPEtfViIhkly2ldpz/7kegdKfratpEAaC9ghIA4ooK4JKz4fqvwoBerqsREQm2NZvg1ofs6n2VGd1Od6MA0F5BCwBx+Xnw1VPh+1+3RYMiItJ2H6+CX/0FHnrWVvkHkAJAewU1AMRFIjDtePjhN2DcCNfViIhktnlL4RcPwvRXAr93vwJAewU9ADR2/GFw6dm2qZD2ERARMbV1tnnP/U/AK7NdV5M0CgDtlU0BIK5HCXztNLj4LBg91HU1IiJuLFoOf3zSLtW7pdR1NUmnANBe2RgAGjtirC0a/MIJtoBQRCSbVVbDoy/bor4357uuJqUUANor2wNAXJdiuOBkCwPjR7quRkQkueYusab/8PN2Ln8IKAC0V1gCQGOHjIIvnQjTToCh/VxXIyKyb5avg+kvwz9fhPcXu64m7RQA2iuMAaCxCaPt8MC042H4ANfViIjs2bK1TLE5mQAAIABJREFUNsU//RV4b6HrapxSAGivsAeAxsaPTIQB7S0gIpni0zXW9B99OZTf9FujANBeqQgA133Fdpf614vJfNX0GjsiEQZ0MSIRSbePV9m3/EdftuP7QfWlE6F/L7jtb0l/aQWA9kpFALj9WrjmApj5Plx1K8xfmsxXT78DhsEpR8CJk+Co8VCQ77oiEck2NbXwxjx48W14/i1Y8LHritpn7Ai463qYegjc8bBdUjjJMj4A5LouwKWph8Ccv8H9j8OP74GtO1xXtG8+Wmbj1oegsIP9c5002QLBAcNcVyciQbVwmTX8F9+G198P3F78LereBX56BVx6DuREXFfjVqgDANgfgCum2TTQTffCPdOhIcDbT1bVwAtv2QCb2jpxEpw0CU443P7wi4i0ZOsOePmdRNNfs8l1RckT/6z/yeXQtbPrajJD6ANAXNfO8NvvwWXnwlW3wGvvua4oOdZuggefshGJwIRRFghOnASHHwgddLhAJLRqauGdDxMNf87iwO+/36JjJ8JdN8CBw11XklkUAJo5cDi8ei889ipcfwesWOe6ouSJRuHdhTZ+9oA1/wmjYMpY25FwysHQq5vrKkUkVTZtg1kLbAe+WfOt4dfUuq4qdYb0g1uvgXOPc11JZlIAaMW5x8FpR8Kv/2KXpMyGY1/N1dTah8GsBbZ+AGC/gRYE4qFgzFCbORCRYIlGYeHyRLOftQA+We26qvQoKrBLsX/v61oUvScKAHtQkA83XQLfOBNuuDPYpw221Serbfz1GXvcpRgmH2yh4IixcNgBUFzktkYR2V15Jcz+KNbwF8BbC0Kz5W4TXzwRbrkaBvZ2XUnmUwBog4G94Z8/t/0DbroXnp/luqL02VFu/7zxf+acCBy0H4wfBeNG2Bg7woKCiKTHjnI7fXlebMxdDB98EuwFzO118hRb4HfoGNeVBIcCwF44dAw8d5cl65vvt0UzYdMQTXzoNDa0H4wbGQsFsdtBfdzUKJJNVm2I/Z1bkrhdnkVrk9rrxElw86U2Uyl7RwFgH0w+GF642zbCuP1hu7pVbZ3rqtxavs7GE68lnuvaOTFLEA8Fo4dCnv7Uieymrh4WLW/W7JfC9jLXlWWe/Dy7eup3L4CD93ddTXDpo7gdDt4fHvwf+MWV8LtHbA+BoG4mlArby+x0ysanVObn2cLCkUNsC+MRg2DEYLvfuaOzUkXSpqwClqyEpSth6Sq7v2SFLdgL+xeJz9K9i53L/+3zoE9319UEnwJAEvTpbjtL3XgR/OU/tq3kkpWuq8pMtXUtH0IA6N3NgsGIQbFwEAsIwwdo1kCCpa7eLpCzdJU1+iXxZr8CNm5zXV3wjBxs27d//XTb7VSSQx+rSVTYAS4/Fy47B555A+57HJ57M9wLc/bGxm02Zr7f9PmcCAztv/uMweC+MKCXzSqIpFttne2Ut3L97t/ol6/V3/v2yonYNU4uO8dOyfY81xVlHwWAFPA8OP0oGxu22il1D/xbswL7qiGaOD3xmWY/8zzo1RUG9rGzNZqM2HN9e0BujpPSJaDqG2D9Fli9EVZviN02Hhtg03bI8GupBdLIwXDR5+Frp2maP9UUAFKsT3f43tdszFpgQeCRl2BnpevKsoPvJ2YO3lvY8u/kRKBPj9YDQv+e0KNE2yKHRU0tbCmFtZtbb/AbtugbfDp1KoLzPmeNf4pW86eNAkAaTYltqHPn9XYd7Qeegv/O1beIVGuI2jUR1m6Ctz9o/feKi6BniYWB+OjZtfXH3Tprl0TXolHYVmYNfUspbN6euN/i41LbMEfc8zy7fPlFZ8K046FjoeuKwkcBwIGOhbaY5eun27eNx1+FJ2dYGNC3DnfKK2209RzrSMRCQPOAUNIJigstUMRvOxY2eq6o6c/DOvNQUwvlVbF/71WJf//lVVDR/PkqKN25e0PfVpadF6/JVjkRa/pnHQPnHKfd+lxTAHBsYG+4+nwbW3fA0zPtXPqX3rFL+0rmikYTjag9cnNiAaGo9eBQ0MF+b9fIbfZ4H58DO95d3wD19Y3ut/O56prWG3l5pT1f39D+/waS+Qo7wOcOh7OPhTOm6pLkmUQBIIN07wIXnmGjshpeeMvCwH/e0GYg2ay+wbZ2DeO+7ZKdunaG04+0pn/SZLs4j2QeBYAMVVRgf3nOPtYaxOtz7DDBkzPs1CMRkUwyoJdN7Z91DBw9QWfeBIECQADk5sDxh9n47fdstfuTM+CJGbBwmevqRCSsxgyDs4+xpj9RF+EJHAWAAJo4xsb/fQs+XgXPvmnb7c6cq0MFIpI6XTvD1PFw7EQ49QjYf5DriqQ9FAACbv9BcPUgW0QYjcKCT2DGezBjjgKBiLRPvOEfMwGOmQgH76dTX7OJAkAWiUQSV9+75gIFAhHZO2r44aIAkMUUCERkT9Tww00BIET2FAhef992yduw1XWVIpIqfbrDpIPg6EPU8EUBINSaBwKAdZthziKYs9jONpizSKFAJIj6dIcJo23B8IRRdr9fT9dVSSZRAJAm+vW0ccbUxHONQ8GcRTbWb3FXo4g01beHNfgJo9Xspe0UAOQztRQK1m9JhIF4MFi32V2NImHRr2fTRj9htAUAkb2lACD7pG8POP0oG3EbtiZCwYefwuIVtk9Bda2zMkUCqyDfTvMdNQQOHJ5o9n26u65MsoUCgCRNn+5w2pE24qJRWLEelqy0QNB4bNrmpk6RTNKrmzX5xmPkYBjSVwv0JLUUACSlIhEY1t/GKVOa/mx72e6hYPEKWLZWV4qT7JKbY38Hmjf6UUPsVDwRFxQAxJmunWHywTYaq6uHT1YnAsGSlRYKVm2wdQZ19S6qFdmzvFw7Pj+ojzX7kYMTTX6/gfZzkUyiP5KScfJyYfRQG81Fo7YAcfVGCwTNb1dtgM3b01+zZL+eXa25D+oDA3vvftu3h6bsJVgUACRQIhHo38vGpINa/p3qWljdQjhofFtemd66JbMVF7Xc1OO3A/vYojyRbKIAIFknvnp6T1cq214GG7fZbMHm7bC5FLaUNnrc7PkanckQKB3yoUcJ9Cyxb+6NR/Pne3fTcXgJJwUACaWunW2MGtK23y+rsEDQJCS0EBi2ldnsQnkVVFaD76f0HyPreR4UFUBxoX1L79Z594Yeb+Y9GjX1zh1dVy6S+RQARNqgc0cbwwe0/f/j+1BRZWEgHgrKK2FnZexx5e4/i9/fWdH0Z9U1dmZEXb3d7rpfDw3R1P1z70lOBHJzbc1Gbo6N+P2CDommXVwInTo2elzU9Gfx5zq18LOOhRYCRCT5FABEUsTzEs2NFG7e4vuJUNA4GDQODC0Fh/iplrk5rTfyXc81+3lujhqzSNApAIgEnOdZc9ZpZiKyN3TSioiISAgpAIiIiISQAoCIiEgIKQCIiIiEkAKAiIhICCkAiIiIhJACgIiISAgpAIiIiISQAoCIiEgIKQCIiIiEkAKAiIhICCkAiIiIhJACgIiISAgpAIiIiISQAoCIiEgIKQCIiIiEkAKAiIhICCkAiIiIhJACgIiISAgpAIiIiISQAoCIiEgIKQCIiIiEkAKAiIhICCkAiIiIhJACgIiISAgpAIiIiISQAoCIiEgIKQCIiIiEkAKAiIhICCkAiIiIhJACgIiISAgpAIiIiISQAoCIiEgIKQCIiIiEkAKAiIhICCkAiIiIhJACgIiISAgpAIiIiISQAoCIiEgIKQCIiIiEkAKAiIhICCkAiIiIhJACgIiISAgpAIiIiISQAoCIiEgIKQCIiIiEkAKAiIhICCkAiIiIhJACgIiISAiFMgBU17quQEREMkVYe0IoA8D7i11XICIimSKsPSGUAWD2R64rEBGRTBHWnhDKALByPWzc5roKERFxbeM26wlhFMoAAPDqu64rEBER18LcCzzf913XsEee5xUAVcl+3eED4KNHoEN+sl9ZRESCoKYWDjgPPl2Tkpcv9H2/OiWvnCShnQH4dA3c8pDrKkRExJVbHkpZ8w+E0M4AABQVwKLpMKhPKl5dREQy1aoNMHoaVKbuO7pmADJZZTVcfavrKkREJN2uvjWlzT8QQh0AAJ6cATfc6boKERFJlxvutM/+sAt9AAC49SG48XeuqxARkVS78Xf2mS8KALv84kG4+X7XVYiISKrcfL991otRAGjkf++Hnz3gugoREUm2nz1gn/GSEOqzAFpz5Xlw23chPy+d7yoiIslWWwfX3Q53P5L2t874swAUAFoxYTQ88ksY1j/d7ywiIsmwbC2c9wOYs8jJ22d8ANAhgFbMWQSHfBkef9V1JSIisrcef9U+wx01/0DQDEAbXH0+/PoqHRIQEcl0tXXwvbvgzn+4riTzZwAUANro0DHwxx/Dwfu7rkRERFqy4GO4+Kfw7kLXlQAKAO2XKQEAICcCl50LP70CunV2XY2IiABsK4Mf3wP3PQYNUdfV7KIA0F6ZFADiunWGn1wOl0+zUCAiIunXEIV7p8NN91oIyDAKAO2ViQEg7qD94M7r4diJrisREQmX196z/fw/+MR1Ja1SAGivTA4AceceB7++WqcMioik2rK18L074bHMP0NLAaC9ghAAAHJz4EsnwQ8uhAOGua5GRCS7fLQMfvln+OcLUN/gupo2UQBor6AEgDjPgzOnwo0XwWEHuK5GRCTYZn8EP38AnpoJGd6umlMAaK+gBYDGjj8MbvwGHHeo60pERILl1Xfh5w/CK7NdV7LPFADaK8gBIO6wA2xG4MypNkMgIiK78337pv/zB+ybf8ApALRXNgSAuP0HwSVnwddPh17dXFcjIpIZNm2Dv/wH/vAkfLzKdTVJowDQXtkUAOLycuHzR8Ol58AJh2lWQETCx/fh5dlw/+Pw79ehrt51RUmnANBe2RgAGhvaDy4+C75xJvTt4boaEZHUWr8FHnwK/vgkLF/nupqUUgBor2wPAHG5OXD6UXDJ2XDyZIhoh0ERyRLRKDz/FvzhCfjPfwNzGl97KQC0V1gCQGMDesEXToBpJ8Dkg3SIQESCx/fhrQ9g+svw6MuwZpPritJOAaC9whgAGuvfC845FqYdD0eO08yAiGSuaBTenA/TX7Gd+taGr+k3pgDQXqkIAJ4XuA0lAOjdDc45zsLA0RN0ISIRca8hCv+da9/yH38VNmx1XdHeS1FPUABor1QEgJ9eAeWVcPvDUFuXzFdOn55d4axjLAwcd6itIRARSYf6Bpgxx6b3n5hhp/EFUX4efPcCKC6yywknmQJAe6UiANx+LVxzgZ1veu3ttiglyEo62emEJ06CkybDoD6uKxKRbLN6I7z4to2X38nIy+/uldOPgt981/ZnueNh+O5vkv4WGR8Acl0X4NL+g+Dp2+G5WfDd22DJStcV7ZvSnXbMbfor9njkYAsCJ06CYyZAx0K39YlI8FRW27f8eNNftNx1RckxcjDcfh2cMsV1Je6FOgDEnTLFvkHf9U/4yR+grMJ1Re2zZKWNu/5pU1xHjE0EgnEjdFaBiOzO92H+x/DCW9bw35gX3EOkLencEW66BK76km3GJgoAu+TlwnVfga+cCj+8G/78dDAXCjZXWwevvWfjB7+1LYg/d7iFgaMPgcF9XVcoIq6sXA+vv28N/6V3gnssf088Dy48A35xpS2klgQFgGZ6d4MHboIrpsFVt8DbH7iuKLk2bYO/P2cDoF9PmHKwzRJMGQvjRyodi2SjunqYuwRmzbdT9WYtgHWbXVeVWpMOgrtugEPHuK4kM+mjvhWHjoFZD8BDz9o35/VbXFeUGus2N10/UNgBDj0gEQomHwzdu7itUUT23tYd8NaCRLN/9yOoqnFdVXr07QG//A589VQd8twTBYA98Dz42mm2Ec///Qnu+AfU1LquKrWqamDm+zbA/h2MHBwLBOPsduRg/aUSySS+b+t+Zi2AN+fZ7ZKV2XEYc290yIdrzof/9007tU/2TAGgDYqLLE1e+UX42Z/gT//OyitXtcj3YfEKGw88Zc917WyLCceNgHEj7Xb0UB06EEmHunpbkT9vKcxbErtdCtsDflpee+Tlwjc/Dz/6pm2lLm2jj+y9MKAX3PND+MGF8PMH4a//geosnxFoyfayxMLCuPw8OGBYIhCMGwFjR0CXYnd1igTdjnKYvzTR5OctgY+WZdfq/PYoyIevnQ43fkMLmveFAsA+GNwX7rsR/u8K+P2j8Pvp2bl6dm/U1tkCo7lLmj4/tF+jUBC71UZFIrtbtaHZt/olWX+53H3Wqxt8axp86wu2K6rsGwWAdujZFf7nUvj+hbaq/jd/h4XLXFeVWZavs/HEa4nnSjrZOoKRg2HEYBgxyO7vP8gWIYpkq6oa24F0yUpYugqWrkzs21G603V1mW/MMLj2y/DlU+zbv7SPAkASFOTb8advfh6en2VB4KV3XFeVuUp3wjsf2mjM82Bg71ggGGK38fuD++hKiBIM0Sis3ABLVsSa/KrE/dUbw7cwLxk+d7g1/pO1e19SKQAk2clTbHz4Kdz3GDz8fPD3zE4X37dp0FUb4OXZTX/WIR/2G9B0xmBwXwsMA3pr5kDSq6oG1my0hr5yfdNv9J+syf6zhdKhW2e44GS47Fw4cLjrarKTAkCKHDgcfvs9uPUa+PfrtoL+pXfs24HsvZpaW/z0USuHWHqUWBgY2BsG9ml0PxYQBvTSWQrSNnX1sGZTosHvGhsS97eUuq4yO0Ui9m3/ojPh80db8JfU0UdiinXIh/M+Z2PNJtti+M9Pw6drXFeWXbaU2mi+CDHO82yXx5YCQv9eFiB6lNi3Du1xkJ1832bj4n9W1m5qucFv3KZp+nQbPsC2673wDJ3Gl04KAGk0oJdtUPGji2DmXHjg3/D4a1Be6bqy7Of7sGGrjXcXtv57ORHo1iURCHp2TdzvUQI9S5o97qqrLbpSUQWbtyca+pZS2Fza7HGjn2/bAQ2agcsYxUW2ydpFn4ep4xW8XVAAcMDz7EI8Rx8C995oF+J4cgY8PdO27xR3GqLWNDZvb/v/pyC/aSAo6WQfbp2K7La48DMex54rKsj+D0Hft8vMlldZ8C2vhJ2x2/hzrT0u3dm0oYdxD46g694FzpgKZx1jFyTT2h23FAAcK+xgx7o+f7Q1n//OtVPm/v26LS6SzFddGztmvKl9rxOJQMeCRChoHBgKOtjsRG4O5OTYbW5O7LncRveb/7yF343/Xm6OvW99g42GKNTXx27jzzXsfn/Xz1v53YYoVNe00NAroaJa62DCZnBf+3w7+1g4arz9+ZPMoACQQXIicMwEG3deb8ezn3jNZgc++MR1dZJq0ag1y506JCQBd9B+9i3/7GPtCqOSmRQAMtj4kTZ+crktGnxyhgWCtz7QtygRyRyRCEw+yBr+WcfYoj7JfAoAATF8AFz3FRubtsFTMy0MvPKuzjkWkfTrkA/HH2pN/8yptj2vBIsCQAD16gYXn2VjZyW8+q5dmGfGHFjwsU5hEpHk8zw4eH87RHnsRDjuUFunIsGlABBwnYoSiwjBznOe+b6FAQUCEdlXjRv+MRNg6iG2T4ZkDwWALNOtsx2DO+sYe6xAICJtoYYfPgoAWU6BQERaooYvCgAh01ogeP19eGsBzF+qDVZEslFBPowdAZMPtk3I1PBFASDkmgeC+gb46FOYsxjmLIL3FtosgUKBSHAU5Nu3+4ljYMJomDAKDhie2PxJBBQApJncHPuWMHaEXZELLBR8+GkiEMxZBAs+0emHIpmgQz4cvJ81+njDP1DNXtpAAUA+U24OjBth45uft+fq6i0UxAPBnMU2U1Bb57ZWkWyWn2ff7CeMSjT8A4frUteyb/THRvZJXm5ip8JLzrbnausSoeCjZbB4hY3VG7XQUGRveJ5dqnrUEBsHDEs0+/w819VJtlAAkKTJz4NDRtlorLIalq6CJSssECxZabdLV9klXUXCqmMhjBhkTX7k4NjtEHuuqMBxcZL1FAAk5YoKEocQGvN9u4JePBDEA8LiFbB2s2YNJDt4HvTvmfg2P3JIouEP6JX9l4CWzKUAIM7EpzkH9oYTDmv6s4oqCwbxcLB8LazaYGPNJluDIJIp8nKtmQ/qY2No/0STHznYvumLZBoFAMlIHQtbPpwAdiXEDVsTgaClsXVH+muW7NW9S6K5tzT6dLcr4okEiQKABE4kAv162ph0UMu/U1ltiw9bCwirN+o0RjEd8m0WqrXmPrC3jsdLdlIAkKxUVJCYfm1N6U7YUgqbt8duS5s9bnZbVpG++mXfde4IPUqgZ9dWbkuaPi7p5LpiETcUACS0SjrZ2G9g236/tq71wBB/blsZlFfaZZob32rNwt7Jy4XiIrvaZePbbp0Tzbu1hq7T5ETaRgFApI3y8xKHHvZWTS2UV8HOCrttKSTs6ba6xnZkbDLqP/u59p5J4Xm2EdSukdvscSvPFXTYvXl/1m1xIXTqaLcd8ttXt4h8NgUAkTTokG+je5f0vm80uueQAHtu5FrYJpK9FABEslgkAvkRTYuLyO6U70VEREJIAUBERCSEFABERERCSAFAREQkhBQAREREQkgBQEREJIRCGQB0mVkREYkLa08IZQBoaHBdgYiIZIqw9oQgBAAv2S9YH032K4qISFClqCckvXclWxACQNLVhzTtiYjI7sLaExQAREQk1MLaE0IZAPxoeI/5iIhIQkOD9YQwCmUAAKiqdV2BiIi4FuZeENoAsGNneE/9EBER6wE7drquwp3QBoD6Bigtd12FiIi4sqM8vMf/IcQBAGBnBdTVu65CRETSra4eyipcV+FWqAOA78O2MtdViIhIum0r02HgUAcAgOoa2FrqugoREUmXraX22R92oQ8AAOVVsHWH6ypERCTVtu6wz3xRANilvFKHA0REstm2MvusF6MA0MjOCtiuECAiknW2l9lnvCTkui4g05RVQEMUuncBL+Mv5SAiInvi+zbtX6Fp/90oALSgogpq66BHV8jXvyERkUCqrYct23W6d2t0CKAVdfWwYYuOF4mIBFF5pX2Gq/m3Tt9v9yA+dVRdC926QESHBEREMlrUh22a8m8TBYA2qKiCmjpbF1CQ77oaERFpSXWtfWmr17f+NlEAaKP6eti4FYoKoGtnyM1xXZGIiIDt57+9DCqrXVcSLAoAe6myGqpqoEsxdO6oMwVERFzxfTtza0e5tvXdFwoA+8D3oXSnLTLp2tlmBUREJH0qq+1bf5iv5tdeCgDtUN8Am7dDQQfo2gny81xXJCKS3WrrYPtO7eWfDAoASVBdA+troLAAunSEDlooKCKSVDW1sKMCqnScP2kUAJKoqtpGQT50LobCDq4rEhEJtqoaKCu3Ff6SXAoAKVBdC9Xb7JBAl2KtERAR2VuV1ba4r7bOdSXZSwEghWrrbI1AXq7NCBQXuq5IRCSzlVfZN37t4Jd6CgBpUFcPW0vtzIHiQigu0j4CIiJx9Q12VlV5FTRoVX/aKACkUUODTWntKLczB4oL7fCA9hIQkbDxfZvmL6/Sin5XFAAcqa6xEYkkZgXy9F9DRLJcXX3i23406rqacFPLcSwatZ2syirs9MHiIuioWQERySK+DxXV1vhrtJo/YygAZJCaWhvbPdtToKjATiVUGBCRoPF9O4WvMnZ6dFRb9WYcBYAMFPXtCoQVVdb8CwtsVkBhQEQyWbzpV8Savvbnz2wKABnO96GyyobnWQgoKtDiQRHJDPHFfPELpanpB4cCQIA0/ovWOAwUFkBEYUBE0iTq2zd8Nf1gUwAIqOZhoEOenVpY2EEXJRKR5Kuts2ZfXQM1dWr62UABIAv4fmz74VrbbCgnkggDBR3ssYjI3miIWrOPN/0GnbKXdRQAslBDNLGIEGxGIB4IOuRp7YCI7M737Zt9vOFrD/7spwAQArV1NsrKrfkX5MfCQL4OF4iEWW2dnXpcVWMziJrWDxcFgJCJn6ZTFdt6M+JBfr6FgQ55dqsFhSLZJ+rH9hqJNf3aWp2bH3YKACEX9RPbEsfl5yXCQId8XbhIJIjqGxKbi9XUaUpfdqcAILuJHzLYWWmPc3KaBoL8XK0jEMkkvg+19U0bvq6qJ58lCAEg6bm1ojrZr5jdGhqgssFOOQRr/nm5NlOQnwt5eXZfhw5EUi/qW0Cvq7OmX1tnF9jR8ft9l6KekPFzLhkfAHzfr/c8rxwoTtZrLvg4Wa8UTr6fmCVoLDcnFgoaBQMdPhDZd/UNTRt9bZ09J8mVgp5Q7vt+fdJfNckyPgDEbCeJAWDe0mS9kjRW32CjslGajkQSgSA/z0JBXi5oskAkwce+xdfFmny84etyuemRgp6wPemvmAJBCQClwMBkvdjm7bBuM/TrmaxXlNZEo7svMvQ8mxnIzYW8HAsE8fs5mjGQLNbQAHUNUF8fa/ix+/UNmsJ3Zd1m6wlJVpr0V0yBoASALcl+wRlz4IKTk/2q0ha+H/vwq4eqZj+Lry9oKRxEtKOhBEA02nKT13H6zDRjTkpeNuk9KxWCEgA+AI5N5gv+5u9w5tFQXJjMV5X2am19AVgAyMuNhYKcxMiJDR1WkHTwsW/yDQ2Jw171DYlQq2n74Civsl6QAh+k5FWTLCgB4G3gqmS+4JZS+w9/08XJfFVJpWg0cZpTS3JyIDcSu81pdBtJPBb5LPHG3hCN3TY0uo3q9Lps8pu/Wy9IgbdT8qpJ5vkBmJPyPG8QsDLZr5ubA8/cCSMHJ/uVJSN5zQJCo2AQidjj+K1kn4aohchdty01+ij2FV+y3pKVcNrVKTurYrDv+6tS8spJFIgAAOB53nqgT7Jf97AD4eGfWWMQiWseCD7rVhsjpZfvt9DQP+NWJK4+Chf8CGZ/mJKX3+D7ft+UvHKSBeUQAMAzwDeT/aKzP4Rrb4M7rtMiM0mI7mXT8LxEIIhEbFMkz4vdNnq867kWftb4d7KR79uINr6NNnu8h59FGzX0gHxvkQwUjdpnfoqaP1ivCoQgzQBMBmal6vXPPR7hby5nAAANE0lEQVRuvTp7P3wlWCKR3UOBB+A1WuzYwnPxP7+7bj/j53Hxj4Fdt7H/8dvy8xae263Z6xu4ZADfh+vvhMdeSenbTPF9/62UvkOSBCYAAHietxgYmarXv+Bk+Nm3FAJERLKN78OPfg8PP5/St1ni+/6olL5DEgVt0vtvqXzxh5+Hm+9P5TuIiIgLN9+f8uYPKe5RyRa0GYBuwDKgSyrf59Qj4FdXQaeiVL6LiIik2s5K+P5d8OybKX+rHcAw3/e3pfydkiRQMwCxf7G3p/p9nn3TTg/RRYNERIJrwcf2WZ6G5g9we5CaPwRsBgDA87wibBagd6rfKy8XbrwIvnFGqt9JRESS6cGn4ecP2O6MabAR+/ZfmZZ3S5LABQAAz/OuAu5M1/udNBluuRo6d0zXO4qIyL4oq4Ab7oQX0rsO/2rf9+9K6zsmQVADQAR4CzgsXe85oDf89HI4dmK63lFERPbGa+/Bj++FNRvT+razgcm+7wfuZNdABgAAz/P2A+YCxel832Mnwk2XwNB+6XxXERFpzfJ18JM/WABIs3JgvO/7n6T9nZMgsAEAwPO8y4F70v2+ublw0Zlw1Zd0NUEREVfKq+Cuf8IDT9kllx24wvf9e528cxIEOgAAeJ73H+A0F+/dowS+/3WYdrw2DxIRSRffh+mvwK/+krKr+bXFM77vn+7s3ZMgGwJAJ2yL4ANd1TB2f/jRRXZhIRERSZ3ZH8LPHoD5bk/T/hDb8nen0yraKfABAMDzvIHAO4DTKzAdOga+fR4cM8FlFSIi2WfGHPjdI/DuQteVsB443Pf91a4Laa+sCAAAnudNAGaQ5kWBLRkzFL51Hpw6RVcYFBHZV9EoPDsLfv8ILFzuuhrAFv0d4/v+HNeFJEPWBAAAz/NOAR4FMuKM/aH94IovwDnHQm6O62pERIKhvgEefw3uedRW+GeICuALvu8/57qQZMmqAADged4k4Gmgh+ta4vp2h0vOgS+dCEUFrqsREclMldXwzxfhD4/D+q2uq2liC3CG7/tvuy4kmbIuAMCuPQKeB4a7rqWxTh3hrGPg/JPsMIGIiNj0/j9egCdnwM4K19Xs5lPg5KCe678nWRkAADzP6wk8AxzqupaWHLy/BYEzp0JH7SUgIiFTUQVPzbTGn8EXXnsXOM33/c2uC0mFrA0AsOvCQY8Cp7qupTUdCy0EfOkkO51QRCSbzf8Y/vmCNf+KKtfV7NGz2DH/QF3gZ29kdQCAXdcNuA+42HUtn2XMUDj/ZDtM0KnIdTUiIsmxs9Km9//xfMas5v8sfwQuC+L+/nsj6wNAnOd5NwE3Axm/Z19BPhw9AU49Ak44TIcIRCR4Kqrg5dnw7Jvw+hyornVdUZv4wM2+7//EdSHpEJoAAOB53gXA3UBX17W0VX4eHD0eTjkSPne4ZgZEJHPtrISX3oHn3oDX50JtneuK9sp24Erf9x92XUi6hCoAAHie1we4HzjDdS17Ky8XjhwHp8XCQBfnWx6JSNjtKLem/8wb8MY8qHNzUZ72ehq41Pf9Da4LSafQBYA4z/O+DNxBBu0XsDdyc2HKwXaY4MRJ0K2z64pEJCy2lcGLb9v0/qwFzq7ElwxbgGt83/+760JcCG0AgF2nCt4DnOu6lvaIROCg/WDqeDhqPBwyGnK1BbGIJEl9FN5fBP+dCzPnwgef2Da9AfcYdjnfrDzFry1CHQDiPM+bhq0N6O26lmQoLoLJB8HUQ2wM7uO6IhEJmpUbYOb7Nt76AMqz52S4jdix/umuC3FNASDG87xuwG+BC1zXkmyD+tjMwNGHwJSxUKyzCkSkmfIqmDUfXn/fvumvys6j4Q8D3/F9f5vrQjKBAkAznuedAfwOGOi6llTIzYFxIywQTDoIxo6w0w5FJFyqa2H+Unj7A2v485baRXiy1Grg277vP+26kEyiANACz/M6AFcCN5AlhwVak5sLBwyDiaNh4hgbPUtcVyUiyba5FN5bGBuL4KNlgV6811YbgVuAu33fr3FdTKZRANgDz/MKgauB6wjo2QL7YlCfRCCYMBr2H2gLDUUkGKJR+Hg1zFmUaPhZOqXfmi3AbcCdvu9n9obDDikAtIHneR2xEHANAdpEKFk6d4TxoxKhYNwIKOzguioRiauqsSn8eLOfuxjKMu+qeumwHTu9+zbf98P5b2AvKADsBc/zOmOHBa4CQnvmfU4EhvSzaxeMGWa3o4dBr9BFI5H027QdFi2zPfUXxm5XrIOG4J+W1x5l2CLuX/u+X+a6mKBQANgHnud1BX4AfAvQfnwx3UtgzBAYMxxGD7FwMGyA9iQQ2Rf1UVi2xpr8ohWw8FNYuAK2lrquLKOUA78Hfun7/nbXxQSNAkA7eJ7XA7gRuAjo4ricjNQhD0YMhtHx2YIhMGqoHVYQEVNWAYuXW4NfuAwWLYelK6EmWHvpp9MO4AHg577vb3FdTFApACSB53lFwFeBS4FDHJcTCD1KbHZgWD8Y2j9xf3BfO1VRJNvUN8DK9bBsnX2zX742cX+LvtW31fvYtVwe8n0/e7YmckQBIMk8zzsMOzTwBUDX7ttLOREY2NsCwdB+MKx/4n6f7q6rE/lsG7bC8lhjX7Y2cX/1xtAfp99XlcCjwO9935/tuphsogCQIp7nlWCHBi4BRjkuJysUFVgQGNofhg+A/r2gbw/o9//bu7vfqIowjuPf6S7QN1r7ZigoioBGUVGCL4hRiVG8Uu/03gv/JmP0Wu/UK8EYohHxhSAoivIiCLYltLS2bLctdHe8eOawh6VIi9vO7p7fJ3kyZ7bb5IGLznPmzJnpt7a9NXaGkgXFWRgZg+Exa4cuwZlwR3922H4uNfE78D7wofdecyTLQAXACnDO7cFmBV4HtO/eMunuhMGBSkGwvt/6g/2VWLMqdpZSz+au2aB+PUYrA/1w6E8WYmfZ1K4Cn2F3+wdiJ9PsVACsIOfc3cC7wDvAfZHTyaTe7lSBMGAFwrpeO065pwv6uq3VPgfNZWYOJqbg8qS141NwcTwM8KOVAX58MnammfUX8AHwnvf+UuxkskIFQATOOQe8ALyFzQpsiJuRVGtdfWNB0JtEd6VYSPfv6tLrjitlvgz/hEF8fNLaiap+8lky4M9ejZ21LGAIu9v/GPjaazBacSoAIgvFwG6sGHiDJj2EqNk5B2vbrWDo6oD2NuhstbajzdYndLZb29Fa1U9+3ha+3wqr8rH/RbV1bR6mZ6E4Y6fOFWdhOrSFYujPVvVnwvfD701N24B+pQj6s9WwLgCfYoP+QQ36cakAqDPOuV3A28CbwMbI6Ugk+fyNBcSaVZDL2SxDLm+vSuZarF3os1wu1bZU9VPfA3s9rVQObSnVlqv66e/N288X+qxUsmfp6QE8A4fOyK2dBz4BPvLeH4qdjFSoAKhj4ZXCpBjYFDkdEZHFOktl0Nere3VKBUCDcM7tpLJm4MHI6YiIVDtJeKbvvT8cOxm5PRUADcg5txF4DXgFeBEYiJuRiGTQKPAV8AXwuff+fOR8ZIlUADQB59wOYC/wMrAL7UAoIrVXBA4BXwL7vPdHIucj/5MKgCbjnFuDvWK4F9gDbAe0u76ILFUJOAYcAPZhr+rNxU1JakkFQJNzzvUCr4Z4CS0mFJFbO4cN+PuB/d778bjpyHJSAZAxYf3A89ijgqeBxwHtoi+SPbPAz8AP2NT+N3qOny0qADLOOZcHdmKbET0DPAXcHzMnEVkW54Afge+Bg8Bh7712aMgwFQByk3BmwW7gOWyWYAfQGTUpEVmKAnAEu7v/Ftt1T3vsyw1UAMhtOedagMewouBZ4ElgK6Ajc0TimwNOAT8B32F3979478tRs5K6pwJA7ohzLgc8DDyBrSN4FHgE277YRUxNpFl5bFvd34Dj2PP7o8AJ730pZmLSmFQASE055zqxVw+3Y4XBNqxQ6IuZl0iDuQycAH7FBvpjwDHvfSFqVtJUVADIinDOrcdmC7ZjswXbgM1obYFkWwE4gw30x7GB/qj3fjhqVpIJKgAkqrDg8CFsTcFW4AFsr4JNQH/E1ERqZQw7HOcs8Cf2vP4U8IcW5klMKgCkbjnnuqgUB1uwGYOkQBgEWuJlJ3JdGRihMsCfAU5TGeSnIuYmcksqAKQhhS2Pt2AnI24GNgDrQ6wLoccLUgsF4GKI4RBD2EB/EjitLXKlEakAkKYVZhA2AvekYgM2e5DEAJCPlaNENY+daDeSiiHg71Sc1x28NCsVAJJpYY+DQeDeEElR0Af0AL2p6AG60aOHelUGJoEJYDwVE9iq+mSwvxBiRO/KS5apABBZAuecw4qBAWyRYl9ok+vqwqEL6ADaQqh4+G9lYCbENDDFzQP5ZWxh3VjqehQY9/qDJrJoKgBEVpBzrh1Yi61PSCLpd4RYm7qujtXYI4s8dsxzEvlFXC/0GdixryVsSrxUFfOLuE7688BVbOBeKK6krguhX0jFFe998U7/b0Vkaf4FzJP2qQoUDckAAAAASUVORK5CYII=;" vertex="1" parent="1">
          <mxGeometry x="1045" y="362" width="56" height="56" as="geometry" />
        </mxCell>
      </root>
    </mxGraphModel>
  </diagram>
</mxfile>
